<?xml version="1.0" standalone="no"?>
<!DOCTYPE svg PUBLIC "-//W3C//DTD SVG 1.1//EN" "http://www.w3.org/Graphics/SVG/1.1/DTD/svg11.dtd" >
<svg xmlns="http://www.w3.org/2000/svg" xmlns:xlink="http://www.w3.org/1999/xlink" version="1.1">
<metadata>
Created by FontForge 20170731 at Tue Aug  7 03:24:42 2012
 By Aleksey,,,
Copyright (c) 2004 - 2007 Linotype GmbH, www.linotype.com. All rights reserved.
</metadata>
<defs>
<font id="AvenirNextCondensed-UltraLightItalic" horiz-adv-x="431" >
  <font-face 
    font-family="Avenir Next Condensed Ultra Light"
    font-weight="275"
    font-style="italic"
    font-stretch="condensed"
    units-per-em="1000"
    panose-1="2 11 2 6 2 2 2 9 2 4"
    ascent="800"
    descent="-200"
    x-height="483"
    cap-height="708"
    bbox="-258 -250 758 945"
    underline-thickness="50"
    underline-position="-200"
    unicode-range="U+000D-FB02"
  />
<missing-glyph horiz-adv-x="512" 
d="M222 117v67h56v-67h-56zM225 234l-2 17q0 56 13 81q7 13 18 27.5t28 31.5q16 15 26 26.5t15 21t7 18t2 17.5q0 36 -22.5 60.5t-53.5 24.5t-53.5 -22t-28.5 -73l-50 8q7 72 44 104.5t91 32.5t89 -35.5t35 -95.5q0 -32 -12.5 -58.5t-50.5 -61.5q-37 -33 -43 -52
q-6 -20 -6 -72h-46zM462 50v617h-412v-617h412zM512 718v-718h-512v718h512z" />
    <glyph glyph-name=".notdef" horiz-adv-x="512" 
d="M222 117v67h56v-67h-56zM225 234l-2 17q0 56 13 81q7 13 18 27.5t28 31.5q16 15 26 26.5t15 21t7 18t2 17.5q0 36 -22.5 60.5t-53.5 24.5t-53.5 -22t-28.5 -73l-50 8q7 72 44 104.5t91 32.5t89 -35.5t35 -95.5q0 -32 -12.5 -58.5t-50.5 -61.5q-37 -33 -43 -52
q-6 -20 -6 -72h-46zM462 50v617h-412v-617h412zM512 718v-718h-512v718h512z" />
    <glyph glyph-name=".null" horiz-adv-x="180" 
 />
    <glyph glyph-name=".null" horiz-adv-x="180" 
 />
    <glyph glyph-name="nonmarkingreturn" unicode="&#xd;" horiz-adv-x="0" 
 />
    <glyph glyph-name="space" unicode=" " horiz-adv-x="180" 
 />
    <glyph glyph-name="exclam" unicode="!" horiz-adv-x="274" 
d="M139 195h-22l89 513h22zM102 -7q-20 0 -20 22q0 11 7 21t19 10q11 0 15.5 -6.5t4.5 -15.5q0 -13 -7.5 -22t-18.5 -9z" />
    <glyph glyph-name="quotedbl" unicode="&#x22;" horiz-adv-x="298" 
d="M131 480l39 228h22l-39 -228h-22zM229 480l39 228h22l-39 -228h-22z" />
    <glyph glyph-name="numbersign" unicode="#" horiz-adv-x="328" 
d="M278 453l-50 -196h68l-3 -17h-69l-60 -240h-20l60 240h-94l-60 -240h-21l60 240h-66l3 17h67l51 196h-67l3 17h68l59 238h20l-59 -238h94l59 238h21l-60 -238h67l-3 -17h-68zM164 453l-50 -196h94l50 196h-94z" />
    <glyph glyph-name="dollar" unicode="$" horiz-adv-x="438" 
d="M298 786h20l-15 -83q37 -2 66 -16.5t46 -43.5l-15 -12q-33 51 -100 54l-56 -318q21 -15 40 -32t34 -37t23.5 -44.5t8.5 -53.5q0 -44 -13.5 -80t-36.5 -61.5t-54 -39.5t-66 -15l-15 -82h-20l15 83q-42 4 -75 24t-53 56l17 14q17 -34 49 -53t65 -22l59 333q-20 13 -39 28.5
t-33 34.5t-22.5 42t-8.5 52q0 40 13 74t35.5 59t52.5 39.5t63 16.5zM183 23q30 1 56.5 14t46.5 36t31.5 54.5t11.5 69.5q0 26 -7.5 48t-20 40.5t-28.5 33t-33 26.5zM280 685q-25 -2 -50 -14t-45.5 -33.5t-33 -52t-12.5 -70.5q0 -25 7.5 -45.5t20 -37t28 -29.5t31.5 -24z" />
    <glyph glyph-name="percent" unicode="%" horiz-adv-x="598" 
d="M235 724q41 0 61 -31.5t20 -84.5q0 -40 -9.5 -81.5t-27.5 -75t-43 -55t-55 -21.5q-41 0 -61 31.5t-20 84.5q0 40 9.5 81.5t27 75t42.5 55t56 21.5zM235 705q-27 0 -48.5 -21.5t-36 -53.5t-22 -70t-7.5 -72q0 -42 14 -68t46 -26q27 0 48 21.5t35.5 53.5t22 70t7.5 71
q0 43 -14 69t-45 26zM457 337q41 0 61 -31.5t20 -84.5q0 -40 -9.5 -81.5t-27.5 -75t-43 -55t-55 -21.5q-41 0 -61 31.5t-20 84.5q0 40 9.5 81.5t27 75t42.5 55t56 21.5zM457 318q-27 0 -48.5 -21.5t-36 -53.5t-22 -70t-7.5 -72q0 -42 14 -68t46 -26q27 0 48 21.5t35.5 53.5
t22 70t7.5 71q0 43 -14 69t-45 26zM129 -24l-18 8l394 752l18 -8z" />
    <glyph glyph-name="ampersand" unicode="&#x26;" horiz-adv-x="496" 
d="M387 0l-56 118q-14 -26 -29.5 -50.5t-35 -43.5t-44 -30t-56.5 -11q-64 0 -97.5 43t-33.5 110q0 46 12 84t34 69.5t53 57t68 45.5q-21 43 -30 82t-9 69q0 38 9 71.5t26 58t42.5 39t57.5 14.5q27 0 45.5 -9.5t30 -26t16.5 -38t5 -44.5q0 -42 -13 -75t-36 -60t-53.5 -48.5
t-64.5 -40.5l105 -222l110 207h24l-124 -226l68 -143h-24zM209 375q-31 -16 -58.5 -39.5t-48.5 -53.5t-33 -66t-12 -77q0 -61 28.5 -99t81.5 -38q27 0 49.5 11.5t41.5 30.5t34 44t29 53zM296 708q-27 0 -48.5 -14.5t-35.5 -37.5t-21.5 -52.5t-7.5 -60.5q0 -33 10 -69t27 -73
q32 18 60 38t48.5 44.5t32.5 55t12 68.5q0 42 -17.5 71.5t-59.5 29.5z" />
    <glyph glyph-name="quotesingle" unicode="'" horiz-adv-x="200" 
d="M131 480l39 228h22l-39 -228h-22z" />
    <glyph glyph-name="parenleft" unicode="(" horiz-adv-x="228" 
d="M97 -156q-26 60 -40 133.5t-14 153.5q0 79 15 160.5t42 159.5t65.5 149.5t86.5 131.5l16 -10q-47 -59 -84.5 -130.5t-63.5 -148.5t-40.5 -156.5t-14.5 -155.5q0 -78 12.5 -150.5t38.5 -127.5l-19 -9v0z" />
    <glyph glyph-name="parenright" unicode=")" horiz-adv-x="228" 
d="M146 732q26 -60 40 -133.5t14 -153.5q0 -79 -15 -160.5t-42 -159.5t-65.5 -149.5t-86.5 -131.5l-16 10q46 59 84 130.5t64 148.5t40.5 156.5t14.5 155.5q0 78 -12.5 150.5t-38.5 127.5l19 9v0z" />
    <glyph glyph-name="asterisk" unicode="*" horiz-adv-x="398" 
d="M407 589l6 -17l-154 -50l97 -142l-15 -10l-94 143l-94 -143l-15 10l97 142l-154 50l6 17l151 -52v171h18v-171z" />
    <glyph glyph-name="plus" unicode="+" horiz-adv-x="666" 
d="M345 65h-21v230h-224v19h224v230h21v-230h221v-19h-221v-230z" />
    <glyph glyph-name="comma" unicode="," horiz-adv-x="188" 
d="M-11 -138h-17l96 228h24z" />
    <glyph glyph-name="hyphen" unicode="-" horiz-adv-x="214" 
d="M42 244l4 20h130l-4 -20h-130z" />
    <glyph glyph-name="period" unicode="." horiz-adv-x="188" 
d="M54 -7q-20 0 -20 22q0 11 7 21t19 10q11 0 15.5 -6.5t4.5 -15.5q0 -13 -7.5 -22t-18.5 -9z" />
    <glyph glyph-name="slash" unicode="/" horiz-adv-x="298" 
d="M23 -32l-19 5l310 764l18 -5z" />
    <glyph glyph-name="zero" unicode="0" horiz-adv-x="438" 
d="M180 -12q-36 0 -60 16t-39 43.5t-21.5 63.5t-6.5 76q0 43 5.5 99.5t17 115.5t30.5 116t45.5 102t62 72.5t80.5 27.5q37 0 62 -16t40 -44t21 -64.5t6 -76.5q0 -43 -5 -99.5t-16.5 -115.5t-30.5 -115.5t-46 -101t-63 -72t-82 -27.5zM296 700q-43 0 -76.5 -29.5t-58 -76
t-41 -104t-26.5 -114t-14.5 -106.5t-4.5 -80q0 -35 4.5 -67.5t16.5 -58t32.5 -41t51.5 -15.5q44 0 78 29t58.5 75.5t41 104t26 114t13.5 106t4 80.5q0 34 -4.5 67t-16.5 59t-32.5 41.5t-51.5 15.5z" />
    <glyph glyph-name="one" unicode="1" horiz-adv-x="438" 
d="M202 0l118 682l-159 -105l-11 17l172 114h25l-123 -708h-22z" />
    <glyph glyph-name="two" unicode="2" horiz-adv-x="438" 
d="M10 0l5 26l231 290q30 38 55 70.5t43 64t28 63t10 66.5q0 24 -6.5 45.5t-20 38.5t-33.5 27t-47 10q-51 0 -86 -32t-55 -89l-20 7q23 62 61.5 97.5t101.5 35.5q33 0 57 -11.5t39.5 -30.5t23 -43.5t7.5 -49.5q0 -41 -10 -75t-29.5 -67.5t-47 -69t-62.5 -79.5l-218 -273h286
l-4 -21h-309z" />
    <glyph glyph-name="three" unicode="3" horiz-adv-x="438" 
d="M165 -12q-61 0 -96.5 30.5t-50.5 82.5l20 9q14 -45 44.5 -73.5t81.5 -28.5q47 0 80.5 20.5t55 52.5t31.5 69.5t10 72.5q0 64 -35 101.5t-95 37.5h-13l4 21h10q35 0 66 14.5t54 40.5t36.5 61.5t13.5 77.5q0 23 -6.5 45t-19.5 39.5t-33 28t-48 10.5q-34 0 -66 -18.5
t-56 -53.5l-17 12q24 37 61 58.5t80 21.5q34 0 58 -12t39.5 -31.5t23 -45t7.5 -52.5q0 -33 -9.5 -67t-28.5 -62.5t-47.5 -49t-65.5 -26.5v-2q54 -8 81.5 -48.5t27.5 -100.5q0 -39 -11 -81t-34.5 -76t-61 -56t-91.5 -22z" />
    <glyph glyph-name="four" unicode="4" horiz-adv-x="438" 
d="M296 184l-32 -184h-21l32 184h-253l5 27l322 497h38l-88 -504h96l-3 -20h-96zM362 688h-2l-314 -484h232z" />
    <glyph glyph-name="five" unicode="5" horiz-adv-x="438" 
d="M172 -12q-57 0 -88 27t-45 71l19 10q26 -88 114 -88q41 0 74 21.5t56 58t35.5 84.5t12.5 100q0 31 -6.5 57.5t-20.5 46.5t-36 31.5t-52 11.5q-29 0 -58 -9.5t-51 -26.5l60 325h241l-3 -20h-219l-52 -271q40 21 82 21q37 0 63 -12.5t42.5 -34.5t24 -51t7.5 -63
q0 -53 -12.5 -104.5t-37 -92.5t-62 -66.5t-88.5 -25.5z" />
    <glyph glyph-name="six" unicode="6" horiz-adv-x="438" 
d="M257 434q38 0 64.5 -13.5t43.5 -36.5t24.5 -53.5t7.5 -64.5q0 -53 -14 -103t-40.5 -89t-65 -62.5t-87.5 -23.5q-36 0 -64 12.5t-47 35t-29 52.5t-10 66q0 32 5 60t15.5 56t26 56.5t36.5 61.5l207 320h26l-218 -331l1 -1q18 22 47 40t71 18zM256 414q-42 0 -78 -22.5
t-61.5 -58.5t-40 -82t-14.5 -94q0 -68 35.5 -108.5t93.5 -40.5q43 0 77 22t57.5 58.5t36 82.5t12.5 94q0 32 -7 59.5t-21.5 47.5t-36.5 31t-53 11z" />
    <glyph glyph-name="seven" unicode="7" horiz-adv-x="438" 
d="M442 681l-355 -681h-24l360 688h-289l4 20h309z" />
    <glyph glyph-name="eight" unicode="8" horiz-adv-x="438" 
d="M295 720q33 0 57 -11.5t39 -30.5t22.5 -44.5t7.5 -52.5q0 -33 -8.5 -65t-25 -58.5t-40.5 -47t-56 -30.5v-2q45 -13 66.5 -52.5t21.5 -90.5q0 -50 -13.5 -95t-38.5 -79t-60.5 -53.5t-80.5 -19.5q-35 0 -61.5 11.5t-44.5 32.5t-27 49.5t-9 62.5q0 39 9.5 77t29 70t48 55
t66.5 33v2q-38 17 -54 53.5t-16 78.5q0 36 11 73t32.5 67t52.5 48.5t72 18.5zM244 371q-39 0 -71.5 -18.5t-56.5 -49.5t-37 -71.5t-13 -84.5q0 -29 7.5 -54.5t22.5 -44.5t38 -30t53 -11q39 0 70.5 19t53.5 50t34 70.5t12 80.5q0 64 -29.5 104t-83.5 40zM247 388q34 0 62 17
t48 44t31 61.5t11 69.5q0 24 -6.5 46t-19.5 38.5t-32.5 26.5t-45.5 10q-34 0 -61 -17t-46 -43.5t-29 -60t-10 -66.5q0 -26 5.5 -49t17.5 -40t30.5 -27t44.5 -10z" />
    <glyph glyph-name="nine" unicode="9" horiz-adv-x="438" 
d="M290 720q36 0 62 -12.5t43 -34.5t25.5 -52t8.5 -64q0 -32 -5 -59.5t-15.5 -54.5t-25.5 -54.5t-34 -60.5l-196 -328h-26l214 352l-2 1q-13 -17 -38 -33.5t-62 -16.5q-36 0 -62 12.5t-43 34.5t-25 50.5t-8 61.5q0 48 12.5 94.5t37 83t59.5 58.5t80 22zM291 701
q-38 0 -69 -20t-53 -53.5t-34 -76.5t-12 -89q0 -61 29.5 -100.5t87.5 -39.5q39 0 69.5 21t52 55t33 76t11.5 83q0 30 -7 56.5t-21.5 46t-36 30.5t-50.5 11z" />
    <glyph glyph-name="colon" unicode=":" horiz-adv-x="238" 
d="M77 0q-20 0 -20 22q0 11 7 21t19 10q11 0 15.5 -6.5t4.5 -15.5q0 -13 -7.5 -22t-18.5 -9zM151 430q-20 0 -20 22q0 11 7 21t19 10q11 0 15.5 -6.5t4.5 -15.5q0 -13 -7.5 -22t-18.5 -9z" />
    <glyph glyph-name="semicolon" unicode=";" horiz-adv-x="238" 
d="M7 -138h-17l96 228h24zM151 430q-20 0 -20 22q0 11 7 21t19 10q11 0 15.5 -6.5t4.5 -15.5q0 -13 -7.5 -22t-18.5 -9z" />
    <glyph glyph-name="less" unicode="&#x3c;" horiz-adv-x="666" 
d="M100 291v24l466 224v-20l-454 -216l454 -216v-20z" />
    <glyph glyph-name="equal" unicode="=" horiz-adv-x="666" 
d="M100 380v19h466v-19h-466zM100 209v19h466v-19h-466z" />
    <glyph glyph-name="greater" unicode="&#x3e;" horiz-adv-x="666" 
d="M100 87l454 216l-454 216v20l466 -224v-24l-466 -224v20z" />
    <glyph glyph-name="question" unicode="?" horiz-adv-x="337" 
d="M164 200h-22l9 53q5 33 22.5 69t55.5 72l33 31q32 30 55.5 67.5t23.5 95.5q0 21 -5.5 42t-17.5 37.5t-30.5 27t-45.5 10.5t-50 -11t-40.5 -29.5t-29.5 -43t-18 -51.5l-20 4q6 30 19.5 57.5t34 48.5t47 33.5t58.5 12.5q33 0 55.5 -12t37 -31t21 -43t6.5 -49
q0 -36 -8.5 -64t-22.5 -51t-32.5 -42t-38.5 -37q-23 -21 -38.5 -38.5t-26 -35t-16 -36.5t-9.5 -43zM133 -7q-20 0 -20 22q0 11 7 21t19 10q11 0 15.5 -6.5t4.5 -15.5q0 -13 -7.5 -22t-18.5 -9z" />
    <glyph glyph-name="at" unicode="@" horiz-adv-x="638" 
d="M395 553q41 0 59.5 -25t15.5 -67h4l30 74h18l-97 -237q-7 -16 -12.5 -36t-5.5 -38q0 -24 10.5 -34t30.5 -10q28 0 51.5 15.5t42.5 41.5t33.5 59t24 68t14.5 69.5t5 63.5q0 47 -12.5 86t-38 66.5t-63.5 43t-89 15.5q-79 0 -142 -41.5t-107 -107t-67.5 -146.5t-23.5 -160
q0 -55 14 -101.5t42.5 -80t70.5 -52.5t99 -19q37 0 70 9.5t61.5 26t52 37t41.5 43.5l13 -14q-42 -53 -101 -87.5t-137 -34.5q-61 0 -107.5 20t-77.5 56t-46.5 85t-15.5 108q0 88 26 174t74 153.5t114.5 109.5t147.5 42q55 0 97 -16.5t70 -46.5t42 -72t14 -92q0 -54 -14 -114
t-39.5 -110.5t-61.5 -83.5t-80 -33q-29 0 -43 15.5t-14 41.5q0 17 5 35h-1q-6 -14 -16.5 -30t-25 -29.5t-33 -23t-41.5 -9.5t-39 8t-25.5 21t-13.5 30t-4 35q0 44 16 96.5t43 97.5t63.5 75t78.5 30zM396 533q-24 0 -46.5 -13t-42.5 -35t-37 -50.5t-29 -59.5t-18.5 -62
t-6.5 -58q0 -32 15 -53.5t50 -21.5q24 0 46.5 16t42 42t35.5 58t27.5 63.5t17.5 59.5t6 45q0 29 -13.5 49t-46.5 20z" />
    <glyph glyph-name="A" unicode="A" horiz-adv-x="420" 
d="M333 202h-250l-93 -202h-24l324 708h38l37 -708h-22zM92 222h240l-24 471h-4z" />
    <glyph glyph-name="B" unicode="B" horiz-adv-x="452" 
d="M281 708q73 0 113.5 -33.5t40.5 -105.5q0 -83 -38 -132.5t-98 -63.5v-2q18 -3 37 -13.5t34 -28.5t25 -44t10 -61q0 -61 -18 -103.5t-47.5 -69.5t-67.5 -39t-78 -12h-147l123 708h111zM73 20h121q42 0 76.5 13.5t59.5 39t39 63.5t14 87q0 35 -10 61.5t-28 44t-42 26
t-52 8.5h-119zM251 383q34 0 63.5 12.5t51.5 36t34.5 58t12.5 78.5q0 63 -36.5 91.5t-99.5 28.5h-89l-52 -305h115z" />
    <glyph glyph-name="C" unicode="C" horiz-adv-x="459" 
d="M414 78q-29 -40 -70.5 -67t-97.5 -27q-48 0 -82 17.5t-55.5 50t-32 77.5t-10.5 99q0 56 9 114.5t26.5 113.5t43 103.5t58 85t72.5 58t86 21.5q49 0 81.5 -19.5t54.5 -57.5l-18 -12q-37 69 -118 69q-43 0 -80 -21t-67.5 -56.5t-54 -82.5t-39.5 -99.5t-24 -107.5t-8 -106
q0 -50 9 -91.5t28.5 -71.5t49 -47t71.5 -17q43 0 82 22t71 67l15 -15v0z" />
    <glyph glyph-name="D" unicode="D" horiz-adv-x="510" 
d="M277 708q53 0 92 -19.5t64.5 -55t38 -86t12.5 -111.5q0 -86 -20 -164.5t-59 -139t-95.5 -96.5t-129.5 -36h-133l123 708h107zM188 688l-115 -668h108q66 0 118.5 34t88.5 91t55 132t19 158q0 58 -11.5 104.5t-34.5 79.5t-58.5 51t-83.5 18h-86z" />
    <glyph glyph-name="E" unicode="E" horiz-adv-x="377" 
d="M47 0l123 708h245l-4 -20h-223l-54 -311h213l-3 -20h-213l-58 -337h240l-4 -20h-262z" />
    <glyph glyph-name="F" unicode="F" horiz-adv-x="360" 
d="M188 688l-54 -311h206l-3 -20h-206l-62 -357h-22l123 708h244l-4 -20h-222z" />
    <glyph glyph-name="G" unicode="G" horiz-adv-x="518" 
d="M319 344l3 20h141l-56 -324q-29 -26 -68 -40.5t-87 -14.5q-49 0 -84.5 17.5t-58 49t-33 76.5t-10.5 100t9 113.5t26.5 113.5t43 104t58 85.5t72.5 58t86 21.5q40 0 79.5 -21t58.5 -72l-20 -11q-17 45 -49.5 64.5t-68.5 19.5q-43 0 -80 -20.5t-67.5 -56t-54 -82.5
t-39.5 -99.5t-24 -107t-8 -105.5q0 -104 40.5 -166t123.5 -62q80 0 135 47l51 292h-119z" />
    <glyph glyph-name="H" unicode="H" horiz-adv-x="548" 
d="M397 0l62 357h-328l-62 -357h-22l123 708h22l-58 -332h328l58 332h22l-123 -708h-22z" />
    <glyph glyph-name="I" unicode="I" horiz-adv-x="198" 
d="M47 0l123 708h22l-123 -708h-22z" />
    <glyph glyph-name="J" unicode="J" horiz-adv-x="338" 
d="M245 193q-8 -48 -18 -87t-26 -66t-41 -42t-63 -15q-50 0 -79 28.5t-38 79.5l21 7q8 -45 33 -70t62 -25q33 0 54 13.5t35 39t23 63t17 84.5l88 505h22l-90 -515v0z" />
    <glyph glyph-name="K" unicode="K" horiz-adv-x="434" 
d="M137 383l320 325h30l-326 -328l218 -380h-26l-217 381h-1l-66 -381h-22l123 708h22l-56 -325h1z" />
    <glyph glyph-name="L" unicode="L" horiz-adv-x="318" 
d="M47 0l123 708h22l-119 -687h207l-4 -21h-229z" />
    <glyph glyph-name="M" unicode="M" horiz-adv-x="678" 
d="M527 0l119 684h-2l-333 -684h-27l-94 684h-2l-119 -684h-22l123 708h40l92 -680l331 680h39l-123 -708h-22z" />
    <glyph glyph-name="N" unicode="N" horiz-adv-x="533" 
d="M369 0l-180 682h-2l-118 -682h-22l123 708h36l179 -681h2l118 681h22l-123 -708h-35z" />
    <glyph glyph-name="O" unicode="O" horiz-adv-x="542" 
d="M349 724q43 0 75 -18t53 -50t31 -77.5t10 -100.5q0 -56 -9 -114.5t-25.5 -113.5t-41 -103.5t-56 -84.5t-69.5 -57t-82 -21q-43 0 -75 17.5t-53 49.5t-31 77t-10 100q0 56 8.5 114.5t25 114t40.5 104t55.5 85t70 57.5t83.5 21zM349 704q-63 0 -111.5 -46t-82 -116.5
t-50.5 -154t-17 -159.5q0 -49 9 -90t27.5 -71t46 -46.5t64.5 -16.5q41 0 76.5 21t64.5 56.5t51 82.5t37.5 99.5t23.5 107t8 104.5t-9 92t-27.5 72.5t-46 47.5t-64.5 17z" />
    <glyph glyph-name="P" unicode="P" horiz-adv-x="423" 
d="M293 708q64 0 106 -36t42 -110q0 -49 -15 -88.5t-41 -67.5t-62 -43.5t-78 -15.5h-116l-60 -347h-22l123 708h123zM133 368h113q36 0 68 13t55 37.5t36.5 60.5t13.5 82q0 63 -34 95t-94 32h-103z" />
    <glyph glyph-name="Q" unicode="Q" horiz-adv-x="541" 
d="M66 247q0 54 8.5 110t25 109t40.5 100t55.5 82t69.5 55.5t83 20.5q43 0 75 -17.5t53 -49t31 -75.5t10 -98q0 -42 -6.5 -89.5t-19.5 -95.5t-31.5 -93.5t-42.5 -82.5t-53 -64t-62 -37v-2h164l-3 -20h-234q-37 0 -67 17t-51.5 49t-33 78t-11.5 103zM495 481q0 49 -9 90
t-27.5 70.5t-46 46t-64.5 16.5q-42 0 -77.5 -20t-64.5 -54.5t-51 -79.5t-37 -95.5t-22.5 -103t-7.5 -100.5q0 -50 9.5 -92.5t27.5 -73.5t45.5 -48t63.5 -17q40 0 75 21t64 56.5t52 82t38.5 98t23.5 104t8 99.5z" />
    <glyph glyph-name="R" unicode="R" horiz-adv-x="438" 
d="M349 0l-101 357h-117l-62 -357h-22l123 708h128q27 0 53.5 -9t47 -27t33 -46t12.5 -67q0 -49 -15 -86.5t-39.5 -62.5t-56 -38t-63.5 -14l102 -358h-23zM253 377q39 0 70.5 13t53.5 36.5t34 57t12 74.5q0 65 -38 97.5t-98 32.5h-98l-55 -311h119z" />
    <glyph glyph-name="S" unicode="S" horiz-adv-x="418" 
d="M174 -16q-51 0 -91 22.5t-65 60.5l18 15q23 -37 60 -57.5t78 -20.5q33 0 62.5 13.5t51 38t34.5 58t13 74.5q0 30 -9.5 55t-25 45.5t-35 37t-38.5 28.5q-22 14 -42.5 30.5t-36.5 37t-25.5 45.5t-9.5 57q0 44 14.5 80.5t39.5 63t58 41.5t70 15q43 0 76.5 -15t54.5 -49
l-16 -13q-21 32 -50 44.5t-67 12.5q-28 0 -56 -11.5t-51 -34.5t-37.5 -56.5t-14.5 -76.5q0 -28 8.5 -50.5t22.5 -40.5t31.5 -32t35.5 -26q24 -16 46.5 -34t40 -40t28 -49.5t10.5 -61.5q0 -47 -14.5 -85t-39.5 -65t-58.5 -42t-70.5 -15z" />
    <glyph glyph-name="T" unicode="T" horiz-adv-x="304" 
d="M241 688l-121 -688h-22l121 688h-140l4 20h302l-4 -20h-140z" />
    <glyph glyph-name="U" unicode="U" horiz-adv-x="532" 
d="M451 259q-10 -58 -24.5 -108.5t-39.5 -87.5t-62.5 -58t-92.5 -21q-80 0 -117.5 47t-37.5 124q0 24 2.5 50t7.5 54l78 449h22l-76 -438q-5 -29 -8.5 -60t-3.5 -53q0 -32 7 -60t22.5 -48.5t40.5 -32.5t62 -12q53 0 88 23t57 60.5t34 85t21 97.5l76 438h22l-78 -449v0z" />
    <glyph glyph-name="V" unicode="V" horiz-adv-x="410" 
d="M180 0h-33l-54 708h22l51 -688h2l291 688h24z" />
    <glyph glyph-name="W" unicode="W" horiz-adv-x="692" 
d="M479 0h-37l-20 683h-1l-257 -683h-37l-23 708h22l22 -688h2l260 688h33l21 -688h2l264 688h22z" />
    <glyph glyph-name="X" unicode="X" horiz-adv-x="424" 
d="M335 0l-104 350l-228 -350h-26l244 372l-100 336h23l94 -317l205 317h25l-220 -338l112 -370h-25z" />
    <glyph glyph-name="Y" unicode="Y" horiz-adv-x="379" 
d="M209 310l-55 -310h-21l55 310l-103 398h23l94 -372l229 372h24z" />
    <glyph glyph-name="Z" unicode="Z" horiz-adv-x="362" 
d="M-7 0l4 24l391 664h-270l4 20h290l-5 -27l-388 -661h277l-4 -20h-299z" />
    <glyph glyph-name="bracketleft" unicode="[" horiz-adv-x="228" 
d="M-17 -156l157 888h125l-3 -19h-103l-150 -850h103l-4 -19h-125z" />
    <glyph glyph-name="backslash" unicode="\" horiz-adv-x="298" 
d="M158 737l40 -764l-21 -5l-39 764z" />
    <glyph glyph-name="bracketright" unicode="]" horiz-adv-x="228" 
d="M-18 -137h103l150 850h-103l3 19h125l-157 -888h-125z" />
    <glyph glyph-name="asciicircum" unicode="^" horiz-adv-x="666" 
d="M321 708h24l224 -466h-20l-216 454l-216 -454h-20z" />
    <glyph glyph-name="underscore" unicode="_" horiz-adv-x="500" 
d="M0 -114v20h500v-20h-500z" />
    <glyph glyph-name="grave" unicode="`" horiz-adv-x="198" 
d="M122 708l67 -144h-16l-74 144h23z" />
    <glyph glyph-name="a" unicode="a" horiz-adv-x="376" 
d="M279 110q-5 -28 -8.5 -59t-4.5 -51h-19q2 23 6 56t9 59h-2q-9 -25 -21.5 -48t-30 -41t-39.5 -28.5t-49 -10.5q-48 0 -72 32t-24 77q0 53 18.5 89.5t49.5 58.5t70 31.5t81 9.5h44q7 35 9.5 55t2.5 37q0 53 -22.5 77.5t-64.5 24.5q-30 0 -56.5 -15.5t-46.5 -41.5l-14 14
q22 30 53 46.5t64 16.5q54 0 81.5 -31.5t27.5 -88.5q0 -14 -2 -29t-4 -29zM284 267h-35q-39 0 -75.5 -7.5t-65 -27t-45.5 -52.5t-17 -83q0 -41 20 -65.5t54 -24.5q35 0 61 19t44.5 49t30.5 66.5t18 71.5z" />
    <glyph glyph-name="b" unicode="b" horiz-adv-x="430" 
d="M63 0h-22l132 756h22l-69 -389h2q22 58 58 95t86 37q60 0 87.5 -47t27.5 -124q0 -59 -13 -120t-37.5 -110.5t-61 -81.5t-84.5 -32q-54 0 -80 35.5t-27 92.5h-2zM272 479q-41 0 -74 -31.5t-55.5 -80t-34.5 -106t-12 -108.5q0 -67 23 -108.5t71 -41.5q43 0 75.5 31.5t55 80
t34 106t11.5 108.5q0 33 -5.5 60.5t-17 47.5t-29.5 31t-42 11z" />
    <glyph glyph-name="c" unicode="c" horiz-adv-x="316" 
d="M276 46q-23 -30 -51 -46t-60 -16q-64 0 -93 47t-29 123q0 59 13 120t38.5 111t62.5 82t84 32q39 0 60 -15t35 -38l-17 -12q-13 23 -30.5 34.5t-47.5 11.5q-44 0 -76.5 -31.5t-55 -80t-33.5 -106t-11 -108.5q0 -32 5.5 -59.5t18 -47.5t31.5 -31.5t46 -11.5q29 0 54 15.5
t44 42.5z" />
    <glyph glyph-name="d" unicode="d" 
d="M302 116q-22 -58 -58 -95t-86 -37q-60 0 -87.5 47t-27.5 124q0 58 13 119.5t37.5 111t61 81.5t84.5 32q54 0 80 -35.5t27 -92.5h2l67 385h22l-132 -756h-22l21 116h-2zM158 4q41 0 74 31.5t55.5 80t34.5 106t12 108.5q0 67 -23 108.5t-71 41.5q-43 0 -75.5 -31.5t-55 -80
t-34 -106t-11.5 -108.5q0 -33 5.5 -60.5t17 -47.5t29.5 -31t42 -11z" />
    <glyph glyph-name="e" unicode="e" horiz-adv-x="386" 
d="M75 247q-5 -23 -7.5 -47t-2.5 -46q0 -70 28 -110t80 -40q39 0 68 24.5t49 60.5l16 -11q-21 -38 -54.5 -66t-79.5 -28q-64 0 -96.5 44.5t-32.5 125.5q0 51 12.5 111.5t37.5 112.5t62 86.5t87 34.5q33 0 54.5 -12.5t34.5 -34t18.5 -49.5t5.5 -58q0 -17 -3.5 -44.5
t-8.5 -53.5h-268zM326 266q4 23 6 42t2 36q0 29 -5 54t-16 43t-29 28.5t-43 10.5q-36 0 -64 -23.5t-48 -57t-32.5 -70.5t-17.5 -63h247z" />
    <glyph glyph-name="f" unicode="f" horiz-adv-x="208" 
d="M293 744q-8 2 -13.5 3.5t-13.5 1.5q-24 0 -40 -11.5t-26 -29.5t-16 -41.5t-10 -47.5l-23 -136h84l-4 -19h-82l-81 -464h-22l81 464h-78l4 19h76l23 135q12 72 37 111t78 39q17 0 32 -6z" />
    <glyph glyph-name="g" unicode="g" 
d="M367 483h22l-80 -458q-10 -58 -23 -106.5t-33.5 -84t-51.5 -55t-77 -19.5q-47 0 -80 23t-47 59l18 12q14 -32 42 -53t69 -21q39 0 65 18t44 50.5t30 77t22 98.5l17 92h-2q-8 -21 -20 -44t-29.5 -42.5t-41.5 -32.5t-54 -13q-60 0 -87.5 47t-27.5 124q0 58 13 119.5
t37.5 111t61 81.5t84.5 32q54 0 80 -35.5t27 -92.5h2zM157 4q41 0 74 31.5t55.5 80t34.5 106t12 108.5q0 67 -23 108.5t-71 41.5q-43 0 -75.5 -31.5t-55 -80t-34 -106t-11.5 -108.5q0 -33 5.5 -60.5t17 -47.5t29.5 -31t42 -11z" />
    <glyph glyph-name="h" unicode="h" horiz-adv-x="429" 
d="M63 0h-22l131 756h22l-67 -379h2q8 21 21 43t31 39.5t40 28.5t48 11q28 0 47.5 -10.5t30.5 -27t16 -37.5t5 -42q0 -31 -6 -62l-56 -320h-22l56 320q6 31 6 62q0 18 -4 35t-13 31t-24 22.5t-37 8.5q-32 0 -58.5 -18.5t-46.5 -47.5t-33 -64.5t-19 -68.5z" />
    <glyph glyph-name="i" unicode="i" horiz-adv-x="190" 
d="M42 0l84 483h22l-84 -483h-22zM160 633q-19 0 -19 22q0 11 6.5 21t18.5 10q10 0 14.5 -6.5t4.5 -15.5q0 -13 -7 -22t-18 -9z" />
    <glyph glyph-name="j" unicode="j" horiz-adv-x="192" 
d="M-57 -240q-20 0 -34 7l3 19q5 -2 13.5 -4t17.5 -2q22 0 36.5 10t23.5 26.5t14 38.5t9 45l102 583h22l-102 -583q-12 -69 -34 -104.5t-71 -35.5zM162 633q-19 0 -19 22q0 11 6.5 21t18.5 10q10 0 14.5 -6.5t4.5 -15.5q0 -13 -7 -22t-18 -9z" />
    <glyph glyph-name="k" unicode="k" horiz-adv-x="343" 
d="M110 260l217 223h30l-223 -227l157 -256h-27l-155 255h-2l-44 -255h-22l131 756h22l-86 -496h2z" />
    <glyph glyph-name="l" unicode="l" horiz-adv-x="190" 
d="M41 0l133 756h22l-133 -756h-22z" />
    <glyph glyph-name="m" unicode="m" horiz-adv-x="665" 
d="M362 402q0 -22 -3 -44h2q9 29 23 55t32.5 45t40.5 30t48 11q28 0 47.5 -10.5t30.5 -27t16 -37.5t5 -42q0 -31 -6 -62l-56 -320h-22l56 320q6 31 6 62q0 18 -4 35t-13 31t-24 22.5t-37 8.5q-32 0 -57.5 -18.5t-44.5 -47.5t-31.5 -64.5t-18.5 -68.5l-49 -280h-22l56 320
q3 17 5 35t2 35q0 15 -3.5 31t-12.5 28.5t-24 21t-37 8.5q-32 0 -58 -18.5t-45.5 -47.5t-32 -64.5t-17.5 -68.5l-49 -280h-22l63 361q2 12 4.5 28.5t5 34t4.5 33.5t3 26h21q-1 -9 -3 -22t-4 -28t-4 -29.5t-4 -26.5h2q8 21 20.5 43t30 39.5t39 28.5t47.5 11q25 0 43 -8.5
t29.5 -22t16.5 -31t5 -35.5z" />
    <glyph glyph-name="n" unicode="n" 
d="M131 377q8 21 21 43t31 39.5t40 28.5t48 11q28 0 47.5 -10.5t30.5 -27t16 -37.5t5 -42q0 -31 -6 -62l-56 -320h-22l56 320q6 31 6 62q0 18 -4 35t-13 31t-24 22.5t-37 8.5q-32 0 -58.5 -18.5t-46.5 -47.5t-33 -64.5t-18 -68.5l-49 -280h-22l63 361q2 12 4.5 28.5t5 34
t4.5 33.5t3 26h21q-1 -9 -3 -22t-4 -28t-4 -29.5t-4 -26.5h2v0z" />
    <glyph glyph-name="o" unicode="o" horiz-adv-x="404" 
d="M239 499q64 0 93 -49t29 -127q0 -59 -14 -119t-39.5 -109t-62.5 -80t-82 -31q-59 0 -89.5 46t-30.5 123q0 59 13.5 120.5t38.5 111.5t61.5 82t82.5 32zM237 480q-42 0 -74 -31.5t-54 -80t-33.5 -106t-11.5 -109.5q0 -66 24 -107.5t77 -41.5q42 0 74 30.5t54.5 78
t34 103.5t11.5 107q0 34 -5.5 63t-18 50t-32 32.5t-46.5 11.5z" />
    <glyph glyph-name="p" unicode="p" horiz-adv-x="430" 
d="M128 367q22 58 58 95t86 37q60 0 87.5 -47t27.5 -124q0 -59 -13 -120t-37.5 -110.5t-61 -81.5t-84.5 -32q-54 0 -80 35.5t-27 92.5h-2l-62 -352h-22l126 723h22l-20 -116h2zM272 479q-41 0 -74 -31.5t-55.5 -80t-34.5 -106t-12 -108.5q0 -67 23 -108.5t71 -41.5
q43 0 75.5 31.5t55 80t34 106t11.5 108.5q0 33 -5.5 60.5t-17 47.5t-29.5 31t-42 11z" />
    <glyph glyph-name="q" unicode="q" 
d="M367 483h22l-126 -723h-22l63 356h-2q-22 -58 -58 -95t-86 -37q-60 0 -87.5 47t-27.5 124q0 58 13 119.5t37.5 111t61 81.5t84.5 32q54 0 80 -35.5t27 -92.5h2zM158 4q41 0 74 31.5t55.5 80t34.5 106t12 108.5q0 67 -23 108.5t-71 41.5q-43 0 -75.5 -31.5t-55 -80
t-34 -106t-11.5 -108.5q0 -33 5.5 -60.5t17 -47.5t29.5 -31t42 -11z" />
    <glyph glyph-name="r" unicode="r" horiz-adv-x="234" 
d="M107 361q2 12 4.5 28.5t5 34t4.5 33.5t3 26h22q-1 -10 -3.5 -25.5t-5 -33t-5 -33.5t-4.5 -28h3q27 71 61.5 100.5t70.5 29.5q8 0 12 -1l-4 -20q-4 1 -7 1h-5q-28 0 -52.5 -20t-43.5 -52t-33 -71.5t-21 -79.5l-44 -250h-22l64 361v0z" />
    <glyph glyph-name="s" unicode="s" horiz-adv-x="308" 
d="M108 -16q-42 0 -70 19.5t-42 52.5l18 12q14 -30 36.5 -47t57.5 -17q25 0 46 10t36.5 28t24 42t8.5 52q0 22 -7.5 39t-19 30t-25.5 22.5t-26 16.5q-28 17 -49 41.5t-21 68.5q0 30 10 56.5t27.5 46t41.5 31t51 11.5q40 0 64.5 -17.5t37.5 -42.5l-17 -13q-14 25 -34 39
t-52 14q-24 0 -43.5 -10.5t-33.5 -27.5t-22 -40t-8 -48q0 -34 17 -55t46 -38q15 -9 30.5 -20.5t27.5 -26.5t19.5 -34t7.5 -42q0 -32 -9.5 -60t-27.5 -48.5t-43.5 -32.5t-56.5 -12z" />
    <glyph glyph-name="t" unicode="t" horiz-adv-x="216" 
d="M170 7q-24 -12 -47 -12q-32 0 -47.5 18t-15.5 49q0 11 1.5 22.5t3.5 23.5l63 356h-65l2 19h65l25 142h22l-25 -142h88l-2 -19h-88l-63 -356q-2 -11 -3.5 -24t-1.5 -21q0 -24 11.5 -36.5t31.5 -12.5q9 0 20 2.5t21 8.5l4 -18v0z" />
    <glyph glyph-name="u" unicode="u" 
d="M299 106q-8 -21 -21 -43t-31 -39.5t-40 -28.5t-48 -11q-29 0 -48 10.5t-30 27t-16 37.5t-5 42q0 30 6 62l56 320h22l-56 -320q-6 -32 -6 -62q0 -18 4 -35t13 -31t24 -22.5t37 -8.5q32 0 58.5 18.5t46.5 47.5t33 64.5t18 68.5l49 280h22l-63 -361q-2 -12 -4.5 -28.5
t-5 -33.5t-4.5 -33.5t-3 -26.5h-22q2 20 6.5 51t9.5 55h-2z" />
    <glyph glyph-name="v" unicode="v" horiz-adv-x="325" 
d="M136 0h-29l-42 483h23l36 -457h2l195 457h23z" />
    <glyph glyph-name="w" unicode="w" horiz-adv-x="514" 
d="M345 0h-32l-18 456h-1l-180 -456h-32l-8 483h21l7 -458h1l181 458h29l19 -460h1l170 460h22z" />
    <glyph glyph-name="x" unicode="x" horiz-adv-x="343" 
d="M169 238l-157 -238h-26l174 256l-76 227h23l68 -211l138 211h26l-155 -230l87 -253h-24z" />
    <glyph glyph-name="y" unicode="y" horiz-adv-x="325" 
d="M74 -146q-22 -50 -42.5 -72t-56.5 -22q-8 0 -17.5 1.5t-15.5 4.5l4 20q5 -2 14 -4t17 -2q32 0 49.5 26t34.5 68l47 115l-44 494h22l38 -460h2l195 460h23l-270 -629v0z" />
    <glyph glyph-name="z" unicode="z" horiz-adv-x="298" 
d="M-18 0l4 22l297 441h-204l3 20h227l-4 -23l-295 -440h225l-4 -20h-249z" />
    <glyph glyph-name="braceleft" unicode="{" horiz-adv-x="228" 
d="M8 297q12 0 23.5 5t21.5 17.5t18.5 35t14.5 57.5l34 195q11 66 34 95.5t66 29.5h44l-4 -19h-40q-37 0 -53 -27.5t-25 -78.5l-34 -196q-11 -63 -33 -90t-44 -32l-1 -2q16 -4 28 -20.5t12 -53.5q0 -11 -1.5 -22.5t-3.5 -25.5l-34 -196q-2 -14 -3.5 -26t-1.5 -23
q0 -27 10.5 -42t36.5 -15h40l-4 -19h-36q-34 0 -51.5 16.5t-17.5 58.5q0 11 1.5 23.5t3.5 26.5l34 195q3 17 4 30.5t1 24.5q0 36 -12 48t-30 12z" />
    <glyph glyph-name="bar" unicode="|" horiz-adv-x="222" 
d="M121 750v-1000h-22v1000h22z" />
    <glyph glyph-name="braceright" unicode="}" horiz-adv-x="228" 
d="M236 279q-12 0 -23.5 -5t-21.5 -17.5t-18.5 -35t-14.5 -57.5l-34 -195q-11 -66 -34 -95.5t-66 -29.5h-44l4 19h40q37 0 53 27.5t25 78.5l34 196q11 63 33 90t44 32l1 2q-16 4 -28 20.5t-12 53.5q0 11 1.5 22.5t3.5 25.5l34 196q2 14 3.5 26t1.5 23q0 27 -10.5 42
t-36.5 15h-40l4 19h36q34 0 51.5 -16.5t17.5 -58.5q0 -11 -1.5 -23.5t-3.5 -26.5l-34 -195q-3 -17 -4 -30.5t-1 -24.5q0 -36 12 -48t30 -12z" />
    <glyph glyph-name="asciitilde" unicode="~" horiz-adv-x="666" 
d="M93 264q32 55 64.5 74t67.5 19q28 0 50.5 -8t49.5 -27q44 -31 71 -40.5t48 -9.5q40 0 67.5 25.5t48.5 59.5l15 -16q-30 -47 -63.5 -68.5t-67.5 -21.5t-55 9t-46 26q-22 15 -38 24.5t-28.5 15t-24 8t-25.5 2.5q-41 0 -68 -23t-49 -63l-17 14v0z" />
    <glyph glyph-name="uni00A0" unicode="&#xa0;" horiz-adv-x="180" 
 />
    <glyph glyph-name="exclamdown" unicode="&#xa1;" horiz-adv-x="274" 
d="M136 301h22l-89 -513h-22zM173 503q20 0 20 -22q0 -11 -7 -21t-19 -10q-11 0 -15.5 6.5t-4.5 15.5q0 13 7.5 22t18.5 9z" />
    <glyph glyph-name="cent" unicode="&#xa2;" horiz-adv-x="438" 
d="M207 11q35 1 60 16t45 39l12 -15q-23 -28 -53 -43.5t-68 -16.5l-11 -63h-22l11 63q-61 5 -91 50.5t-30 119.5q0 54 14 113t41 108t66 81t88 32l12 68h22l-12 -68q40 -1 62 -15t35 -34l-18 -16q-8 17 -28.5 30.5t-54.5 14.5zM265 475q-47 -2 -81 -33.5t-57 -78t-34 -101
t-11 -102.5q0 -62 23 -103t80 -46z" />
    <glyph glyph-name="sterling" unicode="&#xa3;" horiz-adv-x="438" 
d="M325 379l-3 -19h-146l-59 -340h216l-4 -20h-341l4 20h103l59 340h-93l3 19h93l24 136q7 40 18 78t30.5 67.5t49.5 47.5t75 18q35 0 59 -10.5t38 -23.5l-13 -18q-12 12 -33 22t-52 10q-40 0 -66.5 -17t-43 -44t-26 -62t-15.5 -71l-23 -133h146z" />
    <glyph glyph-name="currency" unicode="&#xa4;" horiz-adv-x="438" 
d="M330 124q-21 -26 -49 -40.5t-61 -14.5q-66 0 -110 56l-65 -88l-10 15l64 87q-19 29 -29.5 68t-10.5 87q0 45 10 82.5t28 66.5l-62 83l11 15l61 -84q43 59 113 59q34 0 62.5 -15t49.5 -43l61 83l11 -15l-61 -82q38 -59 38 -150q0 -48 -10.5 -87.5t-30.5 -69.5l64 -85
l-10 -15zM363 294q0 42 -9.5 79.5t-28 65.5t-45 44t-60.5 16t-60.5 -16t-44.5 -44t-27.5 -65.5t-9.5 -79.5q0 -43 9.5 -80.5t27.5 -66t44.5 -45t60.5 -16.5t60.5 16.5t45 45t28 66t9.5 80.5z" />
    <glyph glyph-name="yen" unicode="&#xa5;" horiz-adv-x="438" 
d="M76 344l3 19h139l-106 345h23l104 -351l222 351h25l-221 -345h136l-3 -19h-150l-23 -131h150l-4 -19h-150l-34 -194h-22l34 194h-150l4 19h150l23 131h-150z" />
    <glyph glyph-name="brokenbar" unicode="&#xa6;" horiz-adv-x="222" 
d="M103 344v331h17v-331h-17zM103 -175v331h17v-331h-17z" />
    <glyph glyph-name="section" unicode="&#xa7;" horiz-adv-x="458" 
d="M247 146q34 -19 57 -49.5t23 -69.5q0 -40 -15 -70t-39.5 -50.5t-56 -30.5t-64.5 -10q-44 0 -86 17.5t-65 44.5l17 17q22 -27 57.5 -43t75.5 -16q30 0 58 8.5t49 26t33.5 44t12.5 62.5q0 46 -33 75.5t-80 50.5q-35 16 -57.5 31t-35.5 31.5t-18 35t-5 40.5q0 34 13.5 62
t34.5 48t47.5 32t52.5 15q-17 10 -31.5 21t-24.5 24.5t-15.5 30.5t-5.5 40q0 40 14.5 71t39 51.5t56 31t66.5 10.5q42 0 76 -14.5t52 -44.5l-17 -15q-14 26 -45 40.5t-69 14.5q-27 0 -54 -9t-49 -27t-35.5 -45t-13.5 -64q0 -22 5.5 -38.5t19 -31t36.5 -28.5t57 -30
q57 -27 85 -61t28 -82q0 -35 -14 -61.5t-35.5 -44.5t-48.5 -28t-53 -13zM226 159q25 1 51.5 9t48.5 24.5t36 41.5t14 59q0 46 -28.5 76t-70.5 50l-35 17q-25 -2 -50.5 -12.5t-46.5 -28.5t-34.5 -44t-13.5 -60q0 -26 8 -44.5t21.5 -31.5t30.5 -22.5t35 -17.5z" />
    <glyph glyph-name="dieresis" unicode="&#xa8;" horiz-adv-x="198" 
d="M229 634q-9 0 -14 6t-5 15q0 11 6.5 20.5t17.5 9.5q10 0 14.5 -6.5t4.5 -14.5q0 -13 -7 -21.5t-17 -8.5zM110 634q-9 0 -13.5 6t-4.5 15q0 11 6 20.5t18 9.5q9 0 13.5 -6.5t4.5 -14.5q0 -13 -7 -21.5t-17 -8.5z" />
    <glyph glyph-name="copyright" unicode="&#xa9;" horiz-adv-x="640" 
d="M320 -20q-63 0 -115.5 26t-90 75t-58 118.5t-20.5 155.5t20.5 155.5t58 118t90 75t115.5 26.5t115 -26.5t89.5 -75t58.5 -118t21 -155.5t-21 -155.5t-58.5 -118.5t-89.5 -75t-115 -26zM320 712q-61 0 -109.5 -27t-82.5 -75t-52 -113.5t-18 -141.5t18 -141.5t52 -113.5
t82.5 -75t109.5 -27t109.5 27t82.5 75t52 113.5t18 141.5t-18 141.5t-52 113.5t-82.5 75t-109.5 27zM419 191q-33 -53 -95 -53q-33 0 -58 16t-42 45.5t-26 69.5t-9 88t8.5 88t26 69.5t43 45.5t58.5 16q32 0 55 -12.5t37 -35.5l-15 -14q-12 22 -32 31.5t-45 9.5
q-29 0 -50.5 -15t-35.5 -42t-21 -63t-7 -78q0 -41 7 -77t21 -62.5t35.5 -42t50.5 -15.5q54 0 80 47z" />
    <glyph glyph-name="ordfeminine" unicode="&#xaa;" horiz-adv-x="298" 
d="M270 476q-3 -17 -5.5 -36.5t-2.5 -32.5h-18q1 14 3.5 35t5.5 37h-1q-11 -31 -32.5 -56t-55.5 -25q-31 0 -46 20t-15 49q0 33 11.5 56t31 37t44.5 20t51 6h28q5 23 6 36.5t1 21.5q0 29 -14 44.5t-40 15.5q-20 0 -34.5 -9.5t-26.5 -26.5l-13 14q14 19 33.5 29t40.5 10
q34 0 54 -19.5t20 -55.5q0 -17 -4 -37zM265 569h-21q-23 0 -44.5 -4.5t-38 -16t-26.5 -31.5t-10 -50q0 -24 12 -37.5t33 -13.5q18 0 33 11t26 28.5t18.5 39t11.5 42.5z" />
    <glyph glyph-name="guillemotleft" unicode="&#xab;" horiz-adv-x="298" 
d="M272 437l14 -12l-121 -187l55 -187l-18 -7l-59 196zM173 437l14 -12l-121 -187l55 -187l-18 -7l-59 196z" />
    <glyph glyph-name="logicalnot" unicode="&#xac;" horiz-adv-x="666" 
d="M551 134v246h-457v19h479v-265h-22z" />
    <glyph glyph-name="uni00AD" unicode="&#xad;" horiz-adv-x="214" 
d="M42 244l4 20h130l-4 -20h-130z" />
    <glyph glyph-name="registered" unicode="&#xae;" horiz-adv-x="480" 
d="M280 274q-38 0 -69 15.5t-53.5 45t-35 71t-12.5 93.5t12.5 93.5t35 70.5t53.5 45t69 16t69 -16t53.5 -45t35 -70.5t12.5 -93.5t-12.5 -93.5t-35 -71t-53.5 -45t-69 -15.5zM280 706q-35 0 -62.5 -15.5t-47 -43.5t-30 -65.5t-10.5 -82.5t10.5 -82.5t30 -65.5t47 -43.5
t62.5 -15.5t62.5 15.5t47 43.5t30 65.5t10.5 82.5t-10.5 82.5t-30 65.5t-47 43.5t-62.5 15.5zM335 375l-60 114h-36v-114h-20v251h64q30 0 48.5 -16t18.5 -50q0 -32 -16 -48.5t-39 -19.5l64 -117h-24zM330 559q0 30 -16 39.5t-34 9.5h-41v-102h31q26 0 43 11t17 42z" />
    <glyph glyph-name="macron" unicode="&#xaf;" horiz-adv-x="198" 
d="M61 621l4 20h208l-4 -20h-208z" />
    <glyph glyph-name="degree" unicode="&#xb0;" horiz-adv-x="318" 
d="M191 424q-45 0 -66.5 32t-21.5 77q0 22 6.5 53.5t22.5 61t43 50t68 20.5q45 0 66.5 -33t20.5 -80q0 -28 -8 -60t-25.5 -59t-43.5 -44.5t-62 -17.5zM239 700q-20 0 -40.5 -11t-37 -32.5t-27 -52t-10.5 -69.5q0 -42 19 -67.5t51 -25.5q22 0 43 11.5t37 33t25.5 51.5t9.5 66
q-1 42 -19.5 69t-50.5 27z" />
    <glyph glyph-name="plusminus" unicode="&#xb1;" horiz-adv-x="666" 
d="M342 342v-192h-22v192h-226v20h225v196h22v-196h232v-20h-231zM98 48v20h471v-20h-471z" />
    <glyph glyph-name="twosuperior" unicode="&#xb2;" horiz-adv-x="298" 
d="M212 485q25 32 40.5 55t23.5 40t10.5 30t2.5 27q0 25 -13.5 44t-42.5 19t-47.5 -17.5t-30.5 -49.5l-20 6q19 48 44.5 64t54.5 16q37 0 56.5 -23.5t19.5 -56.5q0 -22 -4 -39.5t-14 -36t-27 -41t-42 -54.5l-125 -155h160l-4 -20h-181l6 25z" />
    <glyph glyph-name="threesuperior" unicode="&#xb3;" horiz-adv-x="298" 
d="M307 632q0 -29 -8 -50.5t-21.5 -36.5t-30 -23t-32.5 -11v-2q38 -5 53 -28.5t15 -56.5q0 -35 -10 -61t-27 -44t-38.5 -27t-45.5 -9q-37 0 -58 18t-31 51l20 7q10 -32 28 -44t41 -12q49 0 74.5 35t25.5 86q0 38 -20 58t-52 20h-8l2 20h6q22 0 40 8.5t30.5 23.5t19 35
t6.5 42q0 32 -18 50t-41 18q-22 0 -38.5 -10.5t-29.5 -29.5l-16 11q15 23 36.5 36t48.5 13q42 0 60.5 -26.5t18.5 -60.5z" />
    <glyph glyph-name="acute" unicode="&#xb4;" horiz-adv-x="198" 
d="M137 564h-19l119 144h26z" />
    <glyph glyph-name="mu" unicode="&#xb5;" horiz-adv-x="556" 
d="M163 460l-58 -276q-3 -14 -5 -29t-2 -30q0 -23 5.5 -44.5t18.5 -38.5t34.5 -27t54.5 -10q38 0 74.5 15.5t67 44.5t54 70.5t34.5 94.5l49 230h22l-73 -344q-2 -11 -5 -27t-6 -32.5t-6 -31.5t-4 -25h-24l25 121h-2q-35 -65 -92.5 -100t-117.5 -35q-57 0 -87 24t-39 62
l-64 -300h-22l146 688h22z" />
    <glyph glyph-name="paragraph" unicode="&#xb6;" horiz-adv-x="600" 
d="M467 -126v817h-155v-817h-22v467q-50 0 -89.5 14t-67 38.5t-42.5 57t-15 68.5q0 94 58 141.5t164 47.5h191v-834h-22z" />
    <glyph glyph-name="periodcentered" unicode="&#xb7;" horiz-adv-x="188" 
d="M95 231q-9 0 -15 7t-4 19q2 11 10.5 18t17.5 7t14.5 -7t3.5 -18q-2 -12 -10.5 -19t-16.5 -7z" />
    <glyph glyph-name="cedilla" unicode="&#xb8;" horiz-adv-x="198" 
d="M1 -86q14 5 26 6.5t25 1.5q24 0 45.5 -14t21.5 -43q0 -27 -11 -45t-28 -28t-36.5 -14t-36.5 -4t-39.5 5t-40.5 15l8 17q15 -10 35 -14.5t36 -4.5q15 0 31.5 3t30 11t22.5 21.5t9 35.5t-18 32t-38 10q-12 0 -32 -4t-33 -11l-7 8l78 102h20l-68 -86v0z" />
    <glyph glyph-name="onesuperior" unicode="&#xb9;" horiz-adv-x="298" 
d="M171 288l70 398l-81 -47l-9 17l93 52h23l-74 -420h-22z" />
    <glyph glyph-name="ordmasculine" unicode="&#xba;" horiz-adv-x="298" 
d="M217 721q41 0 59 -30.5t18 -80.5q0 -37 -8.5 -75t-25 -69t-39.5 -50.5t-52 -19.5q-37 0 -56 29.5t-19 77.5q0 37 8.5 76t24 70.5t38.5 51.5t52 20zM216 703q-24 0 -43 -20.5t-32 -51t-19.5 -65t-6.5 -62.5q0 -38 12.5 -64t44.5 -26q21 0 39.5 18.5t32 47t21.5 63t8 65.5
q0 42 -12.5 68.5t-44.5 26.5z" />
    <glyph glyph-name="guillemotright" unicode="&#xbb;" horiz-adv-x="298" 
d="M24 43l-14 12l121 187l-55 187l18 7l59 -196zM123 43l-14 12l121 187l-55 187l18 7l59 -196z" />
    <glyph glyph-name="onequarter" unicode="&#xbc;" horiz-adv-x="698" 
d="M386 107l4 22l199 296h33l-53 -300h67l-3 -18h-67l-19 -107h-20l19 107h-160zM549 125l49 277h-3l-184 -277h138zM177 -23l-19 7l397 752l19 -7zM171 288l70 398l-81 -47l-9 17l93 52h23l-74 -420h-22z" />
    <glyph glyph-name="onehalf" unicode="&#xbd;" horiz-adv-x="698" 
d="M177 -23l-19 7l397 752l19 -7zM565 192q25 32 40.5 55t23.5 40t10.5 30t2.5 27q0 25 -13.5 44t-42.5 19t-47.5 -17.5t-30.5 -49.5l-20 6q19 48 44.5 64t54.5 16q37 0 56.5 -23.5t19.5 -56.5q0 -22 -4 -39.5t-14 -36t-27 -41t-42 -54.5l-125 -155h160l-4 -20h-181l6 25z
M171 288l70 398l-81 -47l-9 17l93 52h23l-74 -420h-22z" />
    <glyph glyph-name="threequarters" unicode="&#xbe;" horiz-adv-x="698" 
d="M386 107l4 22l199 296h33l-53 -300h67l-3 -18h-67l-19 -107h-20l19 107h-160zM549 125l49 277h-3l-184 -277h138zM177 -23l-19 7l397 752l19 -7zM307 632q0 -29 -8 -50.5t-21.5 -36.5t-30 -23t-32.5 -11v-2q38 -5 53 -28.5t15 -56.5q0 -35 -10 -61t-27 -44t-38.5 -27
t-45.5 -9q-37 0 -58 18t-31 51l20 7q10 -32 28 -44t41 -12q49 0 74.5 35t25.5 86q0 38 -20 58t-52 20h-8l2 20h6q22 0 40 8.5t30.5 23.5t19 35t6.5 42q0 32 -18 50t-41 18q-22 0 -38.5 -10.5t-29.5 -29.5l-16 11q15 23 36.5 36t48.5 13q42 0 60.5 -26.5t18.5 -60.5z" />
    <glyph glyph-name="questiondown" unicode="&#xbf;" horiz-adv-x="337" 
d="M178 296h22l-9 -53q-5 -33 -22.5 -69t-55.5 -72l-33 -31q-32 -30 -55.5 -67.5t-23.5 -95.5q0 -21 5.5 -42t17.5 -37.5t30.5 -27t45.5 -10.5t50 11t40.5 29.5t29.5 43t18 51.5l20 -4q-6 -30 -19.5 -57.5t-34 -48.5t-47.5 -33.5t-58 -12.5q-33 0 -55.5 12t-37 31t-21 43
t-6.5 49q0 36 8.5 64t22.5 51t32.5 42t38.5 37q23 21 38.5 38.5t26 35t16 36.5t9.5 43zM209 503q20 0 20 -22q0 -11 -7 -21t-19 -10q-11 0 -15.5 6.5t-4.5 15.5q0 13 7.5 22t18.5 9z" />
    <glyph glyph-name="Agrave" unicode="&#xc0;" horiz-adv-x="420" 
d="M333 202h-250l-93 -202h-24l324 708h38l37 -708h-22zM92 222h240l-24 471h-4zM256 908l68 -144h-17l-75 144h24z" />
    <glyph glyph-name="Aacute" unicode="&#xc1;" horiz-adv-x="420" 
d="M333 202h-250l-93 -202h-24l324 708h38l37 -708h-22zM92 222h240l-24 471h-4zM321 764h-19l119 144h26z" />
    <glyph glyph-name="Acircumflex" unicode="&#xc2;" horiz-adv-x="420" 
d="M333 202h-250l-93 -202h-24l324 708h38l37 -708h-22zM92 222h240l-24 471h-4zM352 908l67 -144h-19l-62 132l-108 -132h-21l117 144h26z" />
    <glyph glyph-name="Atilde" unicode="&#xc3;" horiz-adv-x="420" 
d="M333 202h-250l-93 -202h-24l324 708h38l37 -708h-22zM92 222h240l-24 471h-4zM322 838q21 -17 29.5 -20.5t19.5 -3.5q16 0 25.5 11.5t17.5 36.5h15q-9 -36 -26.5 -51.5t-35.5 -15.5q-14 0 -25 5t-29 19q-20 17 -28.5 20.5t-19.5 3.5q-29 0 -44 -51h-15q9 36 26.5 53
t35.5 17q14 0 25.5 -5t28.5 -19z" />
    <glyph glyph-name="Adieresis" unicode="&#xc4;" horiz-adv-x="420" 
d="M333 202h-250l-93 -202h-24l324 708h38l37 -708h-22zM92 222h240l-24 471h-4zM384 833q-9 0 -14 6t-5 15q0 11 6.5 20.5t17.5 9.5q10 0 14.5 -6.5t4.5 -14.5q0 -13 -7 -21.5t-17 -8.5zM265 833q-9 0 -13.5 6t-4.5 15q0 11 6 20.5t18 9.5q9 0 13.5 -6.5t4.5 -14.5
q0 -13 -7 -21.5t-17 -8.5z" />
    <glyph glyph-name="Aring" unicode="&#xc5;" horiz-adv-x="420" 
d="M333 202h-250l-93 -202h-24l324 708h38l37 -708h-22zM92 222h240l-24 471h-4zM413 865q0 -48 -27 -79t-67 -31q-33 0 -53.5 19.5t-20.5 58.5q0 48 27 80t66 32t57 -24t18 -56zM393 863q0 26 -13.5 45.5t-42.5 19.5q-30 0 -51 -26.5t-21 -66.5q0 -32 15.5 -47.5
t39.5 -15.5q31 0 52 25.5t21 65.5z" />
    <glyph glyph-name="AE" unicode="&#xc6;" horiz-adv-x="564" 
d="M598 688h-206l-55 -311h197l-3 -20h-197l-59 -337h224l-4 -20h-246l35 197h-194l-109 -197h-25l392 708h254zM370 688h-10l-260 -471h187z" />
    <glyph glyph-name="Ccedilla" unicode="&#xc7;" horiz-adv-x="459" 
d="M198 -86q14 5 26 6.5t25 1.5q24 0 45.5 -14t21.5 -43q0 -27 -11 -45t-28 -28t-36.5 -14t-36.5 -4t-39.5 5t-40.5 15l8 17q15 -10 35 -14.5t36 -4.5q15 0 31.5 3t30 11t22.5 21.5t9 35.5t-18 32t-38 10q-12 0 -32 -4t-33 -11l-7 8l66 86q-45 2 -76.5 20.5t-52 50.5t-30 76
t-9.5 97q0 56 9 114.5t26.5 113.5t43 103.5t58 85t72.5 58t86 21.5q49 0 81.5 -19.5t54.5 -57.5l-18 -12q-37 69 -118 69q-43 0 -80 -21t-67.5 -56.5t-54 -82.5t-39.5 -99.5t-24 -107.5t-8 -106q0 -50 9 -91.5t28.5 -71.5t49 -47t71.5 -17q43 0 82 22t71 67l15 -15
q-28 -38 -67.5 -65t-93.5 -29l-55 -70v0z" />
    <glyph glyph-name="Egrave" unicode="&#xc8;" horiz-adv-x="377" 
d="M47 0l123 708h245l-4 -20h-223l-54 -311h213l-3 -20h-213l-58 -337h240l-4 -20h-262zM239 908l68 -144h-17l-75 144h24z" />
    <glyph glyph-name="Eacute" unicode="&#xc9;" horiz-adv-x="377" 
d="M47 0l123 708h245l-4 -20h-223l-54 -311h213l-3 -20h-213l-58 -337h240l-4 -20h-262zM291 764h-19l119 144h26z" />
    <glyph glyph-name="Ecircumflex" unicode="&#xca;" horiz-adv-x="377" 
d="M47 0l123 708h245l-4 -20h-223l-54 -311h213l-3 -20h-213l-58 -337h240l-4 -20h-262zM335 908l67 -144h-19l-62 132l-108 -132h-21l117 144h26z" />
    <glyph glyph-name="Edieresis" unicode="&#xcb;" horiz-adv-x="377" 
d="M47 0l123 708h245l-4 -20h-223l-54 -311h213l-3 -20h-213l-58 -337h240l-4 -20h-262zM368 833q-9 0 -14 6t-5 15q0 11 6.5 20.5t17.5 9.5q10 0 14.5 -6.5t4.5 -14.5q0 -13 -7 -21.5t-17 -8.5zM249 833q-9 0 -13.5 6t-4.5 15q0 11 6 20.5t18 9.5q9 0 13.5 -6.5t4.5 -14.5
q0 -13 -7 -21.5t-17 -8.5z" />
    <glyph glyph-name="Igrave" unicode="&#xcc;" horiz-adv-x="198" 
d="M47 0l123 708h22l-123 -708h-22zM129 908l68 -144h-17l-75 144h24z" />
    <glyph glyph-name="Iacute" unicode="&#xcd;" horiz-adv-x="198" 
d="M47 0l123 708h22l-123 -708h-22zM196 764h-19l119 144h26z" />
    <glyph glyph-name="Icircumflex" unicode="&#xce;" horiz-adv-x="198" 
d="M47 0l123 708h22l-123 -708h-22zM229 908l67 -144h-19l-62 132l-108 -132h-21l117 144h26z" />
    <glyph glyph-name="Idieresis" unicode="&#xcf;" horiz-adv-x="198" 
d="M47 0l123 708h22l-123 -708h-22zM254 833q-9 0 -14 6t-5 15q0 11 6.5 20.5t17.5 9.5q10 0 14.5 -6.5t4.5 -14.5q0 -13 -7 -21.5t-17 -8.5zM135 833q-9 0 -13.5 6t-4.5 15q0 11 6 20.5t18 9.5q9 0 13.5 -6.5t4.5 -14.5q0 -13 -7 -21.5t-17 -8.5z" />
    <glyph glyph-name="Eth" unicode="&#xd0;" horiz-adv-x="510" 
d="M40 358l4 20h69l57 330h107q53 0 92 -19.5t64.5 -55t38 -86t12.5 -111.5q0 -86 -20 -164.5t-59 -139t-95.5 -96.5t-129.5 -36h-133l62 358h-69zM279 378l-4 -20h-144l-58 -338h108q66 0 118.5 34t88.5 91t55 132t19 158q0 58 -11.5 104.5t-34.5 79.5t-58.5 51t-83.5 18
h-86l-53 -310h144z" />
    <glyph glyph-name="Ntilde" unicode="&#xd1;" horiz-adv-x="533" 
d="M369 0l-180 682h-2l-118 -682h-22l123 708h36l179 -681h2l118 681h22l-123 -708h-35zM377 838q21 -17 29.5 -20.5t19.5 -3.5q16 0 25.5 11.5t17.5 36.5h15q-9 -36 -26.5 -51.5t-35.5 -15.5q-14 0 -25 5t-29 19q-20 17 -28.5 20.5t-19.5 3.5q-29 0 -44 -51h-15
q9 36 26.5 53t35.5 17q14 0 25.5 -5t28.5 -19z" />
    <glyph glyph-name="Ograve" unicode="&#xd2;" horiz-adv-x="542" 
d="M349 724q43 0 75 -18t53 -50t31 -77.5t10 -100.5q0 -56 -9 -114.5t-25.5 -113.5t-41 -103.5t-56 -84.5t-69.5 -57t-82 -21q-43 0 -75 17.5t-53 49.5t-31 77t-10 100q0 56 8.5 114.5t25 114t40.5 104t55.5 85t70 57.5t83.5 21zM349 704q-63 0 -111.5 -46t-82 -116.5
t-50.5 -154t-17 -159.5q0 -49 9 -90t27.5 -71t46 -46.5t64.5 -16.5q41 0 76.5 21t64.5 56.5t51 82.5t37.5 99.5t23.5 107t8 104.5t-9 92t-27.5 72.5t-46 47.5t-64.5 17zM306 908l68 -144h-17l-75 144h24z" />
    <glyph glyph-name="Oacute" unicode="&#xd3;" horiz-adv-x="542" 
d="M349 724q43 0 75 -18t53 -50t31 -77.5t10 -100.5q0 -56 -9 -114.5t-25.5 -113.5t-41 -103.5t-56 -84.5t-69.5 -57t-82 -21q-43 0 -75 17.5t-53 49.5t-31 77t-10 100q0 56 8.5 114.5t25 114t40.5 104t55.5 85t70 57.5t83.5 21zM349 704q-63 0 -111.5 -46t-82 -116.5
t-50.5 -154t-17 -159.5q0 -49 9 -90t27.5 -71t46 -46.5t64.5 -16.5q41 0 76.5 21t64.5 56.5t51 82.5t37.5 99.5t23.5 107t8 104.5t-9 92t-27.5 72.5t-46 47.5t-64.5 17zM353 764h-19l119 144h26z" />
    <glyph glyph-name="Ocircumflex" unicode="&#xd4;" horiz-adv-x="542" 
d="M349 724q43 0 75 -18t53 -50t31 -77.5t10 -100.5q0 -56 -9 -114.5t-25.5 -113.5t-41 -103.5t-56 -84.5t-69.5 -57t-82 -21q-43 0 -75 17.5t-53 49.5t-31 77t-10 100q0 56 8.5 114.5t25 114t40.5 104t55.5 85t70 57.5t83.5 21zM349 704q-63 0 -111.5 -46t-82 -116.5
t-50.5 -154t-17 -159.5q0 -49 9 -90t27.5 -71t46 -46.5t64.5 -16.5q41 0 76.5 21t64.5 56.5t51 82.5t37.5 99.5t23.5 107t8 104.5t-9 92t-27.5 72.5t-46 47.5t-64.5 17zM410 908l67 -144h-19l-62 132l-108 -132h-21l117 144h26z" />
    <glyph glyph-name="Otilde" unicode="&#xd5;" horiz-adv-x="542" 
d="M349 724q43 0 75 -18t53 -50t31 -77.5t10 -100.5q0 -56 -9 -114.5t-25.5 -113.5t-41 -103.5t-56 -84.5t-69.5 -57t-82 -21q-43 0 -75 17.5t-53 49.5t-31 77t-10 100q0 56 8.5 114.5t25 114t40.5 104t55.5 85t70 57.5t83.5 21zM349 704q-63 0 -111.5 -46t-82 -116.5
t-50.5 -154t-17 -159.5q0 -49 9 -90t27.5 -71t46 -46.5t64.5 -16.5q41 0 76.5 21t64.5 56.5t51 82.5t37.5 99.5t23.5 107t8 104.5t-9 92t-27.5 72.5t-46 47.5t-64.5 17zM378 838q21 -17 29.5 -20.5t19.5 -3.5q16 0 25.5 11.5t17.5 36.5h15q-9 -36 -26.5 -51.5t-35.5 -15.5
q-14 0 -25 5t-29 19q-20 17 -28.5 20.5t-19.5 3.5q-29 0 -44 -51h-15q9 36 26.5 53t35.5 17q14 0 25.5 -5t28.5 -19z" />
    <glyph glyph-name="Odieresis" unicode="&#xd6;" horiz-adv-x="542" 
d="M349 724q43 0 75 -18t53 -50t31 -77.5t10 -100.5q0 -56 -9 -114.5t-25.5 -113.5t-41 -103.5t-56 -84.5t-69.5 -57t-82 -21q-43 0 -75 17.5t-53 49.5t-31 77t-10 100q0 56 8.5 114.5t25 114t40.5 104t55.5 85t70 57.5t83.5 21zM349 704q-63 0 -111.5 -46t-82 -116.5
t-50.5 -154t-17 -159.5q0 -49 9 -90t27.5 -71t46 -46.5t64.5 -16.5q41 0 76.5 21t64.5 56.5t51 82.5t37.5 99.5t23.5 107t8 104.5t-9 92t-27.5 72.5t-46 47.5t-64.5 17zM437 833q-9 0 -14 6t-5 15q0 11 6.5 20.5t17.5 9.5q10 0 14.5 -6.5t4.5 -14.5q0 -13 -7 -21.5t-17 -8.5
zM318 833q-9 0 -13.5 6t-4.5 15q0 11 6 20.5t18 9.5q9 0 13.5 -6.5t4.5 -14.5q0 -13 -7 -21.5t-17 -8.5z" />
    <glyph glyph-name="multiply" unicode="&#xd7;" horiz-adv-x="666" 
d="M527 128l-14 -13l-179 179l-179 -179l-14 13l180 180l-180 180l13 13l180 -180l180 180l13 -13l-180 -180z" />
    <glyph glyph-name="Oslash" unicode="&#xd8;" horiz-adv-x="542" 
d="M349 724q41 0 71 -15.5t51 -44.5l36 59l16 -10l-41 -66q36 -65 36 -169q0 -56 -9 -114.5t-25.5 -113.5t-41 -103.5t-56 -84.5t-69.5 -57t-82 -21t-75.5 17.5t-52.5 49.5l-45 -72l-16 10l51 80q-16 31 -23.5 71t-7.5 88q0 56 8.5 114.5t25 114t40.5 104t55.5 85t70 57.5
t83.5 21zM496 475q0 89 -29 149l-346 -551q18 -32 46.5 -50.5t67.5 -18.5q41 0 76.5 21t64.5 56.5t51 82.5t37.5 99.5t23.5 107t8 104.5zM349 704q-63 0 -111.5 -46t-82 -116.5t-50.5 -154t-17 -159.5q0 -40 5.5 -74t17.5 -62l346 549q-18 30 -45 46.5t-63 16.5z" />
    <glyph glyph-name="Ugrave" unicode="&#xd9;" horiz-adv-x="532" 
d="M451 259q-10 -58 -24.5 -108.5t-39.5 -87.5t-62.5 -58t-92.5 -21q-80 0 -117.5 47t-37.5 124q0 24 2.5 50t7.5 54l78 449h22l-76 -438q-5 -29 -8.5 -60t-3.5 -53q0 -32 7 -60t22.5 -48.5t40.5 -32.5t62 -12q53 0 88 23t57 60.5t34 85t21 97.5l76 438h22zM294 908l68 -144
h-17l-75 144h24z" />
    <glyph glyph-name="Uacute" unicode="&#xda;" horiz-adv-x="532" 
d="M451 259q-10 -58 -24.5 -108.5t-39.5 -87.5t-62.5 -58t-92.5 -21q-80 0 -117.5 47t-37.5 124q0 24 2.5 50t7.5 54l78 449h22l-76 -438q-5 -29 -8.5 -60t-3.5 -53q0 -32 7 -60t22.5 -48.5t40.5 -32.5t62 -12q53 0 88 23t57 60.5t34 85t21 97.5l76 438h22zM346 764h-19
l119 144h26z" />
    <glyph glyph-name="Ucircumflex" unicode="&#xdb;" horiz-adv-x="532" 
d="M451 259q-10 -58 -24.5 -108.5t-39.5 -87.5t-62.5 -58t-92.5 -21q-80 0 -117.5 47t-37.5 124q0 24 2.5 50t7.5 54l78 449h22l-76 -438q-5 -29 -8.5 -60t-3.5 -53q0 -32 7 -60t22.5 -48.5t40.5 -32.5t62 -12q53 0 88 23t57 60.5t34 85t21 97.5l76 438h22zM392 908l67 -144
h-19l-62 132l-108 -132h-21l117 144h26z" />
    <glyph glyph-name="Udieresis" unicode="&#xdc;" horiz-adv-x="532" 
d="M451 259q-10 -58 -24.5 -108.5t-39.5 -87.5t-62.5 -58t-92.5 -21q-80 0 -117.5 47t-37.5 124q0 24 2.5 50t7.5 54l78 449h22l-76 -438q-5 -29 -8.5 -60t-3.5 -53q0 -32 7 -60t22.5 -48.5t40.5 -32.5t62 -12q53 0 88 23t57 60.5t34 85t21 97.5l76 438h22zM424 833
q-9 0 -14 6t-5 15q0 11 6.5 20.5t17.5 9.5q10 0 14.5 -6.5t4.5 -14.5q0 -13 -7 -21.5t-17 -8.5zM305 833q-9 0 -13.5 6t-4.5 15q0 11 6 20.5t18 9.5q9 0 13.5 -6.5t4.5 -14.5q0 -13 -7 -21.5t-17 -8.5z" />
    <glyph glyph-name="Yacute" unicode="&#xdd;" horiz-adv-x="379" 
d="M209 310l-55 -310h-21l55 310l-103 398h23l94 -372l229 372h24zM269 764h-19l119 144h26z" />
    <glyph glyph-name="Thorn" unicode="&#xde;" horiz-adv-x="423" 
d="M192 708l-28 -160h101q64 0 106 -36t42 -110q0 -49 -15 -88.5t-41 -67.5t-62 -43.5t-78 -15.5h-116l-32 -187h-22l123 708h22zM105 208h113q36 0 68 13t55 37.5t36.5 60.5t13.5 82q0 63 -34 95t-94 32h-103z" />
    <glyph glyph-name="germandbls" unicode="&#xdf;" horiz-adv-x="416" 
d="M120 18q23 -4 40 -4q49 0 83.5 22.5t57 57.5t33 79t10.5 88q0 32 -7.5 60.5t-23.5 49.5t-39.5 33t-56.5 12h-14l3 21h14q37 0 68 15.5t53.5 41.5t35 61.5t12.5 75.5q0 21 -5 42t-16.5 37.5t-29.5 27t-44 10.5q-34 0 -58 -18t-40.5 -48t-27 -68.5t-17.5 -78.5l-93 -535
h-22l94 538q9 49 21 91.5t31 73t46 48t66 17.5q33 0 55 -11.5t36 -30t20 -43t6 -49.5q0 -41 -12 -77.5t-32.5 -64t-49 -45t-61.5 -18.5l-1 -2q51 -5 81 -50.5t30 -115.5q0 -47 -12 -94.5t-37 -86t-65 -62.5t-95 -24q-9 0 -20 0.5t-20 2.5z" />
    <glyph glyph-name="agrave" unicode="&#xe0;" horiz-adv-x="376" 
d="M279 110q-5 -28 -8.5 -59t-4.5 -51h-19q2 23 6 56t9 59h-2q-9 -25 -21.5 -48t-30 -41t-39.5 -28.5t-49 -10.5q-48 0 -72 32t-24 77q0 53 18.5 89.5t49.5 58.5t70 31.5t81 9.5h44q7 35 9.5 55t2.5 37q0 53 -22.5 77.5t-64.5 24.5q-30 0 -56.5 -15.5t-46.5 -41.5l-14 14
q22 30 53 46.5t64 16.5q54 0 81.5 -31.5t27.5 -88.5q0 -14 -2 -29t-4 -29zM284 267h-35q-39 0 -75.5 -7.5t-65 -27t-45.5 -52.5t-17 -83q0 -41 20 -65.5t54 -24.5q35 0 61 19t44.5 49t30.5 66.5t18 71.5zM174 708l67 -144h-16l-74 144h23z" />
    <glyph glyph-name="aacute" unicode="&#xe1;" horiz-adv-x="376" 
d="M279 110q-5 -28 -8.5 -59t-4.5 -51h-19q2 23 6 56t9 59h-2q-9 -25 -21.5 -48t-30 -41t-39.5 -28.5t-49 -10.5q-48 0 -72 32t-24 77q0 53 18.5 89.5t49.5 58.5t70 31.5t81 9.5h44q7 35 9.5 55t2.5 37q0 53 -22.5 77.5t-64.5 24.5q-30 0 -56.5 -15.5t-46.5 -41.5l-14 14
q22 30 53 46.5t64 16.5q54 0 81.5 -31.5t27.5 -88.5q0 -14 -2 -29t-4 -29zM284 267h-35q-39 0 -75.5 -7.5t-65 -27t-45.5 -52.5t-17 -83q0 -41 20 -65.5t54 -24.5q35 0 61 19t44.5 49t30.5 66.5t18 71.5zM219 564h-19l119 144h26z" />
    <glyph glyph-name="acircumflex" unicode="&#xe2;" horiz-adv-x="376" 
d="M279 110q-5 -28 -8.5 -59t-4.5 -51h-19q2 23 6 56t9 59h-2q-9 -25 -21.5 -48t-30 -41t-39.5 -28.5t-49 -10.5q-48 0 -72 32t-24 77q0 53 18.5 89.5t49.5 58.5t70 31.5t81 9.5h44q7 35 9.5 55t2.5 37q0 53 -22.5 77.5t-64.5 24.5q-30 0 -56.5 -15.5t-46.5 -41.5l-14 14
q22 30 53 46.5t64 16.5q54 0 81.5 -31.5t27.5 -88.5q0 -14 -2 -29t-4 -29zM284 267h-35q-39 0 -75.5 -7.5t-65 -27t-45.5 -52.5t-17 -83q0 -41 20 -65.5t54 -24.5q35 0 61 19t44.5 49t30.5 66.5t18 71.5zM280 708l66 -144h-19l-61 132l-109 -132h-21l118 144h26z" />
    <glyph glyph-name="atilde" unicode="&#xe3;" horiz-adv-x="376" 
d="M279 110q-5 -28 -8.5 -59t-4.5 -51h-19q2 23 6 56t9 59h-2q-9 -25 -21.5 -48t-30 -41t-39.5 -28.5t-49 -10.5q-48 0 -72 32t-24 77q0 53 18.5 89.5t49.5 58.5t70 31.5t81 9.5h44q7 35 9.5 55t2.5 37q0 53 -22.5 77.5t-64.5 24.5q-30 0 -56.5 -15.5t-46.5 -41.5l-14 14
q22 30 53 46.5t64 16.5q54 0 81.5 -31.5t27.5 -88.5q0 -14 -2 -29t-4 -29zM284 267h-35q-39 0 -75.5 -7.5t-65 -27t-45.5 -52.5t-17 -83q0 -41 20 -65.5t54 -24.5q35 0 61 19t44.5 49t30.5 66.5t18 71.5zM243 638q22 -17 30 -20.5t19 -3.5q16 0 26 11.5t18 36.5h15
q-10 -36 -27 -51.5t-35 -15.5q-14 0 -25 5t-29 19q-20 17 -29 20.5t-20 3.5q-16 0 -26 -13t-18 -38h-15q10 36 27.5 53t35.5 17q14 0 25 -5t28 -19z" />
    <glyph glyph-name="adieresis" unicode="&#xe4;" horiz-adv-x="376" 
d="M279 110q-5 -28 -8.5 -59t-4.5 -51h-19q2 23 6 56t9 59h-2q-9 -25 -21.5 -48t-30 -41t-39.5 -28.5t-49 -10.5q-48 0 -72 32t-24 77q0 53 18.5 89.5t49.5 58.5t70 31.5t81 9.5h44q7 35 9.5 55t2.5 37q0 53 -22.5 77.5t-64.5 24.5q-30 0 -56.5 -15.5t-46.5 -41.5l-14 14
q22 30 53 46.5t64 16.5q54 0 81.5 -31.5t27.5 -88.5q0 -14 -2 -29t-4 -29zM284 267h-35q-39 0 -75.5 -7.5t-65 -27t-45.5 -52.5t-17 -83q0 -41 20 -65.5t54 -24.5q35 0 61 19t44.5 49t30.5 66.5t18 71.5zM302 634q-9 0 -14 6t-5 15q0 11 6.5 20.5t17.5 9.5q10 0 14.5 -6.5
t4.5 -14.5q0 -13 -7 -21.5t-17 -8.5zM183 634q-9 0 -13.5 6t-4.5 15q0 11 6 20.5t18 9.5q9 0 13.5 -6.5t4.5 -14.5q0 -13 -7 -21.5t-17 -8.5z" />
    <glyph glyph-name="aring" unicode="&#xe5;" horiz-adv-x="376" 
d="M279 110q-5 -28 -8.5 -59t-4.5 -51h-19q2 23 6 56t9 59h-2q-9 -25 -21.5 -48t-30 -41t-39.5 -28.5t-49 -10.5q-48 0 -72 32t-24 77q0 53 18.5 89.5t49.5 58.5t70 31.5t81 9.5h44q7 35 9.5 55t2.5 37q0 53 -22.5 77.5t-64.5 24.5q-30 0 -56.5 -15.5t-46.5 -41.5l-14 14
q22 30 53 46.5t64 16.5q54 0 81.5 -31.5t27.5 -88.5q0 -14 -2 -29t-4 -29zM284 267h-35q-39 0 -75.5 -7.5t-65 -27t-45.5 -52.5t-17 -83q0 -41 20 -65.5t54 -24.5q35 0 61 19t44.5 49t30.5 66.5t18 71.5zM327 665q0 -48 -27 -79t-67 -31q-33 0 -53.5 19.5t-20.5 58.5
q0 48 27 80t66 32t57 -24t18 -56zM307 663q0 26 -13.5 45.5t-42.5 19.5q-30 0 -51 -26.5t-21 -66.5q0 -32 15.5 -47.5t39.5 -15.5q31 0 52 25.5t21 65.5z" />
    <glyph glyph-name="ae" unicode="&#xe6;" horiz-adv-x="609" 
d="M319 372q25 60 62 93.5t84 33.5q33 0 54.5 -12.5t34.5 -34t18.5 -49.5t5.5 -58q0 -17 -3.5 -44.5t-8.5 -53.5h-266q-5 -23 -7.5 -47t-2.5 -46q0 -70 27 -110t79 -40q39 0 68 24.5t49 60.5l16 -11q-21 -38 -54.5 -66t-79.5 -28q-32 0 -54.5 11.5t-37.5 32t-22.5 48.5
t-8.5 61q-20 -68 -58.5 -109.5t-93.5 -41.5q-48 0 -72 31t-24 76q0 51 18.5 84t48.5 52.5t69 27.5t81 8h43q9 51 12 75.5t3 36.5q0 53 -22.5 77.5t-64.5 24.5q-30 0 -56.5 -15.5t-46.5 -41.5l-14 14q22 30 53 46.5t64 16.5q57 0 82 -34t25 -93zM549 266q4 23 6 42t2 36
q0 29 -5 54t-16 43t-29 28.5t-43 10.5q-36 0 -63.5 -23.5t-47 -57t-32 -70.5t-17.5 -63h245zM281 247h-34q-39 0 -75 -6t-64 -23t-45 -46.5t-17 -77.5q0 -41 20 -64.5t54 -23.5q35 0 61 19t44.5 48.5t30 65.5t18.5 71z" />
    <glyph glyph-name="ccedilla" unicode="&#xe7;" horiz-adv-x="316" 
d="M115 -86q14 5 26 6.5t25 1.5q24 0 45.5 -14t21.5 -43q0 -27 -11 -45t-28 -28t-36.5 -14t-36.5 -4t-39.5 5t-40.5 15l8 17q15 -10 35 -14.5t36 -4.5q15 0 31.5 3t30 11t22.5 21.5t9 35.5t-18 32t-38 10q-12 0 -32 -4t-33 -11l-7 8l66 87q-57 5 -82.5 51t-25.5 118
q0 59 13 120t38.5 111t62.5 82t84 32q39 0 60 -15t35 -38l-17 -12q-13 23 -30.5 34.5t-47.5 11.5q-44 0 -76.5 -31.5t-55 -80t-33.5 -106t-11 -108.5q0 -32 5.5 -59.5t18 -47.5t31.5 -31.5t46 -11.5q29 0 54 15.5t44 42.5l12 -16q-44 -59 -106 -62l-55 -70v0z" />
    <glyph glyph-name="egrave" unicode="&#xe8;" horiz-adv-x="386" 
d="M75 247q-5 -23 -7.5 -47t-2.5 -46q0 -70 28 -110t80 -40q39 0 68 24.5t49 60.5l16 -11q-21 -38 -54.5 -66t-79.5 -28q-64 0 -96.5 44.5t-32.5 125.5q0 51 12.5 111.5t37.5 112.5t62 86.5t87 34.5q33 0 54.5 -12.5t34.5 -34t18.5 -49.5t5.5 -58q0 -17 -3.5 -44.5
t-8.5 -53.5h-268zM326 266q4 23 6 42t2 36q0 29 -5 54t-16 43t-29 28.5t-43 10.5q-36 0 -64 -23.5t-48 -57t-32.5 -70.5t-17.5 -63h247zM190 708l67 -144h-16l-74 144h23z" />
    <glyph glyph-name="eacute" unicode="&#xe9;" horiz-adv-x="386" 
d="M75 247q-5 -23 -7.5 -47t-2.5 -46q0 -70 28 -110t80 -40q39 0 68 24.5t49 60.5l16 -11q-21 -38 -54.5 -66t-79.5 -28q-64 0 -96.5 44.5t-32.5 125.5q0 51 12.5 111.5t37.5 112.5t62 86.5t87 34.5q33 0 54.5 -12.5t34.5 -34t18.5 -49.5t5.5 -58q0 -17 -3.5 -44.5
t-8.5 -53.5h-268zM326 266q4 23 6 42t2 36q0 29 -5 54t-16 43t-29 28.5t-43 10.5q-36 0 -64 -23.5t-48 -57t-32.5 -70.5t-17.5 -63h247zM245 564h-19l119 144h26z" />
    <glyph glyph-name="ecircumflex" unicode="&#xea;" horiz-adv-x="386" 
d="M75 247q-5 -23 -7.5 -47t-2.5 -46q0 -70 28 -110t80 -40q39 0 68 24.5t49 60.5l16 -11q-21 -38 -54.5 -66t-79.5 -28q-64 0 -96.5 44.5t-32.5 125.5q0 51 12.5 111.5t37.5 112.5t62 86.5t87 34.5q33 0 54.5 -12.5t34.5 -34t18.5 -49.5t5.5 -58q0 -17 -3.5 -44.5
t-8.5 -53.5h-268zM326 266q4 23 6 42t2 36q0 29 -5 54t-16 43t-29 28.5t-43 10.5q-36 0 -64 -23.5t-48 -57t-32.5 -70.5t-17.5 -63h247zM306 708l66 -144h-19l-61 132l-109 -132h-21l118 144h26z" />
    <glyph glyph-name="edieresis" unicode="&#xeb;" horiz-adv-x="386" 
d="M75 247q-5 -23 -7.5 -47t-2.5 -46q0 -70 28 -110t80 -40q39 0 68 24.5t49 60.5l16 -11q-21 -38 -54.5 -66t-79.5 -28q-64 0 -96.5 44.5t-32.5 125.5q0 51 12.5 111.5t37.5 112.5t62 86.5t87 34.5q33 0 54.5 -12.5t34.5 -34t18.5 -49.5t5.5 -58q0 -17 -3.5 -44.5
t-8.5 -53.5h-268zM326 266q4 23 6 42t2 36q0 29 -5 54t-16 43t-29 28.5t-43 10.5q-36 0 -64 -23.5t-48 -57t-32.5 -70.5t-17.5 -63h247zM330 634q-9 0 -14 6t-5 15q0 11 6.5 20.5t17.5 9.5q10 0 14.5 -6.5t4.5 -14.5q0 -13 -7 -21.5t-17 -8.5zM211 634q-9 0 -13.5 6t-4.5 15
q0 11 6 20.5t18 9.5q9 0 13.5 -6.5t4.5 -14.5q0 -13 -7 -21.5t-17 -8.5z" />
    <glyph glyph-name="igrave" unicode="&#xec;" horiz-adv-x="190" 
d="M41 0l85 483h22l-85 -483h-22zM89 708l67 -144h-16l-74 144h23z" />
    <glyph glyph-name="iacute" unicode="&#xed;" horiz-adv-x="190" 
d="M41 0l85 483h22l-85 -483h-22zM155 564h-19l119 144h26z" />
    <glyph glyph-name="icircumflex" unicode="&#xee;" horiz-adv-x="190" 
d="M41 0l85 483h22l-85 -483h-22zM191 708l66 -144h-19l-61 132l-109 -132h-21l118 144h26z" />
    <glyph glyph-name="idieresis" unicode="&#xef;" horiz-adv-x="190" 
d="M41 0l85 483h22l-85 -483h-22zM215 634q-9 0 -14 6t-5 15q0 11 6.5 20.5t17.5 9.5q10 0 14.5 -6.5t4.5 -14.5q0 -13 -7 -21.5t-17 -8.5zM96 634q-9 0 -13.5 6t-4.5 15q0 11 6 20.5t18 9.5q9 0 13.5 -6.5t4.5 -14.5q0 -13 -7 -21.5t-17 -8.5z" />
    <glyph glyph-name="eth" unicode="&#xf0;" horiz-adv-x="404" 
d="M361 323q0 -59 -14 -119t-39.5 -109t-62.5 -80t-82 -31q-59 0 -89.5 46t-30.5 123q0 59 13 120.5t38 111.5t60.5 82t79.5 32q32 0 56 -11.5t40 -47.5l4 1q-2 21 -7 48t-14 55.5t-21 57t-26 54.5l-90 -62l-9 16l90 62q-31 54 -56 79l17 12q14 -17 29.5 -37.5t27.5 -42.5
l85 59l11 -15l-86 -59q35 -64 55.5 -154t20.5 -191zM338 321q2 71 -22.5 115t-78.5 44q-42 0 -74 -31.5t-54 -80t-33.5 -106t-11.5 -109.5q0 -66 24 -107.5t77 -41.5q42 0 74 30.5t54.5 77.5t33.5 102.5t11 106.5z" />
    <glyph glyph-name="ntilde" unicode="&#xf1;" 
d="M131 377q8 21 21 43t31 39.5t40 28.5t48 11q28 0 47.5 -10.5t30.5 -27t16 -37.5t5 -42q0 -31 -6 -62l-56 -320h-22l56 320q6 31 6 62q0 18 -4 35t-13 31t-24 22.5t-37 8.5q-32 0 -58.5 -18.5t-46.5 -47.5t-33 -64.5t-18 -68.5l-49 -280h-22l63 361q2 12 4.5 28.5t5 34
t4.5 33.5t3 26h21q-1 -9 -3 -22t-4 -28t-4 -29.5t-4 -26.5h2zM284 638q22 -17 30 -20.5t19 -3.5q16 0 26 11.5t18 36.5h15q-10 -36 -27 -51.5t-35 -15.5q-14 0 -25 5t-29 19q-20 17 -29 20.5t-20 3.5q-16 0 -26 -13t-18 -38h-15q10 36 27.5 53t35.5 17q14 0 25 -5t28 -19z
" />
    <glyph glyph-name="ograve" unicode="&#xf2;" horiz-adv-x="404" 
d="M239 499q64 0 93 -49t29 -127q0 -59 -14 -119t-39.5 -109t-62.5 -80t-82 -31q-59 0 -89.5 46t-30.5 123q0 59 13.5 120.5t38.5 111.5t61.5 82t82.5 32zM237 480q-42 0 -74 -31.5t-54 -80t-33.5 -106t-11.5 -109.5q0 -66 24 -107.5t77 -41.5q42 0 74 30.5t54.5 78
t34 103.5t11.5 107q0 34 -5.5 63t-18 50t-32 32.5t-46.5 11.5zM196 708l67 -144h-16l-74 144h23z" />
    <glyph glyph-name="oacute" unicode="&#xf3;" horiz-adv-x="404" 
d="M239 499q64 0 93 -49t29 -127q0 -59 -14 -119t-39.5 -109t-62.5 -80t-82 -31q-59 0 -89.5 46t-30.5 123q0 59 13.5 120.5t38.5 111.5t61.5 82t82.5 32zM237 480q-42 0 -74 -31.5t-54 -80t-33.5 -106t-11.5 -109.5q0 -66 24 -107.5t77 -41.5q42 0 74 30.5t54.5 78
t34 103.5t11.5 107q0 34 -5.5 63t-18 50t-32 32.5t-46.5 11.5zM250 564h-19l119 144h26z" />
    <glyph glyph-name="ocircumflex" unicode="&#xf4;" horiz-adv-x="404" 
d="M239 499q64 0 93 -49t29 -127q0 -59 -14 -119t-39.5 -109t-62.5 -80t-82 -31q-59 0 -89.5 46t-30.5 123q0 59 13.5 120.5t38.5 111.5t61.5 82t82.5 32zM237 480q-42 0 -74 -31.5t-54 -80t-33.5 -106t-11.5 -109.5q0 -66 24 -107.5t77 -41.5q42 0 74 30.5t54.5 78
t34 103.5t11.5 107q0 34 -5.5 63t-18 50t-32 32.5t-46.5 11.5zM304 708l66 -144h-19l-61 132l-109 -132h-21l118 144h26z" />
    <glyph glyph-name="otilde" unicode="&#xf5;" horiz-adv-x="404" 
d="M239 499q64 0 93 -49t29 -127q0 -59 -14 -119t-39.5 -109t-62.5 -80t-82 -31q-59 0 -89.5 46t-30.5 123q0 59 13.5 120.5t38.5 111.5t61.5 82t82.5 32zM237 480q-42 0 -74 -31.5t-54 -80t-33.5 -106t-11.5 -109.5q0 -66 24 -107.5t77 -41.5q42 0 74 30.5t54.5 78
t34 103.5t11.5 107q0 34 -5.5 63t-18 50t-32 32.5t-46.5 11.5zM271 638q22 -17 30 -20.5t19 -3.5q16 0 26 11.5t18 36.5h15q-10 -36 -27 -51.5t-35 -15.5q-14 0 -25 5t-29 19q-20 17 -29 20.5t-20 3.5q-16 0 -26 -13t-18 -38h-15q10 36 27.5 53t35.5 17q14 0 25 -5t28 -19z
" />
    <glyph glyph-name="odieresis" unicode="&#xf6;" horiz-adv-x="404" 
d="M239 499q64 0 93 -49t29 -127q0 -59 -14 -119t-39.5 -109t-62.5 -80t-82 -31q-59 0 -89.5 46t-30.5 123q0 59 13.5 120.5t38.5 111.5t61.5 82t82.5 32zM237 480q-42 0 -74 -31.5t-54 -80t-33.5 -106t-11.5 -109.5q0 -66 24 -107.5t77 -41.5q42 0 74 30.5t54.5 78
t34 103.5t11.5 107q0 34 -5.5 63t-18 50t-32 32.5t-46.5 11.5zM330 634q-9 0 -14 6t-5 15q0 11 6.5 20.5t17.5 9.5q10 0 14.5 -6.5t4.5 -14.5q0 -13 -7 -21.5t-17 -8.5zM211 634q-9 0 -13.5 6t-4.5 15q0 11 6 20.5t18 9.5q9 0 13.5 -6.5t4.5 -14.5q0 -13 -7 -21.5t-17 -8.5z
" />
    <glyph glyph-name="divide" unicode="&#xf7;" horiz-adv-x="666" 
d="M369 470q0 -16 -11 -27t-25 -11t-24.5 11t-10.5 27t10.5 27t24.5 11t25 -11t11 -27zM94 293v20h479v-20h-479zM369 136q0 -16 -11 -27t-25 -11t-24.5 11t-10.5 27q0 17 10 27.5t25 10.5q14 0 25 -11t11 -27z" />
    <glyph glyph-name="oslash" unicode="&#xf8;" horiz-adv-x="404" 
d="M239 499q29 0 51 -11t37 -31l32 50l13 -9l-36 -55q25 -46 25 -120q0 -59 -14 -119t-39.5 -109t-62.5 -80t-82 -31q-60 0 -91 50l-32 -51l-14 10l36 57q-19 39 -19 103q0 59 13.5 120.5t38.5 111.5t61.5 82t82.5 32zM339 323q0 29 -4 53.5t-13 44.5l-238 -368
q25 -49 81 -49q42 0 74 30.5t54.5 78t34 103.5t11.5 107zM237 480q-42 0 -74 -31.5t-54 -80t-33.5 -106t-11.5 -109.5q0 -24 2.5 -45t9.5 -38l238 368q-13 20 -32 31t-45 11z" />
    <glyph glyph-name="ugrave" unicode="&#xf9;" 
d="M299 106q-8 -21 -21 -43t-31 -39.5t-40 -28.5t-48 -11q-29 0 -48 10.5t-30 27t-16 37.5t-5 42q0 30 6 62l56 320h22l-56 -320q-6 -32 -6 -62q0 -18 4 -35t13 -31t24 -22.5t37 -8.5q32 0 58.5 18.5t46.5 47.5t33 64.5t18 68.5l49 280h22l-63 -361q-2 -12 -4.5 -28.5
t-5 -33.5t-4.5 -33.5t-3 -26.5h-22q2 20 6.5 51t9.5 55h-2zM198 708l67 -144h-16l-74 144h23z" />
    <glyph glyph-name="uacute" unicode="&#xfa;" 
d="M299 106q-8 -21 -21 -43t-31 -39.5t-40 -28.5t-48 -11q-29 0 -48 10.5t-30 27t-16 37.5t-5 42q0 30 6 62l56 320h22l-56 -320q-6 -32 -6 -62q0 -18 4 -35t13 -31t24 -22.5t37 -8.5q32 0 58.5 18.5t46.5 47.5t33 64.5t18 68.5l49 280h22l-63 -361q-2 -12 -4.5 -28.5
t-5 -33.5t-4.5 -33.5t-3 -26.5h-22q2 20 6.5 51t9.5 55h-2zM259 563h-19l119 144h26z" />
    <glyph glyph-name="ucircumflex" unicode="&#xfb;" 
d="M299 106q-8 -21 -21 -43t-31 -39.5t-40 -28.5t-48 -11q-29 0 -48 10.5t-30 27t-16 37.5t-5 42q0 30 6 62l56 320h22l-56 -320q-6 -32 -6 -62q0 -18 4 -35t13 -31t24 -22.5t37 -8.5q32 0 58.5 18.5t46.5 47.5t33 64.5t18 68.5l49 280h22l-63 -361q-2 -12 -4.5 -28.5
t-5 -33.5t-4.5 -33.5t-3 -26.5h-22q2 20 6.5 51t9.5 55h-2zM313 708l66 -144h-19l-61 132l-109 -132h-21l118 144h26z" />
    <glyph glyph-name="udieresis" unicode="&#xfc;" 
d="M299 106q-8 -21 -21 -43t-31 -39.5t-40 -28.5t-48 -11q-29 0 -48 10.5t-30 27t-16 37.5t-5 42q0 30 6 62l56 320h22l-56 -320q-6 -32 -6 -62q0 -18 4 -35t13 -31t24 -22.5t37 -8.5q32 0 58.5 18.5t46.5 47.5t33 64.5t18 68.5l49 280h22l-63 -361q-2 -12 -4.5 -28.5
t-5 -33.5t-4.5 -33.5t-3 -26.5h-22q2 20 6.5 51t9.5 55h-2zM337 634q-9 0 -14 6t-5 15q0 11 6.5 20.5t17.5 9.5q10 0 14.5 -6.5t4.5 -14.5q0 -13 -7 -21.5t-17 -8.5zM218 634q-9 0 -13.5 6t-4.5 15q0 11 6 20.5t18 9.5q9 0 13.5 -6.5t4.5 -14.5q0 -13 -7 -21.5t-17 -8.5z
" />
    <glyph glyph-name="yacute" unicode="&#xfd;" horiz-adv-x="325" 
d="M74 -146q-22 -50 -42.5 -72t-56.5 -22q-8 0 -17.5 1.5t-15.5 4.5l4 20q5 -2 14 -4t17 -2q32 0 49.5 26t34.5 68l47 115l-44 494h22l38 -460h2l195 460h23zM209 564h-19l119 144h26z" />
    <glyph glyph-name="thorn" unicode="&#xfe;" horiz-adv-x="430" 
d="M21 -240h-22l174 996h22l-69 -389h2q22 58 58 95t86 37q60 0 87.5 -47t27.5 -124q0 -59 -13 -120t-37.5 -110.5t-61 -81.5t-84.5 -32q-54 0 -80 35.5t-27 92.5h-2zM272 479q-41 0 -74 -31.5t-55.5 -80t-34.5 -106t-12 -108.5q0 -67 23 -108.5t71 -41.5q43 0 75.5 31.5
t55 80t34 106t11.5 108.5q0 33 -5.5 60.5t-17 47.5t-29.5 31t-42 11z" />
    <glyph glyph-name="ydieresis" unicode="&#xff;" horiz-adv-x="325" 
d="M74 -146q-22 -50 -42.5 -72t-56.5 -22q-8 0 -17.5 1.5t-15.5 4.5l4 20q5 -2 14 -4t17 -2q32 0 49.5 26t34.5 68l47 115l-44 494h22l38 -460h2l195 460h23zM293 634q-9 0 -14 6t-5 15q0 11 6.5 20.5t17.5 9.5q10 0 14.5 -6.5t4.5 -14.5q0 -13 -7 -21.5t-17 -8.5zM174 634
q-9 0 -13.5 6t-4.5 15q0 11 6 20.5t18 9.5q9 0 13.5 -6.5t4.5 -14.5q0 -13 -7 -21.5t-17 -8.5z" />
    <glyph glyph-name="Amacron" unicode="&#x100;" horiz-adv-x="420" 
d="M333 202h-250l-93 -202h-24l324 708h38l37 -708h-22zM92 222h240l-24 471h-4zM221 821l3 20h208l-3 -20h-208z" />
    <glyph glyph-name="amacron" unicode="&#x101;" horiz-adv-x="376" 
d="M279 110q-5 -28 -8.5 -59t-4.5 -51h-19q2 23 6 56t9 59h-2q-9 -25 -21.5 -48t-30 -41t-39.5 -28.5t-49 -10.5q-48 0 -72 32t-24 77q0 53 18.5 89.5t49.5 58.5t70 31.5t81 9.5h44q7 35 9.5 55t2.5 37q0 53 -22.5 77.5t-64.5 24.5q-30 0 -56.5 -15.5t-46.5 -41.5l-14 14
q22 30 53 46.5t64 16.5q54 0 81.5 -31.5t27.5 -88.5q0 -14 -2 -29t-4 -29zM284 267h-35q-39 0 -75.5 -7.5t-65 -27t-45.5 -52.5t-17 -83q0 -41 20 -65.5t54 -24.5q35 0 61 19t44.5 49t30.5 66.5t18 71.5zM137 621l4 20h208l-4 -20h-208z" />
    <glyph glyph-name="Abreve" unicode="&#x102;" horiz-adv-x="420" 
d="M333 202h-250l-93 -202h-24l324 708h38l37 -708h-22zM92 222h240l-24 471h-4zM446 898q-17 -61 -51 -93.5t-79 -32.5q-44 0 -70 32.5t-26 93.5h18q0 -52 21 -79t56 -27q40 0 69 25t44 81h18z" />
    <glyph glyph-name="abreve" unicode="&#x103;" horiz-adv-x="376" 
d="M279 110q-5 -28 -8.5 -59t-4.5 -51h-19q2 23 6 56t9 59h-2q-9 -25 -21.5 -48t-30 -41t-39.5 -28.5t-49 -10.5q-48 0 -72 32t-24 77q0 53 18.5 89.5t49.5 58.5t70 31.5t81 9.5h44q7 35 9.5 55t2.5 37q0 53 -22.5 77.5t-64.5 24.5q-30 0 -56.5 -15.5t-46.5 -41.5l-14 14
q22 30 53 46.5t64 16.5q54 0 81.5 -31.5t27.5 -88.5q0 -14 -2 -29t-4 -29zM284 267h-35q-39 0 -75.5 -7.5t-65 -27t-45.5 -52.5t-17 -83q0 -41 20 -65.5t54 -24.5q35 0 61 19t44.5 49t30.5 66.5t18 71.5zM363 698q-17 -61 -51 -93.5t-79 -32.5q-44 0 -70 32.5t-26 93.5h18
q0 -52 21 -79t56 -27q40 0 69 25t44 81h18z" />
    <glyph glyph-name="Aogonek" unicode="&#x104;" horiz-adv-x="420" 
d="M333 202h-250l-93 -202h-24l324 708h38l37 -708h-22zM92 222h240l-24 471h-4zM376 -192q-16 -14 -36.5 -22.5t-41.5 -8.5q-29 0 -47 15.5t-18 48.5q0 23 9.5 43.5t25.5 40t35.5 38t39.5 37.5h22q-26 -26 -46 -45t-34.5 -36.5t-22 -35t-7.5 -38.5q0 -50 48 -50
q19 0 36.5 8t30.5 21z" />
    <glyph glyph-name="aogonek" unicode="&#x105;" horiz-adv-x="376" 
d="M278 -192q-16 -14 -36.5 -22.5t-41.5 -8.5q-29 0 -47 15.5t-18 48.5q0 23 9.5 43.5t25.5 40t35.5 38t39.5 37.5h2q2 23 6 56t9 59h-2q-9 -25 -21.5 -48t-30 -41t-39.5 -28.5t-49 -10.5q-48 0 -72 32t-24 77q0 53 18.5 89.5t49.5 58.5t70 31.5t81 9.5h44q8 36 10 58t2 34
q0 53 -22.5 77.5t-64.5 24.5q-30 0 -56.5 -15.5t-46.5 -41.5l-14 14q22 30 53 46.5t64 16.5q54 0 81.5 -31.5t27.5 -88.5q0 -14 -1.5 -27.5t-4.5 -30.5l-36 -211q-5 -28 -8.5 -59t-4.5 -51h1q-26 -26 -46 -45t-34.5 -36.5t-22 -35t-7.5 -38.5q0 -50 48 -50q19 0 36.5 8
t30.5 21zM284 267h-35q-39 0 -75.5 -7.5t-65 -27t-45.5 -52.5t-17 -83q0 -41 20 -65.5t54 -24.5q35 0 61 19t44.5 49t30.5 66.5t18 71.5z" />
    <glyph glyph-name="Cacute" unicode="&#x106;" horiz-adv-x="459" 
d="M414 78q-29 -40 -70.5 -67t-97.5 -27q-48 0 -82 17.5t-55.5 50t-32 77.5t-10.5 99q0 56 9 114.5t26.5 113.5t43 103.5t58 85t72.5 58t86 21.5q49 0 81.5 -19.5t54.5 -57.5l-18 -12q-37 69 -118 69q-43 0 -80 -21t-67.5 -56.5t-54 -82.5t-39.5 -99.5t-24 -107.5t-8 -106
q0 -50 9 -91.5t28.5 -71.5t49 -47t71.5 -17q43 0 82 22t71 67zM340 764h-19l119 144h26z" />
    <glyph glyph-name="cacute" unicode="&#x107;" horiz-adv-x="316" 
d="M276 46q-23 -30 -51 -46t-60 -16q-64 0 -93 47t-29 123q0 59 13 120t38.5 111t62.5 82t84 32q39 0 60 -15t35 -38l-17 -12q-13 23 -30.5 34.5t-47.5 11.5q-44 0 -76.5 -31.5t-55 -80t-33.5 -106t-11 -108.5q0 -32 5.5 -59.5t18 -47.5t31.5 -31.5t46 -11.5q29 0 54 15.5
t44 42.5zM233 564h-19l119 144h26z" />
    <glyph glyph-name="Ccircumflex" unicode="&#x108;" horiz-adv-x="459" 
d="M414 78q-29 -40 -70.5 -67t-97.5 -27q-48 0 -82 17.5t-55.5 50t-32 77.5t-10.5 99q0 56 9 114.5t26.5 113.5t43 103.5t58 85t72.5 58t86 21.5q49 0 81.5 -19.5t54.5 -57.5l-18 -12q-37 69 -118 69q-43 0 -80 -21t-67.5 -56.5t-54 -82.5t-39.5 -99.5t-24 -107.5t-8 -106
q0 -50 9 -91.5t28.5 -71.5t49 -47t71.5 -17q43 0 82 22t71 67zM416 908l67 -144h-19l-62 132l-108 -132h-21l117 144h26z" />
    <glyph glyph-name="ccircumflex" unicode="&#x109;" horiz-adv-x="316" 
d="M276 46q-23 -30 -51 -46t-60 -16q-64 0 -93 47t-29 123q0 59 13 120t38.5 111t62.5 82t84 32q39 0 60 -15t35 -38l-17 -12q-13 23 -30.5 34.5t-47.5 11.5q-44 0 -76.5 -31.5t-55 -80t-33.5 -106t-11 -108.5q0 -32 5.5 -59.5t18 -47.5t31.5 -31.5t46 -11.5q29 0 54 15.5
t44 42.5zM295 708l66 -144h-19l-61 132l-109 -132h-21l118 144h26z" />
    <glyph glyph-name="Cdotaccent" unicode="&#x10a;" horiz-adv-x="459" 
d="M414 78q-29 -40 -70.5 -67t-97.5 -27q-48 0 -82 17.5t-55.5 50t-32 77.5t-10.5 99q0 56 9 114.5t26.5 113.5t43 103.5t58 85t72.5 58t86 21.5q49 0 81.5 -19.5t54.5 -57.5l-18 -12q-37 69 -118 69q-43 0 -80 -21t-67.5 -56.5t-54 -82.5t-39.5 -99.5t-24 -107.5t-8 -106
q0 -50 9 -91.5t28.5 -71.5t49 -47t71.5 -17q43 0 82 22t71 67zM383 833q-19 0 -19 22q0 11 6.5 21t18.5 10q10 0 14.5 -6.5t4.5 -15.5q0 -13 -7 -22t-18 -9z" />
    <glyph glyph-name="cdotaccent" unicode="&#x10b;" horiz-adv-x="316" 
d="M276 46q-23 -30 -51 -46t-60 -16q-64 0 -93 47t-29 123q0 59 13 120t38.5 111t62.5 82t84 32q39 0 60 -15t35 -38l-17 -12q-13 23 -30.5 34.5t-47.5 11.5q-44 0 -76.5 -31.5t-55 -80t-33.5 -106t-11 -108.5q0 -32 5.5 -59.5t18 -47.5t31.5 -31.5t46 -11.5q29 0 54 15.5
t44 42.5zM265 633q-19 0 -19 22q0 11 6.5 21t18.5 10q10 0 14.5 -6.5t4.5 -15.5q0 -13 -7 -22t-18 -9z" />
    <glyph glyph-name="Ccaron" unicode="&#x10c;" horiz-adv-x="459" 
d="M414 78q-29 -40 -70.5 -67t-97.5 -27q-48 0 -82 17.5t-55.5 50t-32 77.5t-10.5 99q0 56 9 114.5t26.5 113.5t43 103.5t58 85t72.5 58t86 21.5q49 0 81.5 -19.5t54.5 -57.5l-18 -12q-37 69 -118 69q-43 0 -80 -21t-67.5 -56.5t-54 -82.5t-39.5 -99.5t-24 -107.5t-8 -106
q0 -50 9 -91.5t28.5 -71.5t49 -47t71.5 -17q43 0 82 22t71 67zM354 764l-67 144h20l62 -132l108 132h20l-117 -144h-26z" />
    <glyph glyph-name="ccaron" unicode="&#x10d;" horiz-adv-x="316" 
d="M276 46q-23 -30 -51 -46t-60 -16q-64 0 -93 47t-29 123q0 59 13 120t38.5 111t62.5 82t84 32q39 0 60 -15t35 -38l-17 -12q-13 23 -30.5 34.5t-47.5 11.5q-44 0 -76.5 -31.5t-55 -80t-33.5 -106t-11 -108.5q0 -32 5.5 -59.5t18 -47.5t31.5 -31.5t46 -11.5q29 0 54 15.5
t44 42.5zM236 564l-66 144h20l61 -132l108 132h21l-118 -144h-26z" />
    <glyph glyph-name="Dcaron" unicode="&#x10e;" horiz-adv-x="510" 
d="M277 708q53 0 92 -19.5t64.5 -55t38 -86t12.5 -111.5q0 -86 -20 -164.5t-59 -139t-95.5 -96.5t-129.5 -36h-133l123 708h107zM188 688l-115 -668h108q66 0 118.5 34t88.5 91t55 132t19 158q0 58 -11.5 104.5t-34.5 79.5t-58.5 51t-83.5 18h-86zM291 764l-67 144h20
l62 -132l108 132h20l-117 -144h-26z" />
    <glyph glyph-name="dcaron" unicode="&#x10f;" 
d="M302 116q-22 -58 -58 -95t-86 -37q-60 0 -87.5 47t-27.5 124q0 58 13 119.5t37.5 111t61 81.5t84.5 32q54 0 80 -35.5t27 -92.5h2l67 385h22l-132 -756h-22l21 116h-2zM158 4q41 0 74 31.5t55.5 80t34.5 106t12 108.5q0 67 -23 108.5t-71 41.5q-43 0 -75.5 -31.5t-55 -80
t-34 -106t-11.5 -108.5q0 -33 5.5 -60.5t17 -47.5t29.5 -31t42 -11zM456 527h-16l73 181h22z" />
    <glyph glyph-name="Dcroat" unicode="&#x110;" horiz-adv-x="510" 
d="M40 358l4 20h69l57 330h107q53 0 92 -19.5t64.5 -55t38 -86t12.5 -111.5q0 -86 -20 -164.5t-59 -139t-95.5 -96.5t-129.5 -36h-133l62 358h-69zM279 378l-4 -20h-144l-58 -338h108q66 0 118.5 34t88.5 91t55 132t19 158q0 58 -11.5 104.5t-34.5 79.5t-58.5 51t-83.5 18
h-86l-53 -310h144z" />
    <glyph glyph-name="dcroat" unicode="&#x111;" 
d="M405 575l-100 -575h-22l21 116h-2q-22 -58 -58 -95t-86 -37q-60 0 -87.5 47t-27.5 124q0 58 13 119.5t37.5 111t61 81.5t84.5 32q54 0 80 -35.5t27 -92.5h2l35 204h-138l3 18h138l29 163h22l-29 -163h48l-3 -18h-48zM158 4q41 0 74 31.5t55.5 80t34.5 106t12 108.5
q0 67 -23 108.5t-71 41.5q-43 0 -75.5 -31.5t-55 -80t-34 -106t-11.5 -108.5q0 -33 5.5 -60.5t17 -47.5t29.5 -31t42 -11z" />
    <glyph glyph-name="Emacron" unicode="&#x112;" horiz-adv-x="377" 
d="M47 0l123 708h245l-4 -20h-223l-54 -311h213l-3 -20h-213l-58 -337h240l-4 -20h-262zM203 821l3 20h208l-3 -20h-208z" />
    <glyph glyph-name="emacron" unicode="&#x113;" horiz-adv-x="386" 
d="M75 247q-5 -23 -7.5 -47t-2.5 -46q0 -70 28 -110t80 -40q39 0 68 24.5t49 60.5l16 -11q-21 -38 -54.5 -66t-79.5 -28q-64 0 -96.5 44.5t-32.5 125.5q0 51 12.5 111.5t37.5 112.5t62 86.5t87 34.5q33 0 54.5 -12.5t34.5 -34t18.5 -49.5t5.5 -58q0 -17 -3.5 -44.5
t-8.5 -53.5h-268zM326 266q4 23 6 42t2 36q0 29 -5 54t-16 43t-29 28.5t-43 10.5q-36 0 -64 -23.5t-48 -57t-32.5 -70.5t-17.5 -63h247zM161 621l4 20h208l-4 -20h-208z" />
    <glyph glyph-name="Ebreve" unicode="&#x114;" horiz-adv-x="377" 
d="M47 0l123 708h245l-4 -20h-223l-54 -311h213l-3 -20h-213l-58 -337h240l-4 -20h-262zM429 898q-17 -61 -51 -93.5t-79 -32.5q-44 0 -70 32.5t-26 93.5h18q0 -52 21 -79t56 -27q40 0 69 25t44 81h18z" />
    <glyph glyph-name="ebreve" unicode="&#x115;" horiz-adv-x="386" 
d="M75 247q-5 -23 -7.5 -47t-2.5 -46q0 -70 28 -110t80 -40q39 0 68 24.5t49 60.5l16 -11q-21 -38 -54.5 -66t-79.5 -28q-64 0 -96.5 44.5t-32.5 125.5q0 51 12.5 111.5t37.5 112.5t62 86.5t87 34.5q33 0 54.5 -12.5t34.5 -34t18.5 -49.5t5.5 -58q0 -17 -3.5 -44.5
t-8.5 -53.5h-268zM326 266q4 23 6 42t2 36q0 29 -5 54t-16 43t-29 28.5t-43 10.5q-36 0 -64 -23.5t-48 -57t-32.5 -70.5t-17.5 -63h247zM392 698q-17 -61 -51 -93.5t-79 -32.5q-44 0 -70 32.5t-26 93.5h18q0 -52 21 -79t56 -27q40 0 69 25t44 81h18z" />
    <glyph glyph-name="Edotaccent" unicode="&#x116;" horiz-adv-x="377" 
d="M47 0l123 708h245l-4 -20h-223l-54 -311h213l-3 -20h-213l-58 -337h240l-4 -20h-262zM309 833q-19 0 -19 22q0 11 6.5 21t18.5 10q10 0 14.5 -6.5t4.5 -15.5q0 -13 -7 -22t-18 -9z" />
    <glyph glyph-name="edotaccent" unicode="&#x117;" horiz-adv-x="386" 
d="M75 247q-5 -23 -7.5 -47t-2.5 -46q0 -70 28 -110t80 -40q39 0 68 24.5t49 60.5l16 -11q-21 -38 -54.5 -66t-79.5 -28q-64 0 -96.5 44.5t-32.5 125.5q0 51 12.5 111.5t37.5 112.5t62 86.5t87 34.5q33 0 54.5 -12.5t34.5 -34t18.5 -49.5t5.5 -58q0 -17 -3.5 -44.5
t-8.5 -53.5h-268zM326 266q4 23 6 42t2 36q0 29 -5 54t-16 43t-29 28.5t-43 10.5q-36 0 -64 -23.5t-48 -57t-32.5 -70.5t-17.5 -63h247zM264 633q-19 0 -19 22q0 11 6.5 21t18.5 10q10 0 14.5 -6.5t4.5 -15.5q0 -13 -7 -22t-18 -9z" />
    <glyph glyph-name="Eogonek" unicode="&#x118;" horiz-adv-x="377" 
d="M188 -192q-16 -14 -36.5 -22.5t-41.5 -8.5q-29 0 -47 15.5t-18 48.5q0 23 9.5 43.5t25.5 40t35.5 38t39.5 37.5h-108l123 708h245l-4 -20h-223l-54 -311h213l-3 -20h-213l-58 -337h240l-4 -20h-132q-26 -26 -46 -45t-34.5 -36.5t-22 -35t-7.5 -38.5q0 -50 48 -50
q19 0 36.5 8t30.5 21z" />
    <glyph glyph-name="eogonek" unicode="&#x119;" horiz-adv-x="386" 
d="M209 -192q-16 -14 -36.5 -22.5t-41.5 -8.5q-29 0 -47 15.5t-18 48.5q0 21 8 40t21 36.5t29.5 34t34.5 33.5q-58 5 -87 48.5t-29 120.5q0 51 12.5 111.5t37.5 112.5t62 86.5t87 34.5q33 0 54.5 -12.5t34.5 -34t18.5 -49.5t5.5 -58q0 -17 -3.5 -44.5t-8.5 -53.5h-268
q-5 -23 -7.5 -47t-2.5 -46q0 -70 28 -110t80 -40q39 0 68 24.5t49 60.5l16 -11q-20 -36 -51 -63t-73 -30q-22 -22 -39.5 -39t-29.5 -33t-18.5 -32t-6.5 -36q0 -50 48 -50q19 0 36.5 8t30.5 21zM326 266q4 23 6 42t2 36q0 29 -5 54t-16 43t-29 28.5t-43 10.5q-36 0 -64 -23.5
t-48 -57t-32.5 -70.5t-17.5 -63h247z" />
    <glyph glyph-name="Ecaron" unicode="&#x11a;" horiz-adv-x="377" 
d="M47 0l123 708h245l-4 -20h-223l-54 -311h213l-3 -20h-213l-58 -337h240l-4 -20h-262zM284 764l-67 144h20l62 -132l108 132h20l-117 -144h-26z" />
    <glyph glyph-name="ecaron" unicode="&#x11b;" horiz-adv-x="386" 
d="M75 247q-5 -23 -7.5 -47t-2.5 -46q0 -70 28 -110t80 -40q39 0 68 24.5t49 60.5l16 -11q-21 -38 -54.5 -66t-79.5 -28q-64 0 -96.5 44.5t-32.5 125.5q0 51 12.5 111.5t37.5 112.5t62 86.5t87 34.5q33 0 54.5 -12.5t34.5 -34t18.5 -49.5t5.5 -58q0 -17 -3.5 -44.5
t-8.5 -53.5h-268zM326 266q4 23 6 42t2 36q0 29 -5 54t-16 43t-29 28.5t-43 10.5q-36 0 -64 -23.5t-48 -57t-32.5 -70.5t-17.5 -63h247zM242 564l-66 144h20l61 -132l108 132h21l-118 -144h-26z" />
    <glyph glyph-name="Gcircumflex" unicode="&#x11c;" horiz-adv-x="518" 
d="M319 344l3 20h141l-56 -324q-29 -26 -68 -40.5t-87 -14.5q-49 0 -84.5 17.5t-58 49t-33 76.5t-10.5 100t9 113.5t26.5 113.5t43 104t58 85.5t72.5 58t86 21.5q40 0 79.5 -21t58.5 -72l-20 -11q-17 45 -49.5 64.5t-68.5 19.5q-43 0 -80 -20.5t-67.5 -56t-54 -82.5
t-39.5 -99.5t-24 -107t-8 -105.5q0 -104 40.5 -166t123.5 -62q80 0 135 47l51 292h-119zM412 908l67 -144h-19l-62 132l-108 -132h-21l117 144h26z" />
    <glyph glyph-name="gcircumflex" unicode="&#x11d;" 
d="M367 483h22l-80 -458q-10 -58 -23 -106.5t-33.5 -84t-51.5 -55t-77 -19.5q-47 0 -80 23t-47 59l18 12q14 -32 42 -53t69 -21q39 0 65 18t44 50.5t30 77t22 98.5l17 92h-2q-8 -21 -20 -44t-29.5 -42.5t-41.5 -32.5t-54 -13q-60 0 -87.5 47t-27.5 124q0 58 13 119.5
t37.5 111t61 81.5t84.5 32q54 0 80 -35.5t27 -92.5h2zM157 4q41 0 74 31.5t55.5 80t34.5 106t12 108.5q0 67 -23 108.5t-71 41.5q-43 0 -75.5 -31.5t-55 -80t-34 -106t-11.5 -108.5q0 -33 5.5 -60.5t17 -47.5t29.5 -31t42 -11zM322 708l66 -144h-19l-61 132l-109 -132h-21
l118 144h26z" />
    <glyph glyph-name="Gbreve" unicode="&#x11e;" horiz-adv-x="518" 
d="M319 344l3 20h141l-56 -324q-29 -26 -68 -40.5t-87 -14.5q-49 0 -84.5 17.5t-58 49t-33 76.5t-10.5 100t9 113.5t26.5 113.5t43 104t58 85.5t72.5 58t86 21.5q40 0 79.5 -21t58.5 -72l-20 -11q-17 45 -49.5 64.5t-68.5 19.5q-43 0 -80 -20.5t-67.5 -56t-54 -82.5
t-39.5 -99.5t-24 -107t-8 -105.5q0 -104 40.5 -166t123.5 -62q80 0 135 47l51 292h-119zM497 898q-17 -61 -51 -93.5t-79 -32.5q-44 0 -70 32.5t-26 93.5h18q0 -52 21 -79t56 -27q40 0 69 25t44 81h18z" />
    <glyph glyph-name="gbreve" unicode="&#x11f;" 
d="M367 483h22l-80 -458q-10 -58 -23 -106.5t-33.5 -84t-51.5 -55t-77 -19.5q-47 0 -80 23t-47 59l18 12q14 -32 42 -53t69 -21q39 0 65 18t44 50.5t30 77t22 98.5l17 92h-2q-8 -21 -20 -44t-29.5 -42.5t-41.5 -32.5t-54 -13q-60 0 -87.5 47t-27.5 124q0 58 13 119.5
t37.5 111t61 81.5t84.5 32q54 0 80 -35.5t27 -92.5h2zM157 4q41 0 74 31.5t55.5 80t34.5 106t12 108.5q0 67 -23 108.5t-71 41.5q-43 0 -75.5 -31.5t-55 -80t-34 -106t-11.5 -108.5q0 -33 5.5 -60.5t17 -47.5t29.5 -31t42 -11zM408 698q-17 -61 -51 -93.5t-79 -32.5
q-44 0 -70 32.5t-26 93.5h18q0 -52 21 -79t56 -27q40 0 69 25t44 81h18z" />
    <glyph glyph-name="Gdotaccent" unicode="&#x120;" horiz-adv-x="518" 
d="M319 344l3 20h141l-56 -324q-29 -26 -68 -40.5t-87 -14.5q-49 0 -84.5 17.5t-58 49t-33 76.5t-10.5 100t9 113.5t26.5 113.5t43 104t58 85.5t72.5 58t86 21.5q40 0 79.5 -21t58.5 -72l-20 -11q-17 45 -49.5 64.5t-68.5 19.5q-43 0 -80 -20.5t-67.5 -56t-54 -82.5
t-39.5 -99.5t-24 -107t-8 -105.5q0 -104 40.5 -166t123.5 -62q80 0 135 47l51 292h-119zM378 833q-19 0 -19 22q0 11 6.5 21t18.5 10q10 0 14.5 -6.5t4.5 -15.5q0 -13 -7 -22t-18 -9z" />
    <glyph glyph-name="gdotaccent" unicode="&#x121;" 
d="M367 483h22l-80 -458q-10 -58 -23 -106.5t-33.5 -84t-51.5 -55t-77 -19.5q-47 0 -80 23t-47 59l18 12q14 -32 42 -53t69 -21q39 0 65 18t44 50.5t30 77t22 98.5l17 92h-2q-8 -21 -20 -44t-29.5 -42.5t-41.5 -32.5t-54 -13q-60 0 -87.5 47t-27.5 124q0 58 13 119.5
t37.5 111t61 81.5t84.5 32q54 0 80 -35.5t27 -92.5h2zM157 4q41 0 74 31.5t55.5 80t34.5 106t12 108.5q0 67 -23 108.5t-71 41.5q-43 0 -75.5 -31.5t-55 -80t-34 -106t-11.5 -108.5q0 -33 5.5 -60.5t17 -47.5t29.5 -31t42 -11zM281 633q-19 0 -19 22q0 11 6.5 21t18.5 10
q10 0 14.5 -6.5t4.5 -15.5q0 -13 -7 -22t-18 -9z" />
    <glyph glyph-name="Gcommaaccent" unicode="&#x122;" horiz-adv-x="518" 
d="M319 344l3 20h141l-56 -324q-29 -26 -68 -40.5t-87 -14.5q-49 0 -84.5 17.5t-58 49t-33 76.5t-10.5 100t9 113.5t26.5 113.5t43 104t58 85.5t72.5 58t86 21.5q40 0 79.5 -21t58.5 -72l-20 -11q-17 45 -49.5 64.5t-68.5 19.5q-43 0 -80 -20.5t-67.5 -56t-54 -82.5
t-39.5 -99.5t-24 -107t-8 -105.5q0 -104 40.5 -166t123.5 -62q80 0 135 47l51 292h-119zM179 -226h-16l73 181h22z" />
    <glyph glyph-name="gcommaaccent" unicode="&#x123;" 
d="M367 483h22l-80 -458q-10 -58 -23 -106.5t-33.5 -84t-51.5 -55t-77 -19.5q-47 0 -80 23t-47 59l18 12q14 -32 42 -53t69 -21q39 0 65 18t44 50.5t30 77t22 98.5l17 92h-2q-8 -21 -20 -44t-29.5 -42.5t-41.5 -32.5t-54 -13q-60 0 -87.5 47t-27.5 124q0 58 13 119.5
t37.5 111t61 81.5t84.5 32q54 0 80 -35.5t27 -92.5h2zM157 4q41 0 74 31.5t55.5 80t34.5 106t12 108.5q0 67 -23 108.5t-71 41.5q-43 0 -75.5 -31.5t-55 -80t-34 -106t-11.5 -108.5q0 -33 5.5 -60.5t17 -47.5t29.5 -31t42 -11zM341 745h16l-73 -181h-22z" />
    <glyph glyph-name="Hcircumflex" unicode="&#x124;" horiz-adv-x="548" 
d="M397 0l62 357h-328l-62 -357h-22l123 708h22l-58 -332h328l58 332h22l-123 -708h-22zM410 908l67 -144h-19l-62 132l-108 -132h-21l117 144h26z" />
    <glyph glyph-name="hcircumflex" unicode="&#x125;" horiz-adv-x="429" 
d="M63 0h-22l131 756h22l-67 -379h2q8 21 21 43t31 39.5t40 28.5t48 11q28 0 47.5 -10.5t30.5 -27t16 -37.5t5 -42q0 -31 -6 -62l-56 -320h-22l56 320q6 31 6 62q0 18 -4 35t-13 31t-24 22.5t-37 8.5q-32 0 -58.5 -18.5t-46.5 -47.5t-33 -64.5t-19 -68.5zM342 940l66 -144
h-19l-61 132l-109 -132h-21l118 144h26z" />
    <glyph glyph-name="Hbar" unicode="&#x126;" horiz-adv-x="548" 
d="M397 0l62 357h-328l-62 -357h-22l123 708h22l-32 -182h328l32 182h22l-123 -708h-22zM462 376l22 130h-328l-22 -130h328z" />
    <glyph glyph-name="hbar" unicode="&#x127;" horiz-adv-x="429" 
d="M162 575l-35 -198h2q8 21 21 43t31 39.5t40 28.5t48 11q28 0 47.5 -10.5t30.5 -27t16 -37.5t5 -42q0 -31 -6 -62l-56 -320h-22l56 320q6 31 6 62q0 18 -4 35t-13 31t-24 22.5t-37 8.5q-32 0 -58.5 -18.5t-46.5 -47.5t-33 -64.5t-19 -68.5l-48 -280h-22l99 575h-61l3 18
h61l29 163h22l-29 -163h125l-3 -18h-125z" />
    <glyph glyph-name="Itilde" unicode="&#x128;" horiz-adv-x="198" 
d="M47 0l123 708h22l-123 -708h-22zM196 838q21 -17 29.5 -20.5t19.5 -3.5q16 0 25.5 11.5t17.5 36.5h15q-9 -36 -26.5 -51.5t-35.5 -15.5q-14 0 -25 5t-29 19q-20 17 -28.5 20.5t-19.5 3.5q-29 0 -44 -51h-15q9 36 26.5 53t35.5 17q14 0 25.5 -5t28.5 -19z" />
    <glyph glyph-name="itilde" unicode="&#x129;" horiz-adv-x="190" 
d="M41 0l85 483h22l-85 -483h-22zM156 638q22 -17 30 -20.5t19 -3.5q16 0 26 11.5t18 36.5h15q-10 -36 -27 -51.5t-35 -15.5q-14 0 -25 5t-29 19q-20 17 -29 20.5t-20 3.5q-16 0 -26 -13t-18 -38h-15q10 36 27.5 53t35.5 17q14 0 25 -5t28 -19z" />
    <glyph glyph-name="Imacron" unicode="&#x12a;" horiz-adv-x="198" 
d="M47 0l123 708h22l-123 -708h-22zM88 821l3 20h208l-3 -20h-208z" />
    <glyph glyph-name="imacron" unicode="&#x12b;" horiz-adv-x="190" 
d="M41 0l85 483h22l-85 -483h-22zM48 621l4 20h208l-4 -20h-208z" />
    <glyph glyph-name="Iogonek" unicode="&#x12e;" horiz-adv-x="198" 
d="M79 -192q-16 -14 -36.5 -22.5t-41.5 -8.5q-29 0 -47 15.5t-18 48.5q0 23 9.5 43.5t25.5 40t35.5 38t39.5 37.5h1l123 708h22l-123 -708h-1q-26 -26 -46 -45t-34.5 -36.5t-22 -35t-7.5 -38.5q0 -50 48 -50q19 0 36.5 8t30.5 21z" />
    <glyph glyph-name="iogonek" unicode="&#x12f;" horiz-adv-x="190" 
d="M76 -192q-16 -14 -36.5 -22.5t-41.5 -8.5q-29 0 -47 15.5t-18 48.5q0 23 9.5 43.5t25.5 40t35.5 38t39.5 37.5h-1l84 483h22l-84 -483h1q-26 -26 -46 -45t-34.5 -36.5t-22 -35t-7.5 -38.5q0 -50 48 -50q19 0 36.5 8t30.5 21zM160 633q-19 0 -19 22q0 11 6.5 21t18.5 10
q10 0 14.5 -6.5t4.5 -15.5q0 -13 -7 -22t-18 -9z" />
    <glyph glyph-name="Idotaccent" unicode="&#x130;" horiz-adv-x="198" 
d="M47 0l123 708h22l-123 -708h-22zM199 833q-19 0 -19 22q0 11 6.5 21t18.5 10q10 0 14.5 -6.5t4.5 -15.5q0 -13 -7 -22t-18 -9z" />
    <glyph glyph-name="dotlessi" unicode="&#x131;" horiz-adv-x="190" 
d="M41 0l85 483h22l-85 -483h-22z" />
    <glyph glyph-name="IJ" unicode="&#x132;" horiz-adv-x="508" 
d="M47 0l123 708h22l-123 -708h-22zM438 193q-8 -48 -18 -87t-26 -66t-41 -42t-63 -15q-50 0 -79 28.5t-38 79.5l21 7q8 -45 33 -70t62 -25q33 0 54 13.5t35 39t23 63t17 84.5l88 505h22z" />
    <glyph glyph-name="ij" unicode="&#x133;" horiz-adv-x="387" 
d="M42 0l84 483h22l-84 -483h-22zM160 633q-19 0 -19 22q0 11 6.5 21t18.5 10q10 0 14.5 -6.5t4.5 -15.5q0 -13 -7 -22t-18 -9zM138 -240q-20 0 -34 7l3 19q5 -2 13.5 -4t17.5 -2q22 0 36.5 10t23.5 26.5t14 38.5t9 45l102 583h22l-102 -583q-12 -69 -34 -104.5t-71 -35.5z
M357 633q-19 0 -19 22q0 11 6.5 21t18.5 10q10 0 14.5 -6.5t4.5 -15.5q0 -13 -7 -22t-18 -9z" />
    <glyph glyph-name="Jcircumflex" unicode="&#x134;" horiz-adv-x="338" 
d="M245 193q-8 -48 -18 -87t-26 -66t-41 -42t-63 -15q-50 0 -79 28.5t-38 79.5l21 7q8 -45 33 -70t62 -25q33 0 54 13.5t35 39t23 63t17 84.5l88 505h22zM369 908l67 -144h-19l-62 132l-108 -132h-21l117 144h26z" />
    <glyph glyph-name="jcircumflex" unicode="&#x135;" horiz-adv-x="192" 
d="M-57 -240q-20 0 -34 7l3 19q5 -2 13.5 -4t17.5 -2q22 0 36.5 10t23.5 26.5t14 38.5t9 45l102 583h22l-102 -583q-12 -69 -34 -104.5t-71 -35.5zM189 708l66 -144h-19l-61 132l-109 -132h-21l118 144h26z" />
    <glyph glyph-name="Kcommaaccent" unicode="&#x136;" horiz-adv-x="434" 
d="M137 383l320 325h30l-326 -328l218 -380h-26l-217 381h-1l-66 -381h-22l123 708h22l-56 -325h1zM132 -226h-16l73 181h22z" />
    <glyph glyph-name="kcommaaccent" unicode="&#x137;" horiz-adv-x="343" 
d="M110 260l217 223h30l-223 -227l157 -256h-27l-155 255h-2l-44 -255h-22l131 756h22l-86 -496h2zM98 -226h-16l73 181h22z" />
    <glyph glyph-name="Lacute" unicode="&#x139;" horiz-adv-x="318" 
d="M47 0l123 708h22l-119 -687h207l-4 -21h-229zM197 764h-19l119 144h26z" />
    <glyph glyph-name="lacute" unicode="&#x13a;" horiz-adv-x="190" 
d="M41 0l133 756h22l-133 -756h-22zM200 792h-19l119 144h26z" />
    <glyph glyph-name="Lcommaaccent" unicode="&#x13b;" horiz-adv-x="318" 
d="M47 0l123 708h22l-119 -687h207l-4 -21h-229zM98 -226h-16l73 181h22z" />
    <glyph glyph-name="lcommaaccent" unicode="&#x13c;" horiz-adv-x="190" 
d="M41 0l133 756h22l-133 -756h-22zM-8 -226h-16l73 181h22z" />
    <glyph glyph-name="Lcaron" unicode="&#x13d;" horiz-adv-x="318" 
d="M47 0l123 708h22l-119 -687h207l-4 -21h-229zM238 527h-16l73 181h22z" />
    <glyph glyph-name="lcaron" unicode="&#x13e;" horiz-adv-x="190" 
d="M41 0l133 756h22l-133 -756h-22zM224 527h-16l73 181h22z" />
    <glyph glyph-name="Ldot" unicode="&#x13f;" horiz-adv-x="318" 
d="M47 0l123 708h22l-119 -687h207l-4 -21h-229zM262 273q-19 0 -19 22q0 11 6.5 21t18.5 10q10 0 14.5 -6.5t4.5 -15.5q0 -13 -7 -22t-18 -9z" />
    <glyph glyph-name="ldot" unicode="&#x140;" horiz-adv-x="190" 
d="M41 0l133 756h22l-133 -756h-22zM191 273q-19 0 -19 22q0 11 6.5 21t18.5 10q10 0 14.5 -6.5t4.5 -15.5q0 -13 -7 -22t-18 -9z" />
    <glyph glyph-name="Lslash" unicode="&#x141;" horiz-adv-x="318" 
d="M72 21h207l-4 -21h-229l46 259l-74 -58l5 27l73 58l75 422h22l-71 -403l197 155l-4 -24l-198 -158z" />
    <glyph glyph-name="lslash" unicode="&#x142;" horiz-adv-x="190" 
d="M36 309l5 27l69 53l64 367h22l-61 -350l75 57l-5 -24l-75 -60l-67 -379h-22l64 362z" />
    <glyph glyph-name="Nacute" unicode="&#x143;" horiz-adv-x="533" 
d="M369 0l-180 682h-2l-118 -682h-22l123 708h36l179 -681h2l118 681h22l-123 -708h-35zM332 764h-19l119 144h26z" />
    <glyph glyph-name="nacute" unicode="&#x144;" 
d="M131 377q8 21 21 43t31 39.5t40 28.5t48 11q28 0 47.5 -10.5t30.5 -27t16 -37.5t5 -42q0 -31 -6 -62l-56 -320h-22l56 320q6 31 6 62q0 18 -4 35t-13 31t-24 22.5t-37 8.5q-32 0 -58.5 -18.5t-46.5 -47.5t-33 -64.5t-18 -68.5l-49 -280h-22l63 361q2 12 4.5 28.5t5 34
t4.5 33.5t3 26h21q-1 -9 -3 -22t-4 -28t-4 -29.5t-4 -26.5h2zM246 564h-19l119 144h26z" />
    <glyph glyph-name="Ncommaaccent" unicode="&#x145;" horiz-adv-x="533" 
d="M369 0l-180 682h-2l-118 -682h-22l123 708h36l179 -681h2l118 681h22l-123 -708h-35zM171 -226h-16l73 181h22z" />
    <glyph glyph-name="ncommaaccent" unicode="&#x146;" 
d="M131 377q8 21 21 43t31 39.5t40 28.5t48 11q28 0 47.5 -10.5t30.5 -27t16 -37.5t5 -42q0 -31 -6 -62l-56 -320h-22l56 320q6 31 6 62q0 18 -4 35t-13 31t-24 22.5t-37 8.5q-32 0 -58.5 -18.5t-46.5 -47.5t-33 -64.5t-18 -68.5l-49 -280h-22l63 361q2 12 4.5 28.5t5 34
t4.5 33.5t3 26h21q-1 -9 -3 -22t-4 -28t-4 -29.5t-4 -26.5h2zM116 -226h-16l73 181h22z" />
    <glyph glyph-name="Ncaron" unicode="&#x147;" horiz-adv-x="533" 
d="M369 0l-180 682h-2l-118 -682h-22l123 708h36l179 -681h2l118 681h22l-123 -708h-35zM340 764l-67 144h20l62 -132l108 132h20l-117 -144h-26z" />
    <glyph glyph-name="ncaron" unicode="&#x148;" 
d="M131 377q8 21 21 43t31 39.5t40 28.5t48 11q28 0 47.5 -10.5t30.5 -27t16 -37.5t5 -42q0 -31 -6 -62l-56 -320h-22l56 320q6 31 6 62q0 18 -4 35t-13 31t-24 22.5t-37 8.5q-32 0 -58.5 -18.5t-46.5 -47.5t-33 -64.5t-18 -68.5l-49 -280h-22l63 361q2 12 4.5 28.5t5 34
t4.5 33.5t3 26h21q-1 -9 -3 -22t-4 -28t-4 -29.5t-4 -26.5h2zM248 564l-66 144h20l61 -132l108 132h21l-118 -144h-26z" />
    <glyph glyph-name="napostrophe" unicode="&#x149;" horiz-adv-x="441" 
d="M141 377q8 21 21 43t31 39.5t40 28.5t48 11q28 0 47.5 -10.5t30.5 -27t16 -37.5t5 -42q0 -31 -6 -62l-56 -320h-22l56 320q6 31 6 62q0 18 -4 35t-13 31t-24 22.5t-37 8.5q-32 0 -58.5 -18.5t-46.5 -47.5t-33 -64.5t-18 -68.5l-49 -280h-22l63 361q2 12 4.5 28.5t5 34
t4.5 33.5t3 26h21q-1 -9 -3 -22t-4 -28t-4 -29.5t-4 -26.5h2zM88 527h-16l73 181h22z" />
    <glyph glyph-name="Omacron" unicode="&#x14c;" horiz-adv-x="542" 
d="M349 724q43 0 75 -18t53 -50t31 -77.5t10 -100.5q0 -56 -9 -114.5t-25.5 -113.5t-41 -103.5t-56 -84.5t-69.5 -57t-82 -21q-43 0 -75 17.5t-53 49.5t-31 77t-10 100q0 56 8.5 114.5t25 114t40.5 104t55.5 85t70 57.5t83.5 21zM349 704q-63 0 -111.5 -46t-82 -116.5
t-50.5 -154t-17 -159.5q0 -49 9 -90t27.5 -71t46 -46.5t64.5 -16.5q41 0 76.5 21t64.5 56.5t51 82.5t37.5 99.5t23.5 107t8 104.5t-9 92t-27.5 72.5t-46 47.5t-64.5 17zM270 821l3 20h208l-3 -20h-208z" />
    <glyph glyph-name="omacron" unicode="&#x14d;" horiz-adv-x="404" 
d="M239 499q64 0 93 -49t29 -127q0 -59 -14 -119t-39.5 -109t-62.5 -80t-82 -31q-59 0 -89.5 46t-30.5 123q0 59 13.5 120.5t38.5 111.5t61.5 82t82.5 32zM237 480q-42 0 -74 -31.5t-54 -80t-33.5 -106t-11.5 -109.5q0 -66 24 -107.5t77 -41.5q42 0 74 30.5t54.5 78
t34 103.5t11.5 107q0 34 -5.5 63t-18 50t-32 32.5t-46.5 11.5zM163 621l4 20h208l-4 -20h-208z" />
    <glyph glyph-name="Obreve" unicode="&#x14e;" horiz-adv-x="542" 
d="M349 724q43 0 75 -18t53 -50t31 -77.5t10 -100.5q0 -56 -9 -114.5t-25.5 -113.5t-41 -103.5t-56 -84.5t-69.5 -57t-82 -21q-43 0 -75 17.5t-53 49.5t-31 77t-10 100q0 56 8.5 114.5t25 114t40.5 104t55.5 85t70 57.5t83.5 21zM349 704q-63 0 -111.5 -46t-82 -116.5
t-50.5 -154t-17 -159.5q0 -49 9 -90t27.5 -71t46 -46.5t64.5 -16.5q41 0 76.5 21t64.5 56.5t51 82.5t37.5 99.5t23.5 107t8 104.5t-9 92t-27.5 72.5t-46 47.5t-64.5 17zM492 898q-17 -61 -51 -93.5t-79 -32.5q-44 0 -70 32.5t-26 93.5h18q0 -52 21 -79t56 -27q40 0 69 25
t44 81h18z" />
    <glyph glyph-name="obreve" unicode="&#x14f;" horiz-adv-x="404" 
d="M239 499q64 0 93 -49t29 -127q0 -59 -14 -119t-39.5 -109t-62.5 -80t-82 -31q-59 0 -89.5 46t-30.5 123q0 59 13.5 120.5t38.5 111.5t61.5 82t82.5 32zM237 480q-42 0 -74 -31.5t-54 -80t-33.5 -106t-11.5 -109.5q0 -66 24 -107.5t77 -41.5q42 0 74 30.5t54.5 78
t34 103.5t11.5 107q0 34 -5.5 63t-18 50t-32 32.5t-46.5 11.5zM385 698q-17 -61 -51 -93.5t-79 -32.5q-44 0 -70 32.5t-26 93.5h18q0 -52 21 -79t56 -27q40 0 69 25t44 81h18z" />
    <glyph glyph-name="Ohungarumlaut" unicode="&#x150;" horiz-adv-x="542" 
d="M349 724q43 0 75 -18t53 -50t31 -77.5t10 -100.5q0 -56 -9 -114.5t-25.5 -113.5t-41 -103.5t-56 -84.5t-69.5 -57t-82 -21q-43 0 -75 17.5t-53 49.5t-31 77t-10 100q0 56 8.5 114.5t25 114t40.5 104t55.5 85t70 57.5t83.5 21zM349 704q-63 0 -111.5 -46t-82 -116.5
t-50.5 -154t-17 -159.5q0 -49 9 -90t27.5 -71t46 -46.5t64.5 -16.5q41 0 76.5 21t64.5 56.5t51 82.5t37.5 99.5t23.5 107t8 104.5t-9 92t-27.5 72.5t-46 47.5t-64.5 17zM319 763h-17l118 145h24zM424 763h-17l118 145h24z" />
    <glyph glyph-name="ohungarumlaut" unicode="&#x151;" horiz-adv-x="404" 
d="M239 499q64 0 93 -49t29 -127q0 -59 -14 -119t-39.5 -109t-62.5 -80t-82 -31q-59 0 -89.5 46t-30.5 123q0 59 13.5 120.5t38.5 111.5t61.5 82t82.5 32zM237 480q-42 0 -74 -31.5t-54 -80t-33.5 -106t-11.5 -109.5q0 -66 24 -107.5t77 -41.5q42 0 74 30.5t54.5 78
t34 103.5t11.5 107q0 34 -5.5 63t-18 50t-32 32.5t-46.5 11.5zM211 563h-19l119 145h26zM316 563h-19l119 145h26z" />
    <glyph glyph-name="OE" unicode="&#x152;" horiz-adv-x="618" 
d="M656 708l-4 -20h-207l-54 -311h197l-3 -20h-197l-58 -337h224l-4 -20h-277q-53 0 -92 19t-64.5 54t-38 84.5t-12.5 111.5q0 85 20 164.5t59 140.5t95.5 97.5t129.5 36.5h286zM308 20l115 668h-54q-66 0 -118.5 -34.5t-88.5 -92t-55 -133.5t-19 -158q0 -116 46 -183
t142 -67h32z" />
    <glyph glyph-name="oe" unicode="&#x153;" horiz-adv-x="659" 
d="M515 499q33 0 54.5 -12.5t34.5 -34t18.5 -49.5t5.5 -58q0 -17 -3.5 -44.5t-8.5 -53.5h-268q-5 -23 -7.5 -47t-2.5 -46q0 -70 28 -110t80 -40q39 0 68 24.5t49 60.5l16 -11q-21 -38 -54.5 -66t-79.5 -28q-32 0 -55 11.5t-38.5 31.5t-24 47.5t-9.5 59.5q-26 -68 -68 -109
t-93 -41q-56 0 -85 46t-29 123q0 59 14.5 120.5t41 111.5t64 82t83.5 32q53 0 80.5 -41t29.5 -110q26 67 66.5 109t92.5 42zM160 4q41 0 73.5 32t55 80.5t34.5 106t12 108.5q0 67 -22 108t-70 41q-42 0 -75 -32t-56 -80.5t-35.5 -106t-12.5 -109.5q0 -66 23 -107t73 -41z
M599 266q4 23 6 42t2 36q0 29 -5 54t-16 43t-29 28.5t-43 10.5q-36 0 -64 -23.5t-48 -57t-32.5 -70.5t-17.5 -63h247z" />
    <glyph glyph-name="Racute" unicode="&#x154;" horiz-adv-x="438" 
d="M349 0l-101 357h-117l-62 -357h-22l123 708h128q27 0 53.5 -9t47 -27t33 -46t12.5 -67q0 -49 -15 -86.5t-39.5 -62.5t-56 -38t-63.5 -14l102 -358h-23zM253 377q39 0 70.5 13t53.5 36.5t34 57t12 74.5q0 65 -38 97.5t-98 32.5h-98l-55 -311h119zM278 764h-19l119 144h26z
" />
    <glyph glyph-name="racute" unicode="&#x155;" horiz-adv-x="234" 
d="M107 361q2 12 4.5 28.5t5 34t4.5 33.5t3 26h22q-1 -10 -3.5 -25.5t-5 -33t-5 -33.5t-4.5 -28h3q27 71 61.5 100.5t70.5 29.5q8 0 12 -1l-4 -20q-4 1 -7 1h-5q-28 0 -52.5 -20t-43.5 -52t-33 -71.5t-21 -79.5l-44 -250h-22zM172 564h-19l119 144h26z" />
    <glyph glyph-name="Rcommaaccent" unicode="&#x156;" horiz-adv-x="438" 
d="M349 0l-101 357h-117l-62 -357h-22l123 708h128q27 0 53.5 -9t47 -27t33 -46t12.5 -67q0 -49 -15 -86.5t-39.5 -62.5t-56 -38t-63.5 -14l102 -358h-23zM253 377q39 0 70.5 13t53.5 36.5t34 57t12 74.5q0 65 -38 97.5t-98 32.5h-98l-55 -311h119zM135 -226h-16l73 181h22z
" />
    <glyph glyph-name="rcommaaccent" unicode="&#x157;" horiz-adv-x="234" 
d="M107 361q2 12 4.5 28.5t5 34t4.5 33.5t3 26h22q-1 -10 -3.5 -25.5t-5 -33t-5 -33.5t-4.5 -28h3q27 71 61.5 100.5t70.5 29.5q8 0 12 -1l-4 -20q-4 1 -7 1h-5q-28 0 -52.5 -20t-43.5 -52t-33 -71.5t-21 -79.5l-44 -250h-22zM-2 -226h-16l73 181h22z" />
    <glyph glyph-name="Rcaron" unicode="&#x158;" horiz-adv-x="438" 
d="M349 0l-101 357h-117l-62 -357h-22l123 708h128q27 0 53.5 -9t47 -27t33 -46t12.5 -67q0 -49 -15 -86.5t-39.5 -62.5t-56 -38t-63.5 -14l102 -358h-23zM253 377q39 0 70.5 13t53.5 36.5t34 57t12 74.5q0 65 -38 97.5t-98 32.5h-98l-55 -311h119zM286 764l-67 144h20
l62 -132l108 132h20l-117 -144h-26z" />
    <glyph glyph-name="rcaron" unicode="&#x159;" horiz-adv-x="234" 
d="M107 361q2 12 4.5 28.5t5 34t4.5 33.5t3 26h22q-1 -10 -3.5 -25.5t-5 -33t-5 -33.5t-4.5 -28h3q27 71 61.5 100.5t70.5 29.5q8 0 12 -1l-4 -20q-4 1 -7 1h-5q-28 0 -52.5 -20t-43.5 -52t-33 -71.5t-21 -79.5l-44 -250h-22zM191 564l-66 144h20l61 -132l108 132h21
l-118 -144h-26z" />
    <glyph glyph-name="Sacute" unicode="&#x15a;" horiz-adv-x="418" 
d="M174 -16q-51 0 -91 22.5t-65 60.5l18 15q23 -37 60 -57.5t78 -20.5q33 0 62.5 13.5t51 38t34.5 58t13 74.5q0 30 -9.5 55t-25 45.5t-35 37t-38.5 28.5q-22 14 -42.5 30.5t-36.5 37t-25.5 45.5t-9.5 57q0 44 14.5 80.5t39.5 63t58 41.5t70 15q43 0 76.5 -15t54.5 -49
l-16 -13q-21 32 -50 44.5t-67 12.5q-28 0 -56 -11.5t-51 -34.5t-37.5 -56.5t-14.5 -76.5q0 -28 8.5 -50.5t22.5 -40.5t31.5 -32t35.5 -26q24 -16 46.5 -34t40 -40t28 -49.5t10.5 -61.5q0 -47 -14.5 -85t-39.5 -65t-58.5 -42t-70.5 -15zM281 764h-19l119 144h26z" />
    <glyph glyph-name="sacute" unicode="&#x15b;" horiz-adv-x="308" 
d="M108 -16q-42 0 -70 19.5t-42 52.5l18 12q14 -30 36.5 -47t57.5 -17q25 0 46 10t36.5 28t24 42t8.5 52q0 22 -7.5 39t-19 30t-25.5 22.5t-26 16.5q-28 17 -49 41.5t-21 68.5q0 30 10 56.5t27.5 46t41.5 31t51 11.5q40 0 64.5 -17.5t37.5 -42.5l-17 -13q-14 25 -34 39
t-52 14q-24 0 -43.5 -10.5t-33.5 -27.5t-22 -40t-8 -48q0 -34 17 -55t46 -38q15 -9 30.5 -20.5t27.5 -26.5t19.5 -34t7.5 -42q0 -32 -9.5 -60t-27.5 -48.5t-43.5 -32.5t-56.5 -12zM205 564h-19l119 144h26z" />
    <glyph glyph-name="Scircumflex" unicode="&#x15c;" horiz-adv-x="418" 
d="M174 -16q-51 0 -91 22.5t-65 60.5l18 15q23 -37 60 -57.5t78 -20.5q33 0 62.5 13.5t51 38t34.5 58t13 74.5q0 30 -9.5 55t-25 45.5t-35 37t-38.5 28.5q-22 14 -42.5 30.5t-36.5 37t-25.5 45.5t-9.5 57q0 44 14.5 80.5t39.5 63t58 41.5t70 15q43 0 76.5 -15t54.5 -49
l-16 -13q-21 32 -50 44.5t-67 12.5q-28 0 -56 -11.5t-51 -34.5t-37.5 -56.5t-14.5 -76.5q0 -28 8.5 -50.5t22.5 -40.5t31.5 -32t35.5 -26q24 -16 46.5 -34t40 -40t28 -49.5t10.5 -61.5q0 -47 -14.5 -85t-39.5 -65t-58.5 -42t-70.5 -15zM354 908l67 -144h-19l-62 132
l-108 -132h-21l117 144h26z" />
    <glyph glyph-name="scircumflex" unicode="&#x15d;" horiz-adv-x="308" 
d="M108 -16q-42 0 -70 19.5t-42 52.5l18 12q14 -30 36.5 -47t57.5 -17q25 0 46 10t36.5 28t24 42t8.5 52q0 22 -7.5 39t-19 30t-25.5 22.5t-26 16.5q-28 17 -49 41.5t-21 68.5q0 30 10 56.5t27.5 46t41.5 31t51 11.5q40 0 64.5 -17.5t37.5 -42.5l-17 -13q-14 25 -34 39
t-52 14q-24 0 -43.5 -10.5t-33.5 -27.5t-22 -40t-8 -48q0 -34 17 -55t46 -38q15 -9 30.5 -20.5t27.5 -26.5t19.5 -34t7.5 -42q0 -32 -9.5 -60t-27.5 -48.5t-43.5 -32.5t-56.5 -12zM269 708l66 -144h-19l-61 132l-109 -132h-21l118 144h26z" />
    <glyph glyph-name="Scedilla" unicode="&#x15e;" horiz-adv-x="418" 
d="M126 -86q14 5 26 6.5t25 1.5q24 0 45.5 -14t21.5 -43q0 -27 -11 -45t-28 -28t-36.5 -14t-36.5 -4t-39.5 5t-40.5 15l8 17q15 -10 35 -14.5t36 -4.5q15 0 31.5 3t30 11t22.5 21.5t9 35.5t-18 32t-38 10q-12 0 -32 -4t-33 -11l-7 8l66 86q-48 3 -84.5 25t-59.5 58l18 15
q23 -37 60 -57.5t78 -20.5q33 0 62.5 13.5t51 38t34.5 58t13 74.5q0 30 -9.5 55t-25 45.5t-35 37t-38.5 28.5q-22 14 -42.5 30.5t-36.5 37t-25.5 45.5t-9.5 57q0 44 14.5 80.5t39.5 63t58 41.5t70 15q43 0 76.5 -15t54.5 -49l-16 -13q-21 32 -50 44.5t-67 12.5
q-28 0 -56 -11.5t-51 -34.5t-37.5 -56.5t-14.5 -76.5q0 -28 8.5 -50.5t22.5 -40.5t31.5 -32t35.5 -26q24 -16 46.5 -34t40 -40t28 -49.5t10.5 -61.5q0 -46 -14 -83.5t-38 -64.5t-56 -42.5t-68 -16.5l-55 -70v0z" />
    <glyph glyph-name="scedilla" unicode="&#x15f;" horiz-adv-x="308" 
d="M61 -86q14 5 26 6.5t25 1.5q24 0 45.5 -14t21.5 -43q0 -27 -11 -45t-28 -28t-36.5 -14t-36.5 -4t-39.5 5t-40.5 15l8 17q15 -10 35 -14.5t36 -4.5q15 0 31.5 3t30 11t22.5 21.5t9 35.5t-18 32t-38 10q-12 0 -32 -4t-33 -11l-7 8l68 89q-38 2 -64 21t-39 51l18 12
q14 -30 36.5 -47t57.5 -17q51 0 83 36t32 93q0 22 -7.5 39t-19 30t-25.5 22.5t-26 16.5q-28 17 -49 41.5t-21 68.5q0 30 10 56.5t27.5 46t41.5 31t51 11.5q40 0 64.5 -17.5t37.5 -42.5l-17 -13q-14 25 -34 39t-52 14q-24 0 -43.5 -10.5t-33.5 -27.5t-22 -40t-8 -48
q0 -34 17 -55t46 -38q15 -9 30.5 -20.5t27.5 -26.5t19.5 -34t7.5 -42q0 -61 -34.5 -103t-91.5 -46l-58 -74v0z" />
    <glyph glyph-name="Scaron" unicode="&#x160;" horiz-adv-x="418" 
d="M174 -16q-51 0 -91 22.5t-65 60.5l18 15q23 -37 60 -57.5t78 -20.5q33 0 62.5 13.5t51 38t34.5 58t13 74.5q0 30 -9.5 55t-25 45.5t-35 37t-38.5 28.5q-22 14 -42.5 30.5t-36.5 37t-25.5 45.5t-9.5 57q0 44 14.5 80.5t39.5 63t58 41.5t70 15q43 0 76.5 -15t54.5 -49
l-16 -13q-21 32 -50 44.5t-67 12.5q-28 0 -56 -11.5t-51 -34.5t-37.5 -56.5t-14.5 -76.5q0 -28 8.5 -50.5t22.5 -40.5t31.5 -32t35.5 -26q24 -16 46.5 -34t40 -40t28 -49.5t10.5 -61.5q0 -47 -14.5 -85t-39.5 -65t-58.5 -42t-70.5 -15zM291 764l-67 144h20l62 -132l108 132
h20l-117 -144h-26z" />
    <glyph glyph-name="scaron" unicode="&#x161;" horiz-adv-x="308" 
d="M108 -16q-42 0 -70 19.5t-42 52.5l18 12q14 -30 36.5 -47t57.5 -17q25 0 46 10t36.5 28t24 42t8.5 52q0 22 -7.5 39t-19 30t-25.5 22.5t-26 16.5q-28 17 -49 41.5t-21 68.5q0 30 10 56.5t27.5 46t41.5 31t51 11.5q40 0 64.5 -17.5t37.5 -42.5l-17 -13q-14 25 -34 39
t-52 14q-24 0 -43.5 -10.5t-33.5 -27.5t-22 -40t-8 -48q0 -34 17 -55t46 -38q15 -9 30.5 -20.5t27.5 -26.5t19.5 -34t7.5 -42q0 -32 -9.5 -60t-27.5 -48.5t-43.5 -32.5t-56.5 -12zM202 564l-66 144h20l61 -132l108 132h21l-118 -144h-26z" />
    <glyph glyph-name="Tcommaaccent" unicode="&#x162;" horiz-adv-x="304" 
d="M241 688l-121 -688h-22l121 688h-140l4 20h302l-4 -20h-140zM52 -226h-16l73 181h22z" />
    <glyph glyph-name="tcommaaccent" unicode="&#x163;" horiz-adv-x="216" 
d="M170 7q-24 -12 -47 -12q-32 0 -47.5 18t-15.5 49q0 11 1.5 22.5t3.5 23.5l63 356h-65l2 19h65l25 142h22l-25 -142h88l-2 -19h-88l-63 -356q-2 -11 -3.5 -24t-1.5 -21q0 -24 11.5 -36.5t31.5 -12.5q9 0 20 2.5t21 8.5zM44 -226h-16l73 181h22z" />
    <glyph glyph-name="Tcaron" unicode="&#x164;" horiz-adv-x="304" 
d="M241 688l-121 -688h-22l121 688h-140l4 20h302l-4 -20h-140zM228 764l-67 144h20l62 -132l108 132h20l-117 -144h-26z" />
    <glyph glyph-name="tcaron" unicode="&#x165;" horiz-adv-x="216" 
d="M170 7q-24 -12 -47 -12q-32 0 -47.5 18t-15.5 49q0 11 1.5 22.5t3.5 23.5l63 356h-65l2 19h65l25 142h22l-25 -142h88l-2 -19h-88l-63 -356q-2 -11 -3.5 -24t-1.5 -21q0 -24 11.5 -36.5t31.5 -12.5q9 0 20 2.5t21 8.5zM241 550h-16l73 181h22z" />
    <glyph glyph-name="Tbar" unicode="&#x166;" horiz-adv-x="304" 
d="M213 527l-93 -527h-22l92 527h-77l3 18h77l26 143h-140l4 20h302l-4 -20h-140l-25 -143h85l-3 -18h-85z" />
    <glyph glyph-name="tbar" unicode="&#x167;" horiz-adv-x="216" 
d="M116 270l-29 -162q-2 -11 -3.5 -24t-1.5 -21q0 -24 11.5 -36.5t31.5 -12.5q9 0 20 2.5t21 8.5l4 -18q-24 -12 -47 -12q-32 0 -47.5 18t-15.5 49q0 11 1.5 22.5t3.5 23.5l28 162h-53l4 18h52l32 176h-65l2 19h65l25 142h22l-25 -142h88l-2 -19h-88l-31 -176h70l-4 -18h-69
z" />
    <glyph glyph-name="Utilde" unicode="&#x168;" horiz-adv-x="532" 
d="M451 259q-10 -58 -24.5 -108.5t-39.5 -87.5t-62.5 -58t-92.5 -21q-80 0 -117.5 47t-37.5 124q0 24 2.5 50t7.5 54l78 449h22l-76 -438q-5 -29 -8.5 -60t-3.5 -53q0 -32 7 -60t22.5 -48.5t40.5 -32.5t62 -12q53 0 88 23t57 60.5t34 85t21 97.5l76 438h22zM369 838
q21 -17 29.5 -20.5t19.5 -3.5q16 0 25.5 11.5t17.5 36.5h15q-9 -36 -26.5 -51.5t-35.5 -15.5q-14 0 -25 5t-29 19q-20 17 -28.5 20.5t-19.5 3.5q-29 0 -44 -51h-15q9 36 26.5 53t35.5 17q14 0 25.5 -5t28.5 -19z" />
    <glyph glyph-name="utilde" unicode="&#x169;" 
d="M299 106q-8 -21 -21 -43t-31 -39.5t-40 -28.5t-48 -11q-29 0 -48 10.5t-30 27t-16 37.5t-5 42q0 30 6 62l56 320h22l-56 -320q-6 -32 -6 -62q0 -18 4 -35t13 -31t24 -22.5t37 -8.5q32 0 58.5 18.5t46.5 47.5t33 64.5t18 68.5l49 280h22l-63 -361q-2 -12 -4.5 -28.5
t-5 -33.5t-4.5 -33.5t-3 -26.5h-22q2 20 6.5 51t9.5 55h-2zM283 638q22 -17 30 -20.5t19 -3.5q16 0 26 11.5t18 36.5h15q-10 -36 -27 -51.5t-35 -15.5q-14 0 -25 5t-29 19q-20 17 -29 20.5t-20 3.5q-16 0 -26 -13t-18 -38h-15q10 36 27.5 53t35.5 17q14 0 25 -5t28 -19z" />
    <glyph glyph-name="Umacron" unicode="&#x16a;" horiz-adv-x="532" 
d="M451 259q-10 -58 -24.5 -108.5t-39.5 -87.5t-62.5 -58t-92.5 -21q-80 0 -117.5 47t-37.5 124q0 24 2.5 50t7.5 54l78 449h22l-76 -438q-5 -29 -8.5 -60t-3.5 -53q0 -32 7 -60t22.5 -48.5t40.5 -32.5t62 -12q53 0 88 23t57 60.5t34 85t21 97.5l76 438h22zM259 821l3 20
h208l-3 -20h-208z" />
    <glyph glyph-name="umacron" unicode="&#x16b;" 
d="M299 106q-8 -21 -21 -43t-31 -39.5t-40 -28.5t-48 -11q-29 0 -48 10.5t-30 27t-16 37.5t-5 42q0 30 6 62l56 320h22l-56 -320q-6 -32 -6 -62q0 -18 4 -35t13 -31t24 -22.5t37 -8.5q32 0 58.5 18.5t46.5 47.5t33 64.5t18 68.5l49 280h22l-63 -361q-2 -12 -4.5 -28.5
t-5 -33.5t-4.5 -33.5t-3 -26.5h-22q2 20 6.5 51t9.5 55h-2zM174 621l4 20h208l-4 -20h-208z" />
    <glyph glyph-name="Ubreve" unicode="&#x16c;" horiz-adv-x="532" 
d="M451 259q-10 -58 -24.5 -108.5t-39.5 -87.5t-62.5 -58t-92.5 -21q-80 0 -117.5 47t-37.5 124q0 24 2.5 50t7.5 54l78 449h22l-76 -438q-5 -29 -8.5 -60t-3.5 -53q0 -32 7 -60t22.5 -48.5t40.5 -32.5t62 -12q53 0 88 23t57 60.5t34 85t21 97.5l76 438h22zM479 898
q-17 -61 -51 -93.5t-79 -32.5q-44 0 -70 32.5t-26 93.5h18q0 -52 21 -79t56 -27q40 0 69 25t44 81h18z" />
    <glyph glyph-name="ubreve" unicode="&#x16d;" 
d="M299 106q-8 -21 -21 -43t-31 -39.5t-40 -28.5t-48 -11q-29 0 -48 10.5t-30 27t-16 37.5t-5 42q0 30 6 62l56 320h22l-56 -320q-6 -32 -6 -62q0 -18 4 -35t13 -31t24 -22.5t37 -8.5q32 0 58.5 18.5t46.5 47.5t33 64.5t18 68.5l49 280h22l-63 -361q-2 -12 -4.5 -28.5
t-5 -33.5t-4.5 -33.5t-3 -26.5h-22q2 20 6.5 51t9.5 55h-2zM393 698q-17 -61 -51 -93.5t-79 -32.5q-44 0 -70 32.5t-26 93.5h18q0 -52 21 -79t56 -27q40 0 69 25t44 81h18z" />
    <glyph glyph-name="Uring" unicode="&#x16e;" horiz-adv-x="532" 
d="M451 259q-10 -58 -24.5 -108.5t-39.5 -87.5t-62.5 -58t-92.5 -21q-80 0 -117.5 47t-37.5 124q0 24 2.5 50t7.5 54l78 449h22l-76 -438q-5 -29 -8.5 -60t-3.5 -53q0 -32 7 -60t22.5 -48.5t40.5 -32.5t62 -12q53 0 88 23t57 60.5t34 85t21 97.5l76 438h22zM450 865
q0 -48 -27 -79t-67 -31q-33 0 -53.5 19.5t-20.5 58.5q0 48 27 80t66 32t57 -24t18 -56zM430 863q0 26 -13.5 45.5t-42.5 19.5q-30 0 -51 -26.5t-21 -66.5q0 -32 15.5 -47.5t39.5 -15.5q31 0 52 25.5t21 65.5z" />
    <glyph glyph-name="uring" unicode="&#x16f;" 
d="M299 106q-8 -21 -21 -43t-31 -39.5t-40 -28.5t-48 -11q-29 0 -48 10.5t-30 27t-16 37.5t-5 42q0 30 6 62l56 320h22l-56 -320q-6 -32 -6 -62q0 -18 4 -35t13 -31t24 -22.5t37 -8.5q32 0 58.5 18.5t46.5 47.5t33 64.5t18 68.5l49 280h22l-63 -361q-2 -12 -4.5 -28.5
t-5 -33.5t-4.5 -33.5t-3 -26.5h-22q2 20 6.5 51t9.5 55h-2zM361 665q0 -48 -27 -79t-67 -31q-33 0 -53.5 19.5t-20.5 58.5q0 48 27 80t66 32t57 -24t18 -56zM341 663q0 26 -13.5 45.5t-42.5 19.5q-30 0 -51 -26.5t-21 -66.5q0 -32 15.5 -47.5t39.5 -15.5q31 0 52 25.5
t21 65.5z" />
    <glyph glyph-name="Uhungarumlaut" unicode="&#x170;" horiz-adv-x="532" 
d="M451 259q-10 -58 -24.5 -108.5t-39.5 -87.5t-62.5 -58t-92.5 -21q-80 0 -117.5 47t-37.5 124q0 24 2.5 50t7.5 54l78 449h22l-76 -438q-5 -29 -8.5 -60t-3.5 -53q0 -32 7 -60t22.5 -48.5t40.5 -32.5t62 -12q53 0 88 23t57 60.5t34 85t21 97.5l76 438h22zM303 763h-17
l118 145h24zM408 763h-17l118 145h24z" />
    <glyph glyph-name="uhungarumlaut" unicode="&#x171;" 
d="M299 106q-8 -21 -21 -43t-31 -39.5t-40 -28.5t-48 -11q-29 0 -48 10.5t-30 27t-16 37.5t-5 42q0 30 6 62l56 320h22l-56 -320q-6 -32 -6 -62q0 -18 4 -35t13 -31t24 -22.5t37 -8.5q32 0 58.5 18.5t46.5 47.5t33 64.5t18 68.5l49 280h22l-63 -361q-2 -12 -4.5 -28.5
t-5 -33.5t-4.5 -33.5t-3 -26.5h-22q2 20 6.5 51t9.5 55h-2zM217 563h-19l119 145h26zM322 563h-19l119 145h26z" />
    <glyph glyph-name="Uogonek" unicode="&#x172;" horiz-adv-x="532" 
d="M271 -192q-16 -14 -36.5 -22.5t-41.5 -8.5q-29 0 -47 15.5t-18 48.5q0 21 8 39.5t21 36t29.5 34t34.5 33.5q-75 4 -109.5 50t-34.5 121q0 24 2.5 50t7.5 54l78 449h22l-76 -438q-5 -29 -8.5 -60t-3.5 -53q0 -32 7 -60t22.5 -48.5t40.5 -32.5t62 -12q53 0 88 23t57 60.5
t34 85t21 97.5l76 438h22l-78 -449q-10 -57 -24.5 -106t-37.5 -85.5t-58 -58.5t-87 -25q-22 -21 -39.5 -38t-29.5 -33t-18.5 -32t-6.5 -36q0 -50 48 -50q19 0 36.5 8t30.5 21z" />
    <glyph glyph-name="uogonek" unicode="&#x173;" 
d="M318 -192q-16 -14 -36.5 -22.5t-41.5 -8.5q-29 0 -47 15.5t-18 48.5q0 23 9.5 43.5t25.5 40t35.5 38t39.5 37.5q2 20 6.5 51t9.5 55h-2q-8 -21 -21 -43t-31 -39.5t-40 -28.5t-48 -11q-29 0 -48 10.5t-30 27t-16 37.5t-5 42q0 30 6 62l56 320h22l-56 -320q-6 -32 -6 -62
q0 -18 4 -35t13 -31t24 -22.5t37 -8.5q32 0 58.5 18.5t46.5 47.5t33 64.5t18 68.5l49 280h22l-63 -361q-2 -12 -4.5 -28.5t-5 -33.5t-4.5 -33.5t-3 -26.5q-26 -26 -46 -45t-34.5 -36.5t-22 -35t-7.5 -38.5q0 -50 48 -50q19 0 36.5 8t30.5 21z" />
    <glyph glyph-name="Wcircumflex" unicode="&#x174;" horiz-adv-x="692" 
d="M479 0h-37l-20 683h-1l-257 -683h-37l-23 708h22l22 -688h2l260 688h33l21 -688h2l264 688h22zM471 908l67 -144h-19l-62 132l-108 -132h-21l117 144h26z" />
    <glyph glyph-name="wcircumflex" unicode="&#x175;" horiz-adv-x="514" 
d="M345 0h-32l-18 456h-1l-180 -456h-32l-8 483h21l7 -458h1l181 458h29l19 -460h1l170 460h22zM359 708l66 -144h-19l-61 132l-109 -132h-21l118 144h26z" />
    <glyph glyph-name="Ycircumflex" unicode="&#x176;" horiz-adv-x="379" 
d="M209 310l-55 -310h-21l55 310l-103 398h23l94 -372l229 372h24zM326 908l67 -144h-19l-62 132l-108 -132h-21l117 144h26z" />
    <glyph glyph-name="ycircumflex" unicode="&#x177;" horiz-adv-x="325" 
d="M74 -146q-22 -50 -42.5 -72t-56.5 -22q-8 0 -17.5 1.5t-15.5 4.5l4 20q5 -2 14 -4t17 -2q32 0 49.5 26t34.5 68l47 115l-44 494h22l38 -460h2l195 460h23zM264 708l66 -144h-19l-61 132l-109 -132h-21l118 144h26z" />
    <glyph glyph-name="Ydieresis" unicode="&#x178;" horiz-adv-x="379" 
d="M209 310l-55 -310h-21l55 310l-103 398h23l94 -372l229 372h24zM351 833q-9 0 -14 6t-5 15q0 11 6.5 20.5t17.5 9.5q10 0 14.5 -6.5t4.5 -14.5q0 -13 -7 -21.5t-17 -8.5zM232 833q-9 0 -13.5 6t-4.5 15q0 11 6 20.5t18 9.5q9 0 13.5 -6.5t4.5 -14.5q0 -13 -7 -21.5
t-17 -8.5z" />
    <glyph glyph-name="Zacute" unicode="&#x179;" horiz-adv-x="362" 
d="M-7 0l4 24l391 664h-270l4 20h290l-5 -27l-388 -661h277l-4 -20h-299zM250 764h-19l119 144h26z" />
    <glyph glyph-name="zacute" unicode="&#x17a;" horiz-adv-x="298" 
d="M-18 0l4 22l297 441h-204l3 20h227l-4 -23l-295 -440h225l-4 -20h-249zM180 564h-19l119 144h26z" />
    <glyph glyph-name="Zdotaccent" unicode="&#x17b;" horiz-adv-x="362" 
d="M-7 0l4 24l391 664h-270l4 20h290l-5 -27l-388 -661h277l-4 -20h-299zM283 833q-19 0 -19 22q0 11 6.5 21t18.5 10q10 0 14.5 -6.5t4.5 -15.5q0 -13 -7 -22t-18 -9z" />
    <glyph glyph-name="zdotaccent" unicode="&#x17c;" horiz-adv-x="298" 
d="M-18 0l4 22l297 441h-204l3 20h227l-4 -23l-295 -440h225l-4 -20h-249zM212 633q-19 0 -19 22q0 11 6.5 21t18.5 10q10 0 14.5 -6.5t4.5 -15.5q0 -13 -7 -22t-18 -9z" />
    <glyph glyph-name="Zcaron" unicode="&#x17d;" horiz-adv-x="362" 
d="M-7 0l4 24l391 664h-270l4 20h290l-5 -27l-388 -661h277l-4 -20h-299zM258 764l-67 144h20l62 -132l108 132h20l-117 -144h-26z" />
    <glyph glyph-name="zcaron" unicode="&#x17e;" horiz-adv-x="298" 
d="M-18 0l4 22l297 441h-204l3 20h227l-4 -23l-295 -440h225l-4 -20h-249zM191 564l-66 144h20l61 -132l108 132h21l-118 -144h-26z" />
    <glyph glyph-name="florin" unicode="&#x192;" horiz-adv-x="438" 
d="M457 683q-7 8 -19 13t-26 5q-24 0 -40.5 -10t-28 -26t-19.5 -36t-15 -40l-62 -181h107l-3 -19h-110l-139 -409q-9 -28 -18.5 -50.5t-22.5 -39t-30 -25.5t-41 -9q-11 0 -21.5 2.5t-18.5 7.5l9 19q7 -4 14.5 -6.5t15.5 -2.5q21 0 36 9.5t26.5 27t20 41t17.5 51.5l130 384
h-99l3 19h102l58 173q9 27 19.5 52t25.5 44.5t35.5 31t49.5 11.5q40 0 57 -19z" />
    <glyph glyph-name="Scommaaccent" unicode="&#x218;" horiz-adv-x="418" 
d="M174 -16q-51 0 -91 22.5t-65 60.5l18 15q23 -37 60 -57.5t78 -20.5q33 0 62.5 13.5t51 38t34.5 58t13 74.5q0 30 -9.5 55t-25 45.5t-35 37t-38.5 28.5q-22 14 -42.5 30.5t-36.5 37t-25.5 45.5t-9.5 57q0 44 14.5 80.5t39.5 63t58 41.5t70 15q43 0 76.5 -15t54.5 -49
l-16 -13q-21 32 -50 44.5t-67 12.5q-28 0 -56 -11.5t-51 -34.5t-37.5 -56.5t-14.5 -76.5q0 -28 8.5 -50.5t22.5 -40.5t31.5 -32t35.5 -26q24 -16 46.5 -34t40 -40t28 -49.5t10.5 -61.5q0 -47 -14.5 -85t-39.5 -65t-58.5 -42t-70.5 -15zM108 -226h-16l73 181h22z" />
    <glyph glyph-name="scommaaccent" unicode="&#x219;" horiz-adv-x="308" 
d="M108 -16q-42 0 -70 19.5t-42 52.5l18 12q14 -30 36.5 -47t57.5 -17q25 0 46 10t36.5 28t24 42t8.5 52q0 22 -7.5 39t-19 30t-25.5 22.5t-26 16.5q-28 17 -49 41.5t-21 68.5q0 30 10 56.5t27.5 46t41.5 31t51 11.5q40 0 64.5 -17.5t37.5 -42.5l-17 -13q-14 25 -34 39
t-52 14q-24 0 -43.5 -10.5t-33.5 -27.5t-22 -40t-8 -48q0 -34 17 -55t46 -38q15 -9 30.5 -20.5t27.5 -26.5t19.5 -34t7.5 -42q0 -32 -9.5 -60t-27.5 -48.5t-43.5 -32.5t-56.5 -12zM41 -226h-16l73 181h22z" />
    <glyph glyph-name="uni021A" unicode="&#x21a;" horiz-adv-x="304" 
d="M241 688l-121 -688h-22l121 688h-140l4 20h302l-4 -20h-140zM52 -226h-16l73 181h22z" />
    <glyph glyph-name="uni021B" unicode="&#x21b;" horiz-adv-x="216" 
d="M170 7q-24 -12 -47 -12q-32 0 -47.5 18t-15.5 49q0 11 1.5 22.5t3.5 23.5l63 356h-65l2 19h65l25 142h22l-25 -142h88l-2 -19h-88l-63 -356q-2 -11 -3.5 -24t-1.5 -21q0 -24 11.5 -36.5t31.5 -12.5q9 0 20 2.5t21 8.5zM44 -226h-16l73 181h22z" />
    <glyph glyph-name="circumflex" unicode="&#x2c6;" horiz-adv-x="198" 
d="M194 708l66 -144h-19l-61 132l-109 -132h-21l118 144h26z" />
    <glyph glyph-name="caron" unicode="&#x2c7;" horiz-adv-x="198" 
d="M142 564l-66 144h20l61 -132l108 132h21l-118 -144h-26z" />
    <glyph glyph-name="uni02C9" unicode="&#x2c9;" horiz-adv-x="198" 
d="M97 821l3 20h208l-3 -20h-208z" />
    <glyph glyph-name="breve" unicode="&#x2d8;" horiz-adv-x="198" 
d="M292 698q-17 -61 -51 -93.5t-79 -32.5q-44 0 -70 32.5t-26 93.5h18q0 -52 21 -79t56 -27q40 0 69 25t44 81h18v0z" />
    <glyph glyph-name="dotaccent" unicode="&#x2d9;" horiz-adv-x="198" 
d="M169 633q-19 0 -19 22q0 11 6.5 21t18.5 10q10 0 14.5 -6.5t4.5 -15.5q0 -13 -7 -22t-18 -9z" />
    <glyph glyph-name="ring" unicode="&#x2da;" horiz-adv-x="198" 
d="M254 665q0 -48 -27 -79t-67 -31q-33 0 -53.5 19.5t-20.5 58.5q0 48 27 80t66 32t57 -24t18 -56zM234 663q0 26 -13.5 45.5t-42.5 19.5q-30 0 -51 -26.5t-21 -66.5q0 -32 15.5 -47.5t39.5 -15.5q31 0 52 25.5t21 65.5z" />
    <glyph glyph-name="ogonek" unicode="&#x2db;" horiz-adv-x="198" 
d="M97 -192q-16 -14 -36.5 -22.5t-41.5 -8.5q-29 0 -47 15.5t-18 48.5q0 23 9.5 43.5t25.5 40t35.5 38t39.5 37.5h22q-26 -26 -46 -45t-34.5 -36.5t-22 -35t-7.5 -38.5q0 -50 48 -50q19 0 36.5 8t30.5 21z" />
    <glyph glyph-name="tilde" unicode="&#x2dc;" horiz-adv-x="198" 
d="M169 638q22 -17 30 -20.5t19 -3.5q16 0 26 11.5t18 36.5h15q-10 -36 -27 -51.5t-35 -15.5q-14 0 -25 5t-29 19q-20 17 -29 20.5t-20 3.5q-16 0 -26 -13t-18 -38h-15q10 36 27.5 53t35.5 17q14 0 25 -5t28 -19z" />
    <glyph glyph-name="hungarumlaut" unicode="&#x2dd;" horiz-adv-x="198" 
d="M81 563h-19l119 145h26zM186 563h-19l119 145h26z" />
    <glyph glyph-name="uni0394" unicode="&#x394;" horiz-adv-x="657" 
d="M-13 0l426 712h29l126 -712h-581zM424 693l-403 -673h523z" />
    <glyph glyph-name="uni03A9" unicode="&#x3a9;" horiz-adv-x="738" 
d="M463 701q-57 0 -112 -21.5t-100.5 -59.5t-78 -89.5t-45.5 -111.5q-4 -19 -6 -36.5t-2 -34.5q0 -35 8.5 -66t26 -56t44 -42t62.5 -24l-34 -160h-210l4 20h192l26 122q-70 21 -105.5 77t-35.5 130q0 32 8 70q13 64 48.5 119.5t85 96t108.5 63.5t120 23q54 0 98.5 -17.5
t76.5 -49t49.5 -75t17.5 -95.5q0 -33 -7 -65q-10 -48 -32.5 -92t-55 -81t-74 -64t-89.5 -40l-26 -122h192l-4 -20h-210l34 160q49 9 89 33t71 59t52 77.5t31 89.5q7 31 7 62q0 48 -16.5 88.5t-46 69.5t-70.5 45.5t-91 16.5z" />
    <glyph glyph-name="uni03BC" unicode="&#x3bc;" horiz-adv-x="556" 
d="M163 460l-58 -276q-3 -14 -5 -29t-2 -30q0 -23 5.5 -44.5t18.5 -38.5t34.5 -27t54.5 -10q38 0 74.5 15.5t67 44.5t54 70.5t34.5 94.5l49 230h22l-73 -344q-2 -11 -5 -27t-6 -32.5t-6 -31.5t-4 -25h-24l25 121h-2q-35 -65 -92.5 -100t-117.5 -35q-57 0 -87 24t-39 62
l-64 -300h-22l146 688h22z" />
    <glyph glyph-name="pi" unicode="&#x3c0;" horiz-adv-x="556" 
d="M456 5q-12 -5 -26 -7.5t-25 -2.5q-20 0 -30 6.5t-12 19.5t1 31.5t8 42.5l73 345h-266l-93 -440h-22l93 440h-71l4 20h457l-4 -20h-76l-76 -357q-8 -36 -2 -53.5t36 -17.5q7 0 16 1t17 3l-2 -11v0z" />
    <glyph glyph-name="endash" unicode="&#x2013;" horiz-adv-x="358" 
d="M23 244l4 20h312l-4 -20h-312z" />
    <glyph glyph-name="emdash" unicode="&#x2014;" horiz-adv-x="458" 
d="M23 244l4 20h412l-4 -20h-412z" />
    <glyph glyph-name="quoteleft" unicode="&#x2018;" horiz-adv-x="159" 
d="M179 708h17l-79 -228h-23z" />
    <glyph glyph-name="quoteright" unicode="&#x2019;" horiz-adv-x="159" 
d="M111 480h-17l79 228h23z" />
    <glyph glyph-name="quotesinglbase" unicode="&#x201a;" horiz-adv-x="159" 
d="M-4 -138h-16l73 228h22z" />
    <glyph glyph-name="quotedblleft" unicode="&#x201c;" horiz-adv-x="264" 
d="M179 708h17l-79 -228h-23zM284 708h17l-79 -228h-23z" />
    <glyph glyph-name="quotedblright" unicode="&#x201d;" horiz-adv-x="264" 
d="M216 480h-17l79 228h23zM111 480h-17l79 228h23z" />
    <glyph glyph-name="quotedblbase" unicode="&#x201e;" horiz-adv-x="264" 
d="M-3 -138h-17l73 228h23zM100 -138h-16l73 228h23z" />
    <glyph glyph-name="dagger" unicode="&#x2020;" horiz-adv-x="364" 
d="M235 481l-107 -607h-22l107 607h-148l3 20h148l37 207h22l-37 -207h148l-3 -20h-148z" />
    <glyph glyph-name="daggerdbl" unicode="&#x2021;" horiz-adv-x="364" 
d="M65 481l3 20h149l37 207h22l-37 -207h147l-3 -20h-147l-67 -380h147l-4 -20h-147l-36 -207h-22l36 207h-149l4 20h149l67 380h-149z" />
    <glyph glyph-name="bullet" unicode="&#x2022;" horiz-adv-x="500" 
d="M73 354q0 37 14 69t38 56t56 38t69 14t69 -14t56 -38t38 -56t14 -69t-14 -69t-38 -56t-56 -38t-69 -14t-69 14t-56 38t-38 56t-14 69z" />
    <glyph glyph-name="ellipsis" unicode="&#x2026;" horiz-adv-x="898" 
d="M121 -7q-20 0 -20 22q0 11 7 21t19 10q11 0 15.5 -6.5t4.5 -15.5q0 -13 -7.5 -22t-18.5 -9zM721 -7q-20 0 -20 22q0 11 7 21t19 10q11 0 15.5 -6.5t4.5 -15.5q0 -13 -7.5 -22t-18.5 -9zM421 -7q-20 0 -20 22q0 11 7 21t19 10q11 0 15.5 -6.5t4.5 -15.5q0 -13 -7.5 -22
t-18.5 -9z" />
    <glyph glyph-name="perthousand" unicode="&#x2030;" horiz-adv-x="798" 
d="M232 724q39 0 58.5 -30t19.5 -81q0 -38 -9.5 -78t-26.5 -72.5t-41 -53t-53 -20.5q-38 0 -57.5 30t-19.5 81q0 39 9 78.5t26 72t40.5 53t53.5 20.5zM231 706q-26 0 -45.5 -20.5t-33 -51.5t-20.5 -67.5t-7 -69.5q0 -40 13.5 -65t42.5 -25q25 0 45 20.5t33.5 51.5t21 67.5
t7.5 68.5q0 41 -14 66t-43 25zM430 323q39 0 58.5 -30t19.5 -81q0 -38 -9.5 -78t-26.5 -72.5t-41 -53t-53 -20.5q-38 0 -57.5 30t-19.5 81q0 39 9 78.5t26 72t40.5 53t53.5 20.5zM429 305q-26 0 -45.5 -20.5t-33 -51.5t-20.5 -67.5t-7 -69.5q0 -40 13.5 -65t42.5 -25
q25 0 45 20.5t33.5 51.5t21 67.5t7.5 68.5q0 41 -14 66t-43 25zM680 323q39 0 58.5 -30t19.5 -81q0 -38 -9.5 -78t-26.5 -72.5t-41 -53t-53 -20.5q-38 0 -57.5 30t-19.5 81q0 39 9 78.5t26 72t40.5 53t53.5 20.5zM679 305q-26 0 -45.5 -20.5t-33 -51.5t-20.5 -67.5t-7 -69.5
q0 -40 13.5 -65t42.5 -25q25 0 45 20.5t33.5 51.5t21 67.5t7.5 68.5q0 41 -14 66t-43 25zM115 -24l-18 8l394 752l18 -8z" />
    <glyph glyph-name="guilsinglleft" unicode="&#x2039;" horiz-adv-x="199" 
d="M173 436l14 -12l-121 -187l55 -187l-18 -7l-59 196z" />
    <glyph glyph-name="guilsinglright" unicode="&#x203a;" horiz-adv-x="199" 
d="M24 43l-14 12l121 187l-55 187l18 7l59 -196z" />
    <glyph glyph-name="fraction" unicode="&#x2044;" horiz-adv-x="4" 
d="M-250 -28l-8 12l397 752l8 -12z" />
    <glyph glyph-name="Euro" unicode="&#x20ac;" horiz-adv-x="438" 
d="M475 691q-12 7 -32.5 12t-48.5 5q-80 0 -145 -68t-107 -196h234l-8 -19h-232q-10 -32 -16.5 -69.5t-10.5 -71.5h211l-7 -19h-205q-5 -78 7 -129t35 -81t54 -42.5t63 -12.5q29 0 55.5 7.5t54.5 25.5l6 -19q-25 -16 -55 -25t-62 -9q-42 0 -77.5 15.5t-60 49.5t-36 88.5
t-6.5 131.5h-56l7 19h51q3 32 10 70t16 71h-54l7 19h52q47 142 118.5 213t159.5 71q29 0 52 -5.5t36 -11.5l-10 -20v0z" />
    <glyph glyph-name="afii61289" unicode="&#x2113;" horiz-adv-x="500" 
d="M233 -14q-32 0 -56.5 16.5t-24.5 60.5q0 19 4 38l35 164l-76 -71h-2l-8 10l91 83l58 274q9 42 23 72t31 49.5t36 29t38 9.5q28 0 44.5 -19.5t16.5 -55.5q0 -19 -4 -38q-15 -72 -74.5 -155.5t-152.5 -171.5l-37 -177q-2 -10 -3 -18.5t-1 -16.5q0 -20 6 -32.5t16 -20
t21.5 -10.5t23.5 -3q22 0 47 9.5t50 30.5h2l6 -11q-27 -23 -55.5 -34.5t-54.5 -11.5zM421 605q2 9 3 17.5t1 16.5q0 31 -13.5 48t-33.5 17q-14 0 -29.5 -8t-29.5 -25t-26.5 -44t-20.5 -66l-55 -258q40 39 74.5 79t61 79t44 75.5t24.5 68.5z" />
    <glyph glyph-name="trademark" unicode="&#x2122;" horiz-adv-x="760" 
d="M665 296v391h-1l-126 -391h-10l-123 391h-2v-391h-20v412h35l116 -373l116 373h35v-412h-20zM210 689v-393h-21v393h-96v19h215v-19h-98z" />
    <glyph glyph-name="Omega" unicode="&#x2126;" horiz-adv-x="738" 
d="M463 701q-57 0 -112 -21.5t-100.5 -59.5t-78 -89.5t-45.5 -111.5q-4 -19 -6 -36.5t-2 -34.5q0 -35 8.5 -66t26 -56t44 -42t62.5 -24l-34 -160h-210l4 20h192l26 122q-70 21 -105.5 77t-35.5 130q0 32 8 70q13 64 48.5 119.5t85 96t108.5 63.5t120 23q54 0 98.5 -17.5
t76.5 -49t49.5 -75t17.5 -95.5q0 -33 -7 -65q-10 -48 -32.5 -92t-55 -81t-74 -64t-89.5 -40l-26 -122h192l-4 -20h-210l34 160q49 9 89 33t71 59t52 77.5t31 89.5q7 31 7 62q0 48 -16.5 88.5t-46 69.5t-70.5 45.5t-91 16.5z" />
    <glyph glyph-name="estimated" unicode="&#x212e;" horiz-adv-x="800" 
d="M595 402v193q-82 79 -194 79t-191 -79v-193h385zM210 355v-240q76 -78 192 -78q83 0 144 37.5t112 121.5l46 -28q-30 -48 -61.5 -82t-67.5 -55.5t-78.5 -32t-94.5 -10.5q-78 0 -141 28.5t-108 78.5t-69 116.5t-24 143.5t24 143.5t69 116t108 77.5t141 28q76 0 139.5 -27
t108.5 -75.5t70 -115.5t25 -147h-535z" />
    <glyph glyph-name="partialdiff" unicode="&#x2202;" horiz-adv-x="475" 
d="M401 298q1 22 1.5 41t0.5 41q0 78 -14.5 138.5t-41 102t-63.5 63t-81 21.5q-34 0 -59 -10t-51 -30l-11 16q28 23 56.5 33.5t62.5 10.5q60 0 102 -27t68.5 -74.5t39 -113.5t12.5 -144q0 -111 -17 -178.5t-40 -109.5q-30 -54 -66.5 -74.5t-81.5 -20.5q-39 0 -71.5 17
t-56 47t-37 70t-13.5 86q0 52 14 91.5t38 66t56 39.5t68 13q59 0 108 -31.5t77 -83.5zM397 276q-31 51 -76.5 83.5t-101.5 32.5q-39 0 -68 -16t-48.5 -42.5t-29 -60.5t-9.5 -69q0 -33 9.5 -68t29 -64.5t48.5 -48t68 -18.5q50 0 83.5 28.5t53.5 70t29.5 88.5t11.5 84z" />
    <glyph glyph-name="Delta" unicode="&#x2206;" horiz-adv-x="657" 
d="M-13 0l426 712h29l126 -712h-581zM424 693l-403 -673h523z" />
    <glyph glyph-name="product" unicode="&#x220f;" horiz-adv-x="704" 
d="M590 -214v980h-476v-980h-22v1000h520v-1000h-22z" />
    <glyph glyph-name="summation" unicode="&#x2211;" horiz-adv-x="593" 
d="M45 -214v22l339 481l-325 475v22h478v-20h-452l330 -477l-342 -483h475v-20h-503z" />
    <glyph glyph-name="minus" unicode="&#x2212;" horiz-adv-x="666" 
d="M100 297v19h466v-19h-466z" />
    <glyph glyph-name="uni2215" unicode="&#x2215;" horiz-adv-x="4" 
d="M-250 -28l-8 12l397 752l8 -12z" />
    <glyph glyph-name="uni2219" unicode="&#x2219;" horiz-adv-x="188" 
d="M95 231q-9 0 -15 7t-4 19q2 11 10.5 18t17.5 7t14.5 -7t3.5 -18q-2 -12 -10.5 -19t-16.5 -7z" />
    <glyph glyph-name="radical" unicode="&#x221a;" horiz-adv-x="475" 
d="M230 -215l-168 368l-62 -30l-8 20l81 37l170 -373l205 979h22l-209 -1001h-31z" />
    <glyph glyph-name="infinity" unicode="&#x221e;" horiz-adv-x="722" 
d="M370 234q-17 -20 -38.5 -41t-45 -38.5t-47.5 -29t-47 -11.5q-52 0 -85.5 37t-33.5 97t33.5 96.5t85.5 36.5q23 0 47 -11.5t47.5 -29t45 -39t38.5 -41.5q17 20 38.5 41.5t45 39t47.5 29t47 11.5q52 0 85.5 -36.5t33.5 -96.5t-33.5 -97t-85.5 -37q-23 0 -47 11.5t-47.5 29
t-45 38.5t-38.5 41zM382 246q29 -31 52 -52.5t42.5 -35t37 -20t34.5 -6.5q24 0 42.5 9.5t31 25.5t19 36.5t6.5 42.5q0 23 -6.5 44.5t-19 37.5t-31 25.5t-42.5 9.5q-17 0 -34.5 -6.5t-37 -21t-43 -36.5t-51.5 -53zM358 246q-57 62 -94.5 89.5t-71.5 27.5q-24 0 -42.5 -9.5
t-31 -25.5t-19 -37.5t-6.5 -44.5q0 -22 6.5 -42.5t19 -36.5t31 -25.5t42.5 -9.5q17 0 34.5 6.5t37 20t42.5 35t52 52.5z" />
    <glyph glyph-name="integral" unicode="&#x222b;" horiz-adv-x="535" 
d="M258 71q0 -41 -0.5 -69.5t-1 -48.5t-2 -33t-2.5 -22q-8 -48 -30.5 -75t-58.5 -27q-19 0 -32 7.5t-13 22.5q0 10 6.5 15t13.5 5t12.5 -6t9.5 -14q5 -11 20 -11q25 0 40.5 43.5t15.5 131.5v509q0 40 0.5 69t1 49t1.5 33t3 22q8 48 30.5 75t58.5 27q19 0 32 -7.5t13 -22.5
q0 -10 -6.5 -15t-13.5 -5t-12.5 6t-9.5 14q-5 11 -20 11q-25 0 -40.5 -43t-15.5 -129v-512v0z" />
    <glyph glyph-name="approxequal" unicode="&#x2248;" horiz-adv-x="666" 
d="M437 328q27 0 45.5 7.5t30 20t17.5 28.5t9 33h18q-2 -21 -9.5 -40.5t-22 -35t-36.5 -25t-53 -9.5q-33 0 -69.5 11t-72.5 23.5t-69.5 23.5t-60.5 11q-29 0 -48 -7.5t-31 -19.5t-18 -28t-9 -33h-18q2 21 9.5 40.5t21.5 34.5t35.5 24.5t51.5 9.5q33 0 69.5 -11t73.5 -23.5
t72 -23.5t64 -11zM437 140q27 0 45.5 7.5t30 20t17.5 28.5t9 33h18q-2 -21 -9.5 -40.5t-22 -35t-36.5 -25t-53 -9.5q-33 0 -69.5 11t-72.5 23.5t-69.5 23.5t-60.5 11q-29 0 -48 -7.5t-31 -19.5t-18 -28t-9 -33h-18q2 21 9.5 40.5t21.5 34.5t35.5 24.5t51.5 9.5
q33 0 69.5 -11t73.5 -23.5t72 -23.5t64 -11z" />
    <glyph glyph-name="notequal" unicode="&#x2260;" horiz-adv-x="666" 
d="M100 380v19h261l73 147l18 -8l-69 -139h183v-19h-192l-75 -152h267v-19h-277l-85 -172l-17 9l81 163h-168v19h177l75 152h-252z" />
    <glyph glyph-name="lessequal" unicode="&#x2264;" horiz-adv-x="666" 
d="M100 0v20h466v-20h-466zM100 291v24l466 224v-20l-454 -216l454 -216v-20z" />
    <glyph glyph-name="greaterequal" unicode="&#x2265;" horiz-adv-x="666" 
d="M100 20h466v-20h-466v20zM100 87l454 216l-454 216v20l466 -224v-24l-466 -224v20z" />
    <glyph glyph-name="lozenge" unicode="&#x25ca;" horiz-adv-x="593" 
d="M307 -35h-24l-161 391l161 391h24l163 -391zM295 733l-151 -377l151 -377l151 377z" />
    <glyph glyph-name="dotlessj" unicode="&#xf6be;" horiz-adv-x="192" 
d="M-57 -240q-20 0 -34 7l3 19q5 -2 13.5 -4t17.5 -2q22 0 36.5 10t23.5 26.5t14 38.5t9 45l102 583h22l-102 -583q-12 -69 -34 -104.5t-71 -35.5z" />
    <glyph glyph-name="commaaccent" unicode="&#xf6c3;" horiz-adv-x="198" 
d="M1 -226h-16l73 181h22z" />
    <glyph glyph-name="uniF8FF" unicode="&#xf8ff;" horiz-adv-x="512" 
d="M222 117v67h56v-67h-56zM225 234l-2 17q0 56 13 81q7 13 18 27.5t28 31.5q16 15 26 26.5t15 21t7 18t2 17.5q0 36 -22.5 60.5t-53.5 24.5t-53.5 -22t-28.5 -73l-50 8q7 72 44 104.5t91 32.5t89 -35.5t35 -95.5q0 -32 -12.5 -58.5t-50.5 -61.5q-37 -33 -43 -52
q-6 -20 -6 -72h-46zM462 50v617h-412v-617h412zM512 718v-718h-512v718h512z" />
    <glyph glyph-name="fi" unicode="&#xfb01;" horiz-adv-x="397" 
d="M293 744q-8 2 -13.5 3.5t-13.5 1.5q-24 0 -40 -11.5t-26 -29.5t-16 -41.5t-10 -47.5l-23 -136h84l-4 -19h-82l-81 -464h-22l81 464h-78l4 19h76l23 135q12 72 37 111t78 39q17 0 32 -6zM249 0l84 483h22l-84 -483h-22zM367 633q-19 0 -19 22q0 11 6.5 21t18.5 10
q10 0 14.5 -6.5t4.5 -15.5q0 -13 -7 -22t-18 -9z" />
    <glyph glyph-name="fl" unicode="&#xfb02;" horiz-adv-x="397" 
d="M293 744q-8 2 -13.5 3.5t-13.5 1.5q-24 0 -40 -11.5t-26 -29.5t-16 -41.5t-10 -47.5l-23 -136h84l-4 -19h-82l-81 -464h-22l81 464h-78l4 19h76l23 135q12 72 37 111t78 39q17 0 32 -6zM248 0l133 756h22l-133 -756h-22z" />
    </font>
</defs>
</svg>
